<mxfile host="app.diagrams.net" modified="2022-05-06T05:09:17.057Z" agent="5.0 (Windows NT 10.0; Win64; x64) AppleWebKit/537.36 (KHTML, like Gecko) Chrome/101.0.4951.54 Safari/537.36" etag="lbol399nQAI_aIcvb7th" version="17.5.0" type="github">
  <diagram id="qj7hGFAoAaWCN2h-yi-J" name="Page-1">
    <mxGraphModel dx="1119" dy="585" grid="1" gridSize="10" guides="1" tooltips="1" connect="1" arrows="1" fold="1" page="1" pageScale="1" pageWidth="850" pageHeight="1100" math="0" shadow="0">
      <root>
        <mxCell id="0" />
        <mxCell id="1" parent="0" />
        <mxCell id="jhgVOvy4fzAntEZaRrQU-33" value="" style="shape=image;verticalLabelPosition=bottom;labelBackgroundColor=default;verticalAlign=top;aspect=fixed;imageAspect=0;image=data:image/png,iVBORw0KGgoAAAANSUhEUgAAAe4AAAGcCAYAAAAf/UOcAAAAAXNSR0IArs4c6QAAAARnQU1BAACxjwv8YQUAAAAJcEhZcwAAFxEAABcRAcom8z8AAHCoSURBVHhe7Z0HeBzlubZ/jE567x0SknBSSThgyMlJQhI6JKG74G5LcpG75N577733ghsGGzBuGIPBgA0YMMaFYjo2BkwL9f3fe7NjraWVdyXt7ErLc3Pdl/Ds7OzO7sz3fG1m/58QQgghhBBCCCGEEEIIIYQQQgghhBBCCCGEEEIIIYQQQgghhBBCCCGEEEIIIYQQQgghhBBCCCFEZjnJrREj/05EyeegEEIIIUKCoP2t29Ed4Y53x7lj3K7upe533JJ82T3PbePyPJ4z0u3u1nb/2/2UWxK29U+X9a53v+kKIYQQIklOdhu7z7pH3J3ujujfe9wlbn33Ky4Q9ITtde40d4P7gBusv96d6TZxf+ay/Vj+6t7sfuDeEf33p10hhBBCJAHBSqv5sEugnh/1crevS4jf6P7JBVrMzdxb3S3uYPda90L37249t5vbw73E/ZwbS3P3OdfcJ9xC9weuEEIIUSXIcX/nNnI7u33ctu6/3N+7PEbo0SV9mdvKZZ18l8dju5u/7V7h/sMl7ILWLH9/6l4Q9VQ3WXhua/cptx8LYjjDJaAfcvPcr7l/c2+JLhvosk4sn3XZJ0L7LPczbsDXXbriX3UfdO92l7pnu0IIIUTGIbTOcfu7dCnTen3M3eQyJkzLtb270l3jznDXubRECbUh7v+6hD/8j0ureIX7ZzcIRf4S6HRdT3cvcpMlNrgJ4lhOcee7dIHzPn/jdnD3u3Pcn7vxJrCxjPfMtoPH6Q6n1c77J/R7urNduthruZrUJoQQIuP80Z3q0mqlpUlQ13GZlNUw+v+E5QF3nzvMZTyZ9ca6d7kT3aAFTSWAZRtdurNp3QJ/CT/Go29wmfyVLCcKbioHm91tLmPWTEab4FKx6OKWh++77VzGtRkD/4PLBDX2mx6G77pCCCFExmBsl5nau9157rluLHR7E8QD3IMu48WMEQctVB6jlX6fSzc6LVha3HRTr3YJ0dgW91XuLJdWLN3UyUJw0w3+tEuFoIXLODTj3pNcWtvMMOf90JJf4BLkTGgrD7z3xS77met+1aXicq+70KULnvcihBBCpB3C9ycureyHXYIx6O6Oha5mxpXpPmddLrEKYBb3cJcWKiHKY2e6dDWnOrhp/T/jvubuchl/pgv7dpdLveiu5/UZPyd8eU9MQksWPo8rXbbJRDfG7oExcLr3qTDQBf95VwghhEg7/+XWdOkSpquZSWfxYEJZL5fxbMZ8g9Y2MCmNruWbXLqSmYwWG9x/cWODm2Dk9SoS3LSAaXEz9s7kuJYure5rXCaf0RXPe+PSLYKbVnJ5Wtz0LnBNON3iVEYC6JXgtRn7Z8xc3eVCCCEyAqFL1zJBSmuSru54ENwE9laXy6diJ2ixDVratFAJ7h+6BDdBvspl/Dm4/pmKAsFNaFckuMsa446F98bkNMbsmZxWnjFuJqUxe5zZ5Eys41IzZtVzLTjd8FyKxtg9497sixBCCJFWCDluPsLEMrqHG7jxYB2ulX7EHeXGdhV/0WX8m3FuZnRzKRaXWS13aXEz3hw7Oa2pS8gznl7RWeVck30i6C6n5UzrnArCaW48aJ2zXT4HKiBc2sZM8jddxvPpYWCcHJno9p7LZ0BLX61uIYQQGYHgJeT2uFNcWquxEMSM8RLOjC9zxzFanAHchnSte79La5oA5DaijGPT/V7gfskFWuNUEva6tGyZ6JUsBCzbIrhju7HLgtY875VxcCodJfeLXgDeO5WHX7vMJmf8nsCmwsHMeSoIg1zG97lNKpfCcfc1KgMMMQghhBAZgVnizMLmcjC6oQlglhF+TCbj34xxMzmNFmdvl25kLufi2m9apLSgCWzgrmW0jgl0Wt60ZOmGprXNRLIXXcKRSWTJQnAzMeyQS8AmgrF2xr/ZJyap8T6vdtkvxsC5Tzl3Q+NmM9wohn1luOBxl8eosHwhKiH/LZf1GAJ41OVSOHWXCyGEyAi0urneerRLyHFpFy1VbrLC2C4Ts4pcLvGiS5zWNKFMiDMBjFZ0bJc4gfZLlzFvWuKEIc/jcioqCLRc57rl7SpnLJ17ldP6TQTrE7ZcN84NYwjl4F7lVDSoQEx267pMoGPbjOEvc3/hxoNLw4a69DzQA8G/hRBCiIxAq/L/XK7pJhi5NpouYi6noqVJcHPnNFq73HyFyWqsw81JaE2XvNc3wckkNca9uUkLd1fj2mta6myPSV+MnScL49BcY04r+WIWJAmXq9Elz/tgfJ5KBhUU3j+Tzhj//p5LS5zL4Xh/tLLLgn0NWuknWk8IIYRICwQkoRvcCpR/0wIloGmBMx5Oy5rHgsdPRDABLJl1w6TkfmHsZW38f+y/T0R51hVCCCHSDpeDcRkY3d2dWCCEEMnCvZDpYqPLjckvTI5J5rIMJppwPSk3Y6DLjO6/013VmoVIzK9cJq1td5nkFYxlVxZ+hYvzkpup0KKnC5qKQSD/5jpsJrVxvgohqiGMVfGrQkyeYZIKM0aZWHIi6BLjeYzHcXkIz2WSDT9ZSEsik913QlQHOE84X/hxECrMwQ1VKgu3W2W7XDbGzVKYrc2tTJGJb/ybiW3lnYEuhKhCcD0ptXMmltBtx4zWE/3CELNbKRwYl+OyFH44n1884tIWZsZSaNAaF0KUDZOwaPHyK2LctzxVld3gvuZMEqNVzW+Bcz/yQP5NLxk/BcpPdwohqiF0rXF9JjdyILxvc+k6Lwsu1+AaVFrb3EiBEAcm2/CzgtzPmIJICCGEECFATZ9xaQKZyTKJgptaOq1tLmHhes6gdU0FgPszcy9l7oCUaKybmahc7sL1rtwFir/BzRmkzHa5xSk/EMJd0fgbb52KGGyXnjHOsbLkdRlXj7cNKWVqTNUQWJlwbSbd3YmCmzs5cc0m15HGXmtK+HKtKrddZOzsRG+YQoXJOXTZ0WrnWtAx//Vf/zXlK1/5yrTvfe97Eb/zne9IKaWU1UJy64c//OG0r3/969M+9alPcbtj7pJIRTk0aDFz28VEwc3dm7jhwjiXlnUQ0IytMTuW2zQmuuECtX3G4fjpQu7AxJ2fNvrOfnj++edby5YtrVWrVpG/UkopZXWxdevWVqtWLfMg/8hzjYYpeRca5QnuCS7Bzc8XxgY3tyyc7/IbxCf6YXy60Ql2foSAOz2dXqNGjUa/+tWvXh47dqw9++yz9txzz0X+SimllNVFsmvjxo12zjnn8FO2DCuHev/9ZIObmbAjXLrKuWwsCGi6yulC577EXCpWrjebk5Nz1rnnnrtn5cqVJoQQQlRXDh48aBdddNEBjzausgo1uJmoQu2AHzo40Q8VMPucXxSi1c2lJQQ+fNPlRw74XeD/YUF5OPnkk88766yz9i5YsCC660IIIUT1Y/fu3fa3v/2Nn8vl5mShBjdd3cHlYIxRlwUta36QgFnl/MpR8Ju8Z7tcDjbHDS4RSxoP7r8S3PPnz4/uuhBCCFH9ePTRR0MPbq6/5sYM/GoRt1887PKLRcz4/l/399G/jGfziz/cNY2xad4QrWvGugl8gnyqSys8+JH/pFFwCyGEyAbSEdz89B7T1re43A5xn8utEZnt3cBlvJu//BB+7G/qEuT8ji63SCXwuX67iZvMfc5LoeAWQgiRDaQjuGk9cz023ePIjHDCmh8q4A5o3HCFv/zGLtd6BzArnGuxuWab2yf+1WVbFULBLYQQIhtIR3BXCRTcQgghsgEFtxBCCFGNUHALIYQQ1QgFtxBCCFGNUHALIYQQ1QgFtxBCCFGNUHALIYQQ1QgFtxBCCFGNUHALIYQQ1QgFtxBCCFGNUHALIYQQ1QgFdwV59913bdu2bbZw4UJbsmSJLVu27DhXrlxpt9xyi61Zs+a45UuXLo08Z+vWrfbWW29FtyaEEEIkh4K7ghw9etRmz55t+fn5VlBQYO3atTtOljVu3NiaNWt23PLWrVtbXl6eTZ061V599dXo1oQQQojkUHBXkPfff992795tmzZtsjvuuMPuvPPO46QVTmh37tzZNm7ceGz5li1bIs955JFHIq12IYQQojwouEPi2WeftW7dutmUKVOiS4QQQojKo+AOiSeffNK6du1qkyZNsg8//DC6VAghhKgcCu6Q2Lt3r3Xp0sUmTJhg//73v6NLhRBCiMqh4A4JBbcQQogwUHCHhIJbCCFEGCi4Q0LBLYQQIgzSGdwnuz9wz3H/7J7hfsvNccuCx05xz3LPdWu6p7onek5cFNxCCCGygXQFN6H9M7edu8a9y53rNnF/5JbFz93O7kr3ZneV28k9zS0XCm4hhBDZQLqCm5Z1R3eBO9kd4853F7tXuZ9yS0Jot3CnRx3sjnVHuQ3cn7hJo+AWQgiRDaQjuGu4dHXf6M5yaS3T1X2lSwu6j/tjl/Viqe0S7L3dX7ufdb/vtnTZzrVu0uTk5PyxZs2aTyi4hRBCVGfSEdxfdP/lrnYHuEFA/8Yd4o50L3W/4MbS1t3o5rp0tQfUcbe5dJknTRDcCxYsiO56uOzbt+9YcL/33nvRpUIIIUTlSEdw00pu5NJKprUcBDeTzpq6o93m7jfdWFq5613GxYNQP8kl0J926TqPDfRYWM7Y+d/d+m7Tk046aejpp5/+0syZM6O7Hi7PPfdc5Jan/JiIEEIIkSrSEdw/dQnmSS4BHgT399y6LuPWvPi33VhohU91CfbLXIL4d+4M90WX1vpn3HgwZs4M9O7uDS4T4u7+0Y9+9FZ5g/TDjz60t95+215/7TV77dUjSbvz/gessENHGzVihL384otx1ynlkdciP/WpW6QKIYQoi3QE9+kuk8wmuEwqC1rJ33UZxx7nMnHtO24s/JuJaxPd5e4Ud6B7i3vA7eGWFdy8Btv/g0s3/dU1atTo9ctf/vKFWbNmRXc9OQ4dOmQrV62ykcOH24ghQ23kkGE2aujwhPbr2csa129grfKa2/DBQ+KuE8g22faIYcPthmXL7EUPeiGEECIe6QhurrtmnHpa9G/Q4uaabrqxmWHexmXmeUm+4TKmPd4lwHmTtNx3uVwmlvT13Dk5OefUrFlzT3nHuPfv2xf5sZDLrrvKrmnZ1K5rnWfXFeQmtE6b5tawqI3V71hgtQoSPMe3eU2rZnbpdVdbh8KO9ph/KZnk9ddft+3bt9u6desiP0nKz5AGP196zz33RNy8efOx5YHr16+PrL9//377+OOPo1sTQgiRStIR3F93gxniTCgLgpvLvWhpc3kX4fxlNx7MJmcbBDvj4LTe73Y7uIx5J4UH9/9VZFb53t2PW2FhoV3ZNs+aLxpvrVZMsZZLJia0YOkka7t8qrVZNsVaxXk81lbLp1gL/3tVxxbWpm1b2/XgQ9FXzwwHDhywwYMHR35PvE2bNtauXbuIbf29tWrVKiL/HywPbNGihRUUFNjq1avto48+im5NCCFEKklHcDPe/Df3Npfu8qB7+48uN2EZ7jJ2XZJ4b4YJbYxbL3LLdTlYRa/j3vvYbutUVGS1urezDusXWtFdy6xw4+KUWrR1mXXctNhq9+5o7dq3t107H4y+emY4fPiwbdiwwZYsWWIrV660VatWRZw7d24kzPPz842ei2B54LJly2zFihWRg0otbiGECId0BDcwQY0u7iUu49yXuL3cm9x8l/FoutS5u9rXXMaov+Ry/fZf3ItcJqjxHLrNeQ5j50lT4eD2FnfnTp2sVhdvea6ZbR03LLQOt8xNqR29QtDe/9bu0d7ad+hgj2S4xV0WR44csf79+0da42+++WZ0qRBCiHSSruD+vEv4MoN8s3uvu9Yd5BLOXDLGDHPGwH/v0iqne7yWO8ela5xrurmJS6FLRSDe3dbKRMFdeQjuAQMG2JAhQxTcQgiRIdIV3EAL+q9uF5fZ4VwixiVbBDDj2//nct01d1Fj2edcHmdMu7/LLHKu+6ZbPemx7QAFd+V56aWXrF+/fjZo0CB79dVXo0uFEEKkk3QGd0ZRcFceBbcQQmQeBXcCFNzFKLiFECLzKLgToOAuRsEthBCZR8GdAAV3MQpuIYTIPAruBCi4i1FwCyFE5lFwJ0DBXYyCWwghMo+COwEK7mIU3EIIkXkU3AlQcBej4BZCiMyj4E6AgrsYBbcQQmQeBXcCFNzFKLiFECLzKLgToOAuRsEthBCZR8GdAAV3MQpuIYTIPAruBCi4i1FwCyFE5lFwJ0DBXYyCWwghMo+COwEK7mIU3EIIkXkU3AlQcBej4BZCiMyj4E6AgrsYBbcQQmQeBXcCFNzFKLiFECLzKLgToOAuRsEthBCZR8GdAAV3MQpuIYTIPOkO7k+7X3a/6n7RTeYFP+N+yf1K1M+5NdxyoeCuPApuIYTIPOkM7m+4V7vj3fluX/dClxAvi2+717vDXZ432W3n/sb9lJs0Cu7Ko+AWQojMk67gpsV8nTvNvcW93b3ZneD+xY3Xgv66+093ksu6S92V7mK3u3uGmzQK7sqj4BZCiMyTruD+hTvXXeBe4P7KbeUSyB3db7olOc+lpT3KJfR/7vI8Wuob3Fw3aXJycv6i4K4c2RDcH330kX3wwQel/PDDDyOP8Tfe44Eff/xxdEtCCJEZ0hHcjFFf5NLSJoRzXDjLneKOcP/oftaN5RqX1vVQl9AOaO7udDtH/pUkHtxn1axZc8+CBQuiu54cCu5isiG4d+/ebTNnzrSxY8falClTjskyjo05c+YctzyQ9WfPnm1PPPFEdEtCCJEZ0hHc33LruYxr8yJBt/hpLq1uwryRS9d4LOe4vd2JboFLC/xyd6BL4F/qlgWvwUS2n7pnumfXqFGj+W9+85uDFMzlQcFdTDYE97333ms9evSw1q1bWyf/XgMLCgqsbt261rRp0+OWB7J+7969bceOHdEtCSFEZkhHcP/EzXMJ26ZuENzfdwn0sW5bl4losXzB/Zs7y73f3ebucle5ddx43esBTFyjRV/kUmFY7m4+5ZRT3pw6dWp015NDwV1MNgT3kSNHbM+ePfbII49EWt+BK1assNzcXBs2bNhxywNZn9b266+/Ht2SEEJkhnQE9+luS5eJaA3ck134rlvLHecWut9xY+FyMYKbFvcKl0lqhPAil27yX7tlQXc8r1vb7eYyLj7npz/96aszZsyI7npyKLiLyebJaYRzUVGRLV68OLpECCGqJulqcee7XMrVxI1tcXOpFy1uLvEq2eJm3LunS/D+yf28SyubyWwbXbrP481GDzjJpZLATv3XySeffMFZZ521T5PTKk42B/fOnTutY8eONm/evOgSIYSomqQjuGlJ13eZVd7GDcKWQGeiGWPcdKGXHONu5nL5F39jJ65d697j9nNLTmgrk5ycnHM1Oa1yZHNwP/DAA5Hgnjt3bnSJEEJUTdIR3NzpjIlka10u7wqC+/cuN1UhuP/slmw9d3C3ukxgi31jXBq2w2WSGjPWk0LXcVceBbcQQmSedAQ3Xda/dZe4jFEzW5xucrrNb3IZr/6By5g2N2rhtqg8J7gcjMvF/u5+z/2RS9f5XW5rl/WSQsFdeRTcQgiRedIR3PA1l6Ce4zLRDG90Z7jcOY1Q/ofLZDVuZ0pLmjDnJiuE/Wp3dvT/CfP+LrPGk0bBXXkU3EIIkXnSFdy0jGllN3QZ6yaIR7tXuPzoCNd68/9c5kXrPOgCZxycSWgz3Xkud16jxc212bTMk0bBXXkU3EIIkXnSFdxAeNMdTkv6VJdJa4x/A7O/g18AI7SDLnDGvVlG6P8wKpPYyv1GFdyVR8EthBCZJ53BnVEU3JVHwS2EEJlHwZ0ABXcxCm4hhMg8Cu4EKLiLUXALIUTmUXAnQMFdjIJbCCEyj4I7AQruYhTcQgiReRTcCVBwF6PgFkKIzKPgToCCuxgFtxBCZB4FdwIU3MUQ1v3797chQ4bY0aNHo0uzAwW3EKK6oOBOgIK7mNdff90GDBjgwT3U3n777ejS7EDBLYSoLii4E5DNwX348CHbsWOHbdi8xW7b5PrfdZvvLNMbbrzZWrRtb63aF9qKNbfEXaekbHede+fWu2z/vn32/vvvR1+9aqHgFkJUFxTcCcjm4L7vvu3Wo1tXy2/S2No0z/uPLcq2ID/Xchs1sDy3tf9/vHVK6dtsmdvUWuTl2uyZMyOt9qqIglsIUV1QcCcgm4P7lvXrI0Hcu94/bUVRA1tW2MCWdCzbG4oa2eqezW11j3xb6v8fb51Yl7orOzW0mQW1Le/qy6z/wEH28qFD0VevWii4hRDVBQV3ArI5uG9at95a5zW1Gz1c35vR2d6Z3tlen9qpTN8oYbx1Yj3qfjiriz0zpq31a3qd9Rk0xF58RcEthBCVQcGdgKwO7ts3WJv8ZrbKg/tdD+23pnW2I1M6pczX3PdndrGnRre1vk1rWV8FtxBCVBoFdwKyObhvjgb38qKGkRY0YfvypKKU+Yr7llcI9o5sY308uPsNHqrgFkKISqLgToCCu+IquIUQIvUouBOg4K64Cm4hhEg9Cu4EKLgrroJbCCFSTzqDu4b7DfcX7m/d09yvuCyPx+fdH7qnuzwHg//n79fcpFFwl0bBXYyCWwhRXUhXcBPOp7j57jJ3gzvFreN+143HGW4nd5a71F3sLnLXuTe5V7pJo+AujYK7GAW3EKK6kK7g/rrbwp3nzndnuzdE/325m+OW5L/dXHeQO9od4xLcT7i8YbaXNAru0ii4i1FwCyGqC+kI7pPc37vL3Tnur90vu7S2V7s9XLrEWS8Wwvyz7hej0s1+jTvNneFe7CaNgrs0Cu5iFNxCiOpCOoKbsWpa1Te7g91gTJuu8JFRL3BZLxF0tdN1XuAyRp40Cu7SKLiLUXALIaoL6QhuxrAbunSPE7hBcP/YpSucbvA8lxb1ifiOO9O91b3QpTWeNDk5OTWdPQsWLIjuenIouCuuglsIIVJPOoKbljEt5cluYzcI7u+7dd2xLi/+bbcsgu52utZXuswqTwRd7Z9z6Wb/kre4LzvzzDP3z5s3L7rryaHgrrgKbiGESD3pCG5CtqU7wW3gnuwCLfHa7ji3o0uLuiy+5bIuE9qGuScKeWBHfuVSUWBy2yh36WmnnXZk+vTp0V1PDgV3xVVwCyFE6klHcAdd4lPdZm7Q4v6BW8+lxd3GPVEYn+0S2LTar3VpRZ+IT7lnuu1cJrItcG8/9dRTj06bNi2668mh4K64Cm4hhEg96Qjub7p0iS90aVkHwf0zt61La7i+y81YyuJql8ltA10uEwta7WVB1/oXXLrjeZ3Ta9So0eCMM854urwFs4K74iq4hRAi9aQjuD/tMmv8NpfWdfAi57hMNhvh0qIuC8aqaTnfH/1brklpATk5OWdpctrxKLiLUXALIaoL6QhuYJybkObuZ1e457qFLq3o1i7j3Uj3Odd4By1qQpvn0irf7F7nVoiTTz75PF0OdjwK7mIU3EKI6kK6gpsxaQKbMer17hZ3rUsgMxZNl3Ytt4l7lhtc0013N7c2ZXx8vPsHt0LoOu7SKLiLUXALIaoL6Qpu4EdBLnO5CctEl/uQ/9ml65vHznd5nDHsz7jAY4Q1E9L+6iaaTV4mCu7SKLiLUXALIaoL6QxuYGIaY94EMy8W3OaUv3SP0zUeTF4LYDmWvCVquah0cHdra+1vm2eFdyyxjrcvSKmFm5dYB/9bu1cHBXeGUHALIaoL6Q7ujFHZ4K7drZ21XzffCrcsjbSQU2nhHUutg/+t06ujgjtDKLiFENUFBXcC9u55IhLcVzVrYLnDelv+mP6WP6Jvah3d33KH97Gr8hpFgvvRXbuirx4uCu5iFNxCiOqCgjsB+/butc6dO9s/rrzC6jZrbPXzmlq9FMs2r/dt/+OqK6x9+/b2mH8p6UDBXYyCWwhRXVBwJ+BYizu3oeWO7GPNxw30FnK/lNp87EDLG9XPrspvrBZ3hlBwCyGqCwruBBwb4+4eHeO+M4Qx7i3RMe7eGuPOFJwIRUVFtmjRouiS6sVHH31k+/fvtzvuuCPinXfeecx77703UjHZtm3bccs3b95sW7dutWeffTa6FSFEdUDBnYDjZpXfOi8yA7zjugUptXDTEuvgfzWrPHUQZO+//76999577r8Teu8991j79u1s1qyZcR8v2/fsgw/ej7xeJmFfly9fbi1btozYrl27Y7Zp08YKCgqsbdu2xy1v3ry5dfDjbdOmTdGtCCGqAwruBOg67oqbqeD+6KOP7eGHdxm3t502dbI7yaZPm3xCBw7oaw0b1LOOHdrGfTyebJftL168KHIiZZIPP/zQdu7c6e9lccRly5Yds3v37lanTh0bPHjwccvpXSDs9+zZE92KEKI6oOBOgIK74mYquD/44ANbuHChXV+vgdWp18QaNytwW53QpnmtLa9FO2uW3zbu46VlmwVW+/rG1qBhY1vuQfjxxx9H30HVYsWKFZEW9l133RVdIoSozii4E6DgrriZCu7333/PW8RTrK6Hdsce42zw+NU2YMwN1n/00jIdOHa5DZt4o6+7Mu7jJR0wZllku+26jrLr6zexuXNmZ7y7vCxWrVoVuVqBMW4hRPVHwZ0ABXfFzWxwT4q0iAePX2Wzb9xt02/YYdOWPpAyp9+wM7LdfqOW+uu09OCeWWWDm25xWtxbtmyJLhFCVGcU3AlQcFfcTAb3jOlTIl3aA7x1TGhPXni3TVpwV8qcvHBbZLu9hy+IBPe8uVW3xa3gFiK7UHAnQMFdcatCcPcftSTSQiZsJ87fmjInLbg7st3ew+YruIUQaUXBnQAFd8VVcFcNFNxCZBcK7gR8EoJ7VadG9o4H7JvTOkfCO1W+5r43s4s9Nbqt9Wum4M4UCm4hsgsFdwKyObhv8uBu68G9unMje98D9p0ZXbzl3TllHnU/mt3VDo5pa/2b1ba+Cu6MoOAWIrtQcCcgm4P7tg0brUVuUxvgreHVvVraqp4tbXmPFilzhXtT75Y2t6iptax7tQ0aOsxePqTgTjcKbiGyCwV3ArI5uDdu2mzNmjaxulf9y9o0qW+tsXFqZbt59WrbNVf804YNG26HDh+Ovnp4KLiPR8EtRHah4E7AJ6HF3bdprUjreJm7pHvzlLnUXemt+Fkdm1iLOmpxZwoFtxDZxaMK7hPzSRnjfm9GZ3t7emd7fWqnlMlM9Q9ndbVnomPcmpyWGRTcQmQX6Q7uGu6n3c+4vNhJbjLwvE+5PBd5LsuSRsFdmmBW+Y0e3O96aL+V4lnlr7vvz9Ks8kyj4BYiu0hncH/FvdQd5E50i9w/u19yT8Q33cvdfu5od4Db3P2lmzQK7tLoOu6Kq+AWQmSKdAX3F9x/ugT2eneLu8Yd5f6vW1br+cvu1e5kl/XXuStdnvdHN2kU3KVRcFdcBbcQIlOkK7h/7s5wF7pXuue6he7Nblv3a25J6EY/253q8lxa62e5NaN+100aD+7zFNzHo+CuuApuIUSmSEdwMyZ9vnurO9ZlrBrOcWe6w6P/z7h3LKe4uS7rNGNBZcjJyTmrZs2aexYsWBDd9eRQcFdcBXfVQMEtRHaRjuBmjLquS2u7oxt0i//MpbVNt3d9t2Sr++8uoc7Y9j9cWu085ztuEP5lQWud7vnvuzzn9Bo1ajQ444wznp47d25015NDwV1xFdxVAwW3ENlFOoL7xy4tZ7q8aTkHwf0Dt55LK7yN+203lqvcee4Yt687zV3i9nb/4H7OLQuC/Uy3nUs3+wL39lNPPfXotGnTorueHAruiqvgrhoouIXILtIR3Ke7Ld0JbgP3ZBcYo67tjnNpidOSjuUa9yZ3rTvJpfVNyM92R7h/ccuCHfmV29hlFjut+qWnnXbakenTp0d3PTkU3BVXwV01UHALkV2kI7hPc/NdZoYTpEGLm25sutAJY148Xoub0N7otnJ5nEvHCtw73K7uiVrdOS6Pf9H90sknn3zZmWeeuX/evHnRXU8OBXfFVXBXDRTcQmQX6QhuWtYNXVrKhG4Q3EEXOtdm57nfcGP5lzvfJfAZ7w642L3FHeb+yC3rUrLjyMnJqanJacej4K64Cm4hRKZIR3B/3uUGKlz6NdgN7pZ2hjvSpRubYKaFHAvXaTMxbaB7HguisC7XdBPczDxPKrh1HXdpFNwVV8EtxCeP559/PnIerVu3zjZt2lTKu+++2+69997IOrHLWf/OO++0F198MbqlypGO4CaomSi2wp3r/trlxip13NVuD5cA5nIwLh0jwHkOk9foSmcMnK5yWuR0lTPBja7yni4zx5NCwV0aBXfFVXAL8clj27Zt1rlzZ8vLy4ucUyUtKCiwli1bWps2nhcxy1m/S5cudt9990W3VDnSEdxA6BK+zO6m+5tu8xtcZo1f6NKdfpF7hcukMkKcmeG/cJlRzmxyJqgxM53n8/88L2i9J0TBXRoFd8VVcAvxyeOpp56ym2++2ZYuXWqrVq06zpUrV1phYaHVq1fPJkyYcNxjrL9mzRp75plnoluqHOkKbrqzGdPmHuPL3Q0uIUyrm+u3mXh2rctYOK3zYNIZAc6YNjPKl7l0kfP/hPxX3aRRcJdGwV1xFdxCiJLMmjUrEt67d++OLgmHdAU3EN60vGlF/9Zltjk/PAK8MDdqIcDp/o4dt2ZWOF3p/KgI3ez8P+Pm5ULBXRoFd8VVcAshSjJ79mwrKirKquDOKAru0ii4K66CWwgRC+f/jBkzIi3uhx9+OLo0HBTcCVBwV1wFd9VAwS1E+Ci4Q0DBXRoFd8VVcAshYlFwh4CCuzQK7oqr4BZCxKLgDgEFd2kU3BW3OgU3l6m0b98+cnOI6sgHH3xghw4dsoMHD9pzzz13TG6G8fLLL0d84YUXjnuMdV966SV79913o1sRIlwU3CGg4C6NgrviVqfg5jpSgnvbPduiS6oXhDaX2TBbt2fPnta7d++Iffr0sYEDB9qgQYOsb9++x5b36tUrUniOGjXK9u3bF92KEOGi4A4BBXdpFNwVNxPB/dKLL9n27dvt9k0b7NaNt9ttm263dZvWJ7T/kIHWoGkjGztpfNzHS3qbb5vtb/DX2bljpx05ciT6DjLDq6++aosWLYoE9eDBg23o0KERCe1GjRpZ3bp1I2EdLEfWnTJlij355JPRrQgRLgruEFBwlyb7g7vABoy5wWYse9CmLLrHJi/cljKnLLo3st0+IxZGKgjpCO7NmzZbUYdCy2uSawXNW1nrJM1vmmfNGjaxFs3y4z5e0oL8lm4ry23c1Hr37GUPpel4PBH//ve/7c0337S33nrrmK+88ooNGTLEOvn5+fjjjx/3GOu+88470WcLET4K7hBQcJcmu4N7sjXJbW2Dx6202asejbSOpy65P2VOW7ojst1+o5b66xDcs0IP7qUrllnjug2sX+MiW9R5vM0rHGNzCkcndFG3ibas11Rb2GV83MdLOr9orDvOOtf10G+Wa5vvrLqT2iZNmhTpJieshcgkCu4QUHCXJnuD+32bNXO61WvQxNp3GWr9R8y3PkNnuTNT6KzIdtsUDbT6DZvagvnzQg/uRcuXWOsmLWxNr9n26qyd9vy0e+3g1LuTcFuM8R4/3hen32cvzbjf5nYcba1btLINWzZF30E4fPjhh/bc88/Zg37c33fPDtu+bYf/3Xm895b2zju2WbfOvax1q/a25qbb4q5Tcjtse7u/xgMP7LQnnzzgLfnMTl47fPhw5IcnNm/ebFu3brW77rorIj9msWPHDrv//vuPLUN+YYp1Kbg18a5qoeAOAQV3abI1uJmFPGfOHLv22uusdt361qRZC7d5CLawWrXrWe3adSJjsB9//HH0HYRDJLibtrCbes6yV2Y+YM96ED895a6US4XghenbbU7HUdamZYFtuDPc4H777bfthmVLrW37NtaqoIW1aVvgtk5o6zYF1rhJI2vYqH70efHXO94CK2jdylr6+lOmTLaXXkrNzyxWlF27dkUm1OXm5kYu2WMSIfL/rVv7+43+ylSwnGX80hTj94R+VYQAe++99yIVC4Y4SspjVK75G+9xzt/qiII7BBTcpcne4H7fZs+aaXWvb2gt2na3rn3GWueeI61TzxEpk+2x3fyCLnZ9/Ua2cMH80IN78YqlkeBe1WO6PT/9Xnty8p22b9IdKZfwfsZb3jM7jIgE98Y7N0ffQTi88fpRGzVitF1z/SXWqvfl1mX0VVY03B12YjsNv9p6Tbjeek+sb51HXht3nZJ2HnWVtR90hV3b4ALr0rmLPXng6ei7yAxcunbTTTcZ5RK/IBU4ceJEa9CgQeRnIhcuXHhs+eLFiyPrck1+VR0e4NI8KrLDhg2zcePGRX4pK9apU6dG7uk9bdq045ZzFcCYMWMiPQth916FgYI7BBTcpdHktIqbiclpWRvcrx21kcPGWrN2V9nE2+rbDY/m2vwHmtn8+xO74P5cW/CA63/jPV7Spbtybdbdja2gxxXWtUt3O7A3s8FdFgcOHLCuXbva+PHjq10L9Omnn7bRo0dHegf47Wp+hzrWFi1aWO3atS0/P/+45R287CP01q5dq+BOgII7AQruipvp4G6SW2ADxy63mSsetqlLtkfCNlVOXXJfZLt9Ry6OTk5LX3Df2GOGvTBjuz01Zavtn7wl5RLaB6dts1kdRqY1uHPbX22T1zew5Y/n28KdebZwR+pd9li+zbmnqbXudeV/gntf1Qxuwq979+6RlnfYPTmphtn8vH9m+j/xxBO2d+/e45w3b541a9Ys0uKOXb5nz57I+ly3X932GRTcIaDgLk32t7iz6zruRSuWWFt/rVv7zLU35jxsL8+4PzIWnWoPzdxhh2fttAVFY61tGsa4Ce5Rw8dZbrurbcItDWzJw3k2b3uuzbs39S5+MM9m3tnEW9xXWreuPapscBNktLjpas62SWhMwqN1vW7duuiS7EDBHQIK7tIouCtuJoJ76cpl1qJxns3oOMK2j7rJtg5bYVuGLUu5dw9faXePWGUjW/a2ghatbPPWO6LvIByC4M6jxX17A1u2O7wW9w2PFre4FdyZYcOGDZEJdzfffHN0SXag4A4BBXdpFNwVNxPBfePqG61BvfrWpHYDK8pra4W5baxjCBbm/edvvWvqWPP8fLsr5Hucxwb3JIL7MUI21xY+kHpveCTP5mxrUuWDm1u1BsHNTOtsIghuJuVlEwruEFBwl0bBXXEzEdwrb1xljeo3tLYNmtvgtr1sYJseNqB195Q7yLfLtvPrNLYW+c1t6913Rd9BOBx946iNGT3O6ja60goH1rG+kxpZr3ENQ7HvxEbWbWQ9q9fsn9a9ew976smqGdzMNu/Ro4dNnjw5uiR7UFd55VFwJ0DBXXEzGdzTp02OBPfAMctsxvKHLPWzyrdHtttnxKJIcM+dE/6d05asuMEKmjS3pV0n24HJd9ru8Rvs0XG3p9w9EzbZExM325R2QyKT0zaFPDntzaNvestyvF11zRVWr/G11qzl9da0hds89Tbz7TbKrW1XXHW59ezR055++pnouwgHbi7z1ptv2uFXj9jLr7wW8ZVDib13+w4vCzrZkKEj7eCzL8Vdp6T/2fYRO3LkNXv33XdCn+DFtdhvvPGGHTp82F55xT2UnCtWrrIWLVvZwkWL4z5+nNHtvnrkSOR6/49DPscqS/BjOI899lh0STgouBOg4K64VSG4B41dYbNWPmLTltxnUxZvL9Op6OtgvMdLOm3J/ZHt9h25xBqlKbiZnNbGX+uW3nPstTkP2YvTt9tz0+5JuUx6OzRrh80vGhOdnBZucEda3KPGWf2mV1r3MXVt2PzGNmhWo1AcOq+x9Zta3xq2+Nd/WtwhX8d96NArtnLlMhsyZLj1Hzgy4oBBoxLatVs/q1uvmTVpVmD9+g+Pu05J+7HtgcMj10Jv3XpHJFjDZN/evZHrsQcOGuyvOyTiwEFDE9q2fUerXbeetW7TPu7jsfb3bfYfONhGjBhht6+7rcrf2pYbP3HvfGbIh0k6g/vT7q/d69xG7qXuT12Wx+Nz7s/di906bq2oPO837pfcpFFwlyZ7g/t9mz59ql1Xu77lt+1jXfpNtU69J1hRr7Lt2m+y9R4yy3oMnBb38ZJ26j0xst3cgp5Wq059mzd3TujBnc3XcY8aNs7yOlxtUzY2tBVP5Nvih/IiM8BTLZeazdve1Nr0Ts8Y9759B/x1uliDOn+3bu0vtN5FF1nPjhcntHeny2xQjyttQPcrrGfhJXHXOc5CnnORdWh5vtWvc7lNmTrNW6jh/sjK5s13WH5+rjWtf61175Br3dyu7RPbq1ML69+9rb/flnEfj7VHxzzr0KqRXV/rKhs2dGjkUrGwoaeC33rnVrTc6OaOO+6I/E0k63EXPC5145K3eOvEGmyX29q++GL57uCXruD+lHuW28fd5D7grnIL3f924/EjN9+9zX3IXe+uc2e6DV0eTxoFd2myNbjpnuQ3qFu0aGVNmuZaXn5Ly2/e6oQ2y21uDRs39fXz4j4eT7bbuEmzyI0m1q5ZE3rXZFYHdzA5bV0Du+GxvGM3VUm1S3fl2ey7m1jrnukJ7sd277fCwk7Wv/N59vBtf7f9W863R9dfkNDHNlxkezZfYo9vusT/fWGpx0v6mPvU1vNtw6K/Wtvml9ioMVPt6JvhBvctt91uLZrn2sTBHezh2yfbg7dNtPvXjE/ojlsm+rqTI3/jPR7ro+un2Kalw62woJH17dffXnzp5eirhwflxxo/n7nFLDeJadWqVeQOdsnYtGnTyE/NNm/ePO7jsbJdts94/2233Vau8iNdwf0Dd4C72O3ptnHHuSvdBi6t65Kc7nZyb3eXuq3cZu617v+4X3GTRsFdmmwNbk4Axi7vvHOL3b7uVlt321r/e8sJpWu9WdPG1qd3z7iPx/M/273V7tq61Q4efDb66uGR7cGdjddxP/rYASsq6mJj+//dXn3wQnv/iYvs9V0Xp9w3HrnYPtp/kT16+/nWpe3lNnL0tNCDe+2tt1vrlvm2eFJPe/XhJXbowUX2/H3zU+rrjyy13RunWe+ifOvTd4C9kIbg5k51TDKrU6dOJFT5DfgBAwZY//79Ezp8+PDIrVt5TrzHA9ke6zC7nt+Tnzt3brl67NIR3DnuH9217lT36y5c4BLIg9xfuKwXCy1xwnq0ezULKkNOTs65NWvW3LNgwYLorieHgrviZiq4KwKzQJkNWt7jI50ouCtvuoP7sd0HrFOnrh7c59uhHRfav/dcZEceujjlvvbwxfbB3ovskXUe3O3+4S3u6Wloca+31q2a29yx3ezZe+fZM9vm2P47Z6XUFzy8aZnTZd6v/8C0tLgZauOubrSGZ86caZs2bYq0iG+99daUyfbYLq/Dj8YwV4CWfrKkI7hpGRO8y11a2zVc+KXLv0e5V7lfdmMhuAvciS5j4mWNhZfFSe7JLjv1X97ivsBb3PvU4i5GwV2MgrtYBXfqCIJ7eO/z7amtF3l4X2wHt12Scp+95xJv0V9s966+wIpa/8NGj01vcB/04H7ag3ufh20qpdWdyeBmljg/o8qla4RtqmR7bHf69OmR16mKwf1Dt6k7w2XMmkAFljNWPcalZf0tN5afuXSV3+Fudoe5Hd2/u19wTwStd7raa7vd3L7unJ/+9Kev0gVSHhTcFbc6BfcDDzxgHTt2jHRZVVUU3JU33cH9xN791rlzF2vW8GIb0fdKGzfoahs9IBzHD77a+nT+hzWs9y+bOGmavRXy5LRsD25+DIVZ4vwGOjeNuf3221Mm22O7tOgZD6+Kwc3M8BYuLWeCmlYwfM9ltvhYt4P7HTcWxsVZf6FLeN/sMqFtuHuR+1W3LILJcEXuPHeZu/mUU055k5+UKw8K7oqr4E4tCu7Km+7g3hsN7jq1LrHOvn/dC6+1rh3DsUfRtda6+b/8ta6wSZOmhj6rfK0HdxsP7oUTe9jLOxfZiw8ssIP3zEuphx9abI+sn2K9ivLTFtyMcROoTZo0iYxDUybwbxp9qZLtsd2BAwdGJrQxC72qjXHTcq5IcHO5F5eLEcBnu39wG7tT3Gku4V0WdMfTRX+a+3v3f2rUqJH/29/+9hlqUOVBwV1xFdypRcFdedMd3Lsf329FRZ2tR4fzbcvyS+z+NZfaXSsvS+yqy+zuGy+3u1ddHvn/uOvEeLevs3PtpbZyxoVWkHe5jRk3zd58Kz0t7nnjuttz3jI+eM9cO7B1dkqlMvDgrZOsZ2H6Wty0fCkHatWqFflN9JYtW0Za36mW7darVy8yCY7fL69qs8pLdpUHY9yJusqD9WKhld3Z3eHSbZ40OTk5Z2ly2vEouItRcBer4E4de/ZwOVihtWr6J5s96i+2eMJ5Nm/MXxO6cML5tmLG5bZs6qU2b+zf4q5znGP/aksmnmdj+/3JmtS70MaNnxx6cK/fsMma5+dax4LGNnl4N5s0rKtNGNIlpU4Z0c2G9+1gTRrUtkGDBtsraSg/aHHTdX399ddHLvXs1atX5Paz/MxqqmR7bJdLwghvcqmqtbjLmpzGTPJgctqVbrxLwuJBq/sRl+cmjQf3X3Q52PEouItRcBer4E4dzz//nE2dMtHatS2wDu3bWMcOba2wY7tjdirq4O+jk3Xv1tm6xchjTRo3sPy8pta1S9Fxj7FuF19WWNj+uG118G23b9fay6uOdtNNN4b+4yRMruJmI3VrXWOtWzaz1i2aWUGLpim1jW83v2lDu+bqK23IkCF26NDh6KuHx39u4PSfSWNTpkyJTCbjB1FWr16dMtke2+X31nkdeoKr2hh3cDnYLS5d3F9z4Xw3uBws3k1YmEX+2f/87zFolXdxt7lcC540uo67NAruYqpbcL/gwf2UB/d+D9pU+4wH90EFd0r497/ftWeeecoefOgRu++BRyPeH+OOBx+3hx/ZZ488ut92xbj21s3WolUH69FrkD2wc/dxj7HuQ7v22gM7HjtuW9v5u+MRL9Qfs5dffjH0O/mtW7/RWjbPs0HdW9naBcNszfyhtnrOkJR628LhtmhSH2ud38AGDBzk+/VK9NXDIwjuYNIYdzhjQhkzwVMl22O7wetUxeAGusUJ6CUuLWVCd7zLDVjquoxvMxZ9jsvYN2F/iktLnG72PDfX7e1Od4e6VAaSRsFdGgV3MdUhuBcuXxIJbu5V/vqch+2lGfdFWt6p9tDMB+ww9yovHOOtqFa2Ycum6DsIh2wO7kS8+eabtm3btkjri+t6AxcuXBiZHMUxSUEfLN+wcWPk3xTcmWbtreutTUHzyA1YDj+0xF7ZufC4m6ekwuAGLH06Nbe+aZxVHrS4mV1OyHInNX4/PFWyPbbLr79V1RY30Hpmglk/l0u7Ym95eqpLWNdzGQP/nfsZl+u8e7gr3I0utzu91R3iMlGtZGv8hCi4S6PgLqZatLiXL7XmDT2APFAfHXO77Ry5xu4fcVNCd4xaaw+OudX/Jrf+g6NusYdG32rjWvazVvktbOMWtbjDYvfu3davX79Iq4vjL5DbbTJ5iTHQ2OXcaYuJTQTL66+/Ht1KZiC4mZy2cEJ6ZpX37TdAwR0lXcENhDE/DlLyR0aYZf55lx8gIbS/7dLi5g5r57q0uoMfGeFGLdzuNNnx8GMouEuj4C6mOgT3jTettib1G1nz6xpb96YdrFvT9ta1SbuE9m7eyfoXdLOeeYVxHy9ptybtIza56npr1byF3e0twjD5JAf3K6+8Erme95ZbbrH169cfk9b13XffHfntaq75DZZT2HPnrZ07d9o774Q7+SwR3PK0oGW+LZrYww49uNhe3rHQnts+Lwnnxxjv8WKP7Fpij22Yar0K862PgvsY6QzujKLgLo2Cu5jqENy7Ht5lU6dMtYGDB1n/IQNt4NBBSdmybYHVrlfX2nfqGPfxkg7wbbP9QUMG2by58+zJA09G30E4fJKDuzpz27r1ltussfXs0MSWTe1tN0zpFek2T+Tyaf1s9ZzBtnx6v7iPx7pieh+bMaKT5TW6zvr1628vvazgBgV3AhTcFVfBnVree++9SPfoocOH7eXDr9grhw8l5ay5s61FQUu7ac3NcR8vy0OvHrajb7xhH7z/QfQdhIOCu3qy/d7t1qVzJ2vauIG3vPOsoIXL3wS29DIn3wO/RX7TuI/H2tptntc08gNA06ZOsSNHjkRfPTwU3FUIBXdpFNzFVIfgrihcesKvHG3fvj26pGqh4K6evPLKy5GJdTevucVWrV5rN96UnEOGjbR6DRpb/4FD4j4e66rVayJ/16273XbvfszeC/kSN1BwVyEU3KVRcBeTzcG9bNmyyKQmxlKrIgruTxabNm/247G9rV27NrqkaqHgrkIouEuj4C7mkxDcW7ZsiS6pWsQG98RbG9jSXXk2/75cm+/hnWqXPJRns7YquDMJN25h1jwT8qoiCu4qhIK7NAruYhTcmYPgHjl0rOV1uMqmbmpoq/bl2xIPb1reqXblE/k2//6m1qb3lda1S3fbv1fBnW6YHc/xyBBOVUTBXYVQcJdGwV2MgjtzENwjho2xern/sL4zr7Fxa+rZyBXXJ3TUino2/qZGNv7mxjZ6Zf2465R07E31bOji2taozaXWpXNXO7D/qei7EOlCwa3gThoFd2kU3MUouDMHdw/jntC1611jDfKutGatr7VmBdclZX67utbczW1dK+7jpfRtN25xjV1b95/Wv38/O3jwYPRdiHSh4FZwJ42CuzQK7mIU3JmDy9zuu3+7zZs336ZNmWXTJs+26VPmJHTS+OnWMr+tNWmYb6OGj4+7TknZNs6aOds2b95ob7yR2buPlQWVmccee8wOHDgQ+j3H042CW8GdNAru0ii4i8nm4F65cmVkMhB34qqqEE78nOL7733gQf6fv4l87cjrNnz4COvWtbvt27c/7jolPbbt9z+IFJQf+39VDT6HBx980MaNG+eVmXn2wgsvZFV4K7gV3Emj4C6NgruYbA7uVatWRYL7nnvuiS7JDj7++ONIuPG7xi+n4Y5a6YLuewKbe5V38rKHW56+9tpr0UerPwpuBXfSVDi4H9ttnYqKrFb3dtZh/QIr2rrMCjcuSqlFdy6zjhsXW+3eHa2dF7C7dj4YffVwUXAXU92Dm5OerlUKBOR+1oF9+/a166+/3kaPHn3ccgoQfpXqySfDvaVpWLz11ls2atQo69Gjhz39dPbMDmdIg8CuVatW5HsbOXKk7d+/P/po9UfBreBOmsq0uIsKC+3q9s2t5Q2TrPXqGVawfEpCW6+Yau1WzbC2K6fHfTzW1jfOsFb+9+qiVtbWD2i1uNMPXZOF/j2X9/ioKlDYMJbNL0dh27Ztj0nLLTc3N/JLU7HLKTBoiW/cuDG6lepFtgU3PQi0rDkG69evb1deeaVdccUVke+Km+eUp2Cvyii4FdxJU9Hg3r93r3Xu3Nkuue4qu6Z1rl3Xrrld1zY/oXXat7RGXdtbg85t/d8JnuPbvKZ1nl1S6+pIV/ljj6Tnt3YV3MVwIhQVFdmiRYuiS6oXnPTsQ1AwcHOLQLpaacVRYMYuX716daTlrRZ31YD9uffee23AgAGR1vbVV18dCW9+l3vGjBmRiWrZEN4KbgV30lQ0uBk7W7J0qQ30k2lgv/42yB3cf0BCe3TpZo3qN7DmuXk2sG+/uOsEss2BffvbAP//BYsW2vPPPx999XD5JAb3Sy+9FBnrJciYrBXIidO4cePIbyPHLg9kfe71zc8wiqpBtgX3c889F7ksjt6ROnXqRML7uuuus3r16h0LunfffTe6dvVFwa3gTpqKBvcH/mG+8cYb9ooH+MsvvhTxlSTc7uHQsX0HGzF0mD33zMG46wQe266/Br/+xKzSdPBJDG5+FIEeFE4WuokD6UZu1KhRpNCMXY4UMqzfrVs3u//++6NbEpkm24J737591rt370hLm9CuXbt2RMKbIJ85c2Zkn6s7DM1wThFgVREFdxWiosFdUWg1d+/e3aZOnRpdUvX4JAY3k3yWL18embW7ZMmSY7KMk+nGG288bnkg63NZ1VNP6U5bVYVsC272gYlojG8T2IQ31q1bN1K4L1261N5+++3o2tWXrVu3Rn6tbt26ddElVQsFdxUi3cFN7blLly42YcKEyA0mqiIa4xbVmWwLbnrbmI/A/hDc11xzjV111VWRIZyxY8farl27IqFS1aFysXfvXtu5c2fkPZeUngPG7SdNmnTc8oceesgefvjhyHXrTNTLFAruKkS6g5sDNwjuf6fhN2QrgoJbVGeyLbgpuF988cVIaNA1zsS0f/3rX5FhHFqn77zzTkYDLVnolRoxYkTk6gYusWTSZ6zNmzePXOZGYMUub9OmTWRoimDL5A1nFNxVCAV3aRTcojqTbcENBBYFeuvWrSMtbsa3mWX++OOPR9eo+jABlKGn8ePHR4KPEIyVeyUsXrw48jd2OS1wJucxs17BfWLSGdw13G+4v3B/657mfsVleTJ83j3V/Yn7RfckN2kU3KVRcIvqTDYGNzzxxBOREGvWrFmkFcqd7w4dqj7nDb0CBC9BxN94sk6wXmCwfqZ7FRTcxRDOp7j57jJ3gzvFreN+100EoX2+O9ed5f7JzXGTRsFdGgW3qM4wlhoE9zPPPBNdWv3hkq+77ror0tKm/OD67XRdaSIU3LF83W3hznPnu7PdG6L/vtxNFMK/dCe4r7s73Kvcz7hJo+AujYJbVHe4VzmXUFWnFmkyHD58OBLe3NGvqk5uzVYIbq4GIlBnz54duWsd154TtKmS7bFdbqwTvE5VC266tH/vLnfnuL92v+zS2l7t9nB/6JbV9f1Z92r3ZveAu8i90KUVnjQ5OTn/V7NmzScU3MUouEV1gAKNW4EydsoNkbgJDtI9TquUCVDMYA6WI+sSftU59IKuY5FeCG5a2sx8p0eHWwlzR8WFCxcmlEtHb7jhhsgYfrzHA9ke2x0+fHjkdapicBOwtKoJ3sFuMKZ9hjsy6gVuvCBmGSHNm+O5a9yZblnrl4kH9zke3HsWLFgQ3fVwUXAruEVqIICZyMQNcPjBlP79+0fs06ePNWzYMDIDu2vXrseWI/+mNZ5NP84h0gPDEjTwuH6emzIxUZCZ/cnIrHh+84C5CfEej5XtcvxyZzyCvjyVtHQEN2PYDV26xwvcILh/7Oa6o908l4lrJWEy2kCXVjlhPcKle/1i90TBfbLL6/7B/Zd7dY0aNXr98pe/fGHWrFnRXQ8XBbeCW6QGgpsb4HBDI25JSysbBw4cGLnsiJuWDBo06NhyJOSZ1azgFuWFAL3vvvsiEwSHDBkScejQoUnJJXAEMcdfvMdjDbbNODe/TlieSXnpCG5mjzMpbbLb2A2C+/tuXXesy4t/242F7vSL3DFuI/dHbleXMXJa4Sca4/6UW9Pt7jKWTkv97h/96EdvpetOZgpuBbdIDXQhcnMSuskZy471yJEjkW50wj12Oeu++uqrGh8WFYIym1tdc3xxHCUjxx2VRX7NjbvDxVunpGyf1ynvcZqO4D7dbekyuayBS2sYaBHXdse5Hd3vuLH8ze3n8txvuYyBF7nMKv+ze6LLyHgNgv7vbn236UknnTT09NNPf4m79qQDBbeCWwjxyYIhHX5LnfI/TNIR3EGX+FS3mRsE7g/cei4t7jZubIubdQrdB1zGwP/qXukudu90aUkz4S3pce6cnJw/MjlNY9zF3LRuvbXJa2qrOzey92d2sXdndLGj0zqnzDfdj2d3tYNj2lq/ZrWs76AhCm4hRFZCVzezxBnj5hauYZKO4P6mS5f4QpeWdRDcP3PbuqNcWsXcjCWAN9LJfcZ93L3VJbD59xvuTreDe6LZ6McRBLdmlRdDcBfkNrGlHerbkUmFdmhiob0wvmPZTuhoL/k6yP/HXSfGF903phTZ48MKrFfjaxXcQoishbHxILi553qYpCO4P+0ysew2l9Z18CLnuMwQZ8LZ2SyIgXBnYhnh3MulhT3IJbwJci4r+6fL9eFJBbeu4y7Nug0bLbdRA2t37WU2rkVtG9u8to0+gWNb1rVpHZraVJf/j7dOrGPcCS3r2KAmV1vDKy+1QYOH2CuHDkdfXQghsodsC25gnJuQpqv7Cvdcl65wLhFr7TLejXSfMyktGAeP5asu3eZcD87lZZ9zk0bBXZpdux62USOGRw60ok6dI3bq3KVM23cstAaNGlnDRo2tgz8n3jolZZsdizpZ165dbMWyZXb06NHoqwshRPaQjcHNvcUJbGaWr3e3uGtdusnPdJlhXstt4p7lxhu7puXOpWF0uXP703K9WQV3abjX88GDB+3xvfvs0Sf+42MncOs9261DJw/jrt1t2/074q5T0kef2Ot/99q+/fvt0CuvlOsmA0IIUV3IxuCGr7mXudxIZaLLGDazw7kzGo8Rxjz+39FlJaGFfal7vcsPlXDJV9IouCsPQc+1s8OGDdNlNkIIEUO2Bjcwdk3LmWuwebFgfJq/dI9zz/Jg8lo8eIz1khrXjkXBXXm4lSR3pRo8eHDk2lkhhBD/IZuDO2MouCsP93/mzlXcpYqbBwghhPgPCu4QUHBXHgW3EELER8EdAgruyqPgFkKI+Ci4Q0DBXXkU3EIIER8FdwgouCuPglsIIeKj4A4BBXflUXALIUR8FNwhoOCuPApuIYSIj4I7BBTclUfBLYQQ8VFwh4CCu/IouIUQIj4K7hBQcFceBbcQQsRHwR0CCu7Ko+AWQoj4KLhDQMFdeRTcQggRHwV3CCi4K4+CWwgh4qPgDgEFd+VRcAshRHwU3CGg4K48Cm4hhIiPgjsEFNyVR8EthBDxUXCHgIK78ii4hRAiPgruEFBwVx4FtxBCxCdbg5uN/8y92L3S/ZP7I7esF/2ie7p7nnuZe4l7gftr97NuuVBwVx4FtxBCxCcbgzvH/Y3b1b3dvc+9wS1wT3Pj8WO3mTvXXe/e6q51B7hnu592k0bBXXkU3EIIEZ9sDO7vuj3cRe5Qt6c7zV3m1nE/45aE59DCzncL3Y7uYHeSy/PPcpNGwV15FNxCCBGfbAvuk91z3ZvdGS6BDJe6y93+Ll3orBcLb6Zkq/oUt7e7xm3IgmRRcFceBbcQQsQn24L7Sy5j2ivdPm4NF37l9nNHuf90WS8RjHnTVX6TW48FyeLBfZ6Cu3IouIUQIj7ZFtw/cJu4M93mbhDcTExr7I5xW7rfdEvC2DhhXcule3yOy3bauP/tJk1OTs5ZNWvW3LNgwYLoroeLglsIIT45ZFtw0w1OYE90G7lBl/j3XMa3x7od3G+7JaGr/P/cge5Gd7+7xL3I/ZxbFie5X3C/7/L6p9eoUaPBGWec8fTcuXOjux4uCm4hhPhkMXv2bCsqKrLdu3dHl4RDOoL7524Ld4LLuHQQ3Ix113bHuUw8+45bEtb9lnumy5h4J3e029n9vVsWn3J5TjuXcfUF7u2nnnrq0WnTpkV3PVwU3EII8cli1qxZWRPcdIlzWdd0N88Nusp/6DZw6SrnsjACOhFfdqkE3OIy27ws2BHG0OmKH+Qyjr70tNNOOzJ9+vToroeLglsIIbKLp59+2tasWWPLli2zG2+88ThXrVoV6SavV6+eTZw48bjHWH/t2rV28ODB6JYqRzqC+6vude5St5sbBDdj1F1cQvVal67tWOjujgdh/7DL5WUngvFxutO5kcuXTj755MvOPPPM/fPmzYvuergouIUQIrvYtm2bde7c2XJzc61du3albNWqlbVo0cLatGlz3HLWJw+2b98e3VLlSEdws9E/u9xAZbJLkMJf3OC6bu6GVpLPuyVnmvNcutV3ukUsSJacnJyampxWORTcQohPMs8//7zdcccddtttt9nGjRtLedddd9k999wTWSd2Oetv2bLFXnjhheiWKkc6ghtOdWlZM7GMGeFcykVgr3aZsMb49i/c37rMLqe1/FP3KpcJbLTIr3HbuoQ/E93Od5NG13FXnqNHj9rAgQNt6NCh9u6770aXCiGESCfpCm7uLc69yYe5d7j3u9yQhUu8mPXN7G/CnHHrM1zupPY7l9nkhPsG97aoTE4jtBnvThoFd/JwWcM777xjb731VsS333474lNPPWU9e/a0vn372rPPPntseWCw/nvvvRfdkhBCiFSTruAGxpvPcZmgxuVfzCini5zWNV3g3ML0Dy4hzjJa4Re6TDBjQhqhzv9TAUjmZi3HoeBOHrqDuGyO1vWoUaNs9OjREekir1+/vjVo0MCGDBlybHkgLfERI0bYnXfeaR9//HF0a0IIIVJJOoM7oyi4k4eZk2PGjIlMqujatat17949Yo8ePSKt7T59+kT+P1geyGUQ7POtt94aabULIYRIPQrukKjOwc349XPPPWf79++3J598MtJFjgQ6yzFYFuuBAwci62vimhBChIeCOySycXKaEEKIzKPgDgkFtxBCiDBQcIeEglsIIUQYKLhDQsEthBAiDBTcIaHgFkIIEQYK7pBQcAshhAgDBXdIKLiFEEKEgYI7JBTcQgghwkDBHRIKbiGEEGGg4A4JBbcQQogwUHCHhIJbCCFEGCi4Q0LBLYQQIgwU3CGh4BZCCBEGCu6QUHALIYQIAwV3SCi4hRBChIGCOyQU3EIIIcJAwR0SCm4hhBBhoOAOCQW3EEKIMEhncJ/kftH9gXuq+233cy7L48Gb+bL7XfdH7g/d77lfcst6TpkouIUQQmQD6QpugpbQre/OdVe7o9wr3G+68SCs67pj3MUuz5vsNnHZVrlQcAshhMgG0hXcX3UbubPdFVFXuTPcC92T3ZL8xu3oTnPnu3PcG93pbm23XOGt4BZCCJENpCO4aW0TwrSa57nnuN93G7s3uV1cusNLdn//xD3P/Z3L43SV/9OlBU54X+omTU5Ozp89uJ9QcAshhKjOpCO4GccmZNe6w92gdf17d7w70v2ry3qxfMGlpR4L3eqd3FvdZixIFg/us2vWrLlnwYIF0V0PFwW3EEKIMEhHcH/HDca227g1XKBF3dxlrLup+3U3ETynq7vMZfy7LHiNb7i/dWm1n1+jRo2Ov/rVr56bPXt2dNfDRcEthBAiDNIR3IRtvhtMLAuCm+7y692xbjuXWeYnghY5Y9tT3CHuH92y+JRb0yXkl7hMhtt6yimnvDV16tToroeLglsIIUQYpCO4T3dbuhPcBm7QVc64dS13nFvo0jIvixz3bHeme4N7uUuLuixYnwrDP1xem4rBhJ///OevzJw5M7rr4aLgFkIIEQbpCO4fu3kuLWW6xGNb3PVcWtxt3bJa3ExaYzy8r8tMdFrRJwr5uGhymhBCiGwgHcH9LZcucS7p4kWC4P6pW+Ayxs2lYl9z48H13Mw8v8XtHv13ufHg/oMmpwkhhKjupCO4P+Ne5DITfLQbdJWf5dIKZ1b5H1gQB+6yRrhz/Xc39xS3Qug6biGEENlAOoIbfulyDfdC93z3Vy6BfLPbwaXbnFnltM6ZhEb3OGPYXPJ1n7vevcb9mUtLnVumcuvTpFFwCyGEyAbSFdzcc5wZ4dwpjS7v2901LhPWznUJ7qtdJq8R8swK/5O70j3qPu0yKY3JaYtcrgc/0azyUii4hRBCZAPpCm6gNU2rmbBmvJvJZtzu9PMurW1u0nKVS6ua4D7T7elykxbulkaXOl3tTGaj25yu9qRRcAshhMgG0hnc8GmX1jd3ROOXwoIXZMIaY+GfdbmUi65yHuPuaayHdI3z3K9E/024J42CWwghRDaQ7uDOGApuIYQQ2YCCOyQU3EIIIcJAwR0SCm4hhBBhoOAOCQW3EEKIMFBwh4SCWwghRBgouENCwS2EECIMFNwhoeAWQggRBgrukFBwCyGECAMFd0gouIUQQoSBgjskFNxCCCHCQMEdEgpuIYQQYaDgDgkFtxBCiDBQcIeEglsIIUQYKLhDQsEthBAiDBTcIaHgFkIIEQYK7pBQcAshhAgDBXdIKLiFEEKEgYI7JBTcQgghwkDBHRIKbiGEEGGg4A4JBbcQQogwSGdwf9E9z+3sDnTz3ZruF9x4fMb9pVvP7e/2cC9zv+3WcMuFglsIIUQ2kK7g/px7gTva3eTe6651B7lnuSe5JfmKe7E7yX3Gfc6d4J7p5rjlQsEthBAiG0hXcJ/mTnQXuQ3dS9xe7k1uS/fLbklYdoZ7lUt4b3RHuue6n3LLhQf3eQpuIYQQ1Z10BDch+1f3VpcW82dd+KM71x3m/o9bMozpKv+SSxc7LW9a6z3dc9xPu+UiJyfn7Jo1a+5ZsGBBdNfDRcEthBAiDNIR3F93a7uL3U5uMD79c7ejO8qt637VLYu/uGPd3m4ywU3XO8H/Nfe77ve8xX3N73//+yfnzp0b3fVwUXALIYQIg3QE96lurjst+jcI7h+49d0xbhv3W25ZENzj3T5uMsHNjtDNTjc8z5vu3vyTn/zk9WnTpkV3PVwU3EIIIcIgHcF9utvCpZu8gXuyC7SEaYmPc2l5f8ctC7raKxLcvC7bp9Jwk4JbCCFEdScdwf1Tt7nLBLNGbtDi/p5LFzld4Lw4l3mVRXmDO+gqp/udCsF3g67yefPmRXc9XBTcQgghwiAdwf19l8Ce5dJ1HQT3KW5Tl0lnBPs33bIob3CXQpPThBBCZAPpCG5mhf/LXe0OcINrtn/jDnGZnMas8RNd4sWNWrgUrKv7KxaUF10OJoQQIhtIR3DTwj7bJbhnuz9xuYHKle4ql1b0j6PLWDf2Ziz8P2Pi3LxlskvwcxnZ592g5Z4UugGLEEKIbCAdwQ2MXxe63IBlistM8gUul4j9w2WiGrdD5cYsP3PpCieYaZW3dW9xD7gPu4Q9t0ClyzxpFNxCCCGygXQFN61pZpfzImvcu9x5bhOXy8AI7jouY97c0pSbtBDcf3Jpae9w73fvcbe7K13uW540Cm4hhBDZQLqCGwhvrt2mpfxnl8u1CG26w2lh8xgT1rhHOd3jLOfmLb9zCfA/ROX/2caJLh8rhYJbCCFENpDO4M4oCm4hhBDZgII7JBTcQgghwkDBHRIKbiGEEGGg4A4JBbcQQogwUHCHhIJbCCFEGCi4Q0LBLYQQIgwU3CGh4BZCCBEGCu6QUHALIYQIAwV3SCi4hRBChIGCOySeeeYZ69atm02ePDm6RAghhKg8Cu5K8PHHH5fpE088YZ06dbJx48bZu+++G3cdIYQQorwouCvIO++8Yxs3boy0qKdPn26zZs06zuHDh9v1119vzZs3t2nTph1bzrqTJk2ydevW2ZtvvhndmhBCCJEcCu4KcvToUZs7d661atXK2rVrZ4WFhaUsKiqKGLuMdVu2bBkJ8FdffTW6NSGEECI5FNwV5IMPPrCnnnrKduzYYTt37rSHHnroOHft2mWPP/647d69+7jlDz74oD3wwAN24MABe++996JbE0IIIZJDwS2EEEJUIxTcQgghRDVCwS2EEEJUIxTcQgghRDVCwS2EEEJUIxTcQgghRDVCwS2EEEJUIxTcQgghRDVCwS2EEEJUIz5RwV2zZs19y5cvj+66EEIIUf3grp0XXnjhkx5t7dysDu6/nX322fsXLVoU3XUhhBCi+rFnzx5a3M94tHVwszq4L/j+979/8LrrrrOhQ4e+N2zYsHf977/DkG2774wYMeJN961gWcn1qpPRfXo32Kfg3/HWrW5G9yWrvi8MvqPhw4e/zb7xN1gWb/3qZLAffF/sW7bsF0b3RcdjNTLYh5jj8Z2w9ott82NVp5xyynsebUPcT0dCLks521120kkn3e/e6K5wV4Yk217nPurucFe78darTrJPa91d7sPuzdFl8datbrIfG93d7vbosmxym8u+bY5Zlg1yXj3ocp7d6mbT8Zht5UesW9zH3btilmWDq9z7XM61DW5Yx+Nyd4Pn2X1ukfspN2v5inum+3/Rv79zfx+SbPta9yZ3snuuG2+96iT7dLG7xF3g/i26LN661U32o4l7qzssuiyb7OuucwtilmWDnMsz3ZXuv9xsOh4pP1a7U90/uPHWq64yoYrjsXvMsmzwf9zR7i1ufTes45Ht1nT/7P7MreGKFPFjd57bM/Kv7ODL7kR3lPsZFmQRZ7lL3VaRf2UXDdxlLpWtbGOgO8P9buRf2QPlx1y3T+Rf2cUl7gr3usi/sgvGnBe7v4n8S1Q7fuXyBQ5ws2XywPfc6S7h/TUWZBF/cle5HSP/yi7yXFpvl0b+lT18zh3uUkE+jQVZBOXHIneQm21doVe69EZSocw2urpUSs6J/EtUO+jOWO4yeeCzLMgCfuTOdum++zYLsoi/uje7nSP/yi5aumtdupOziS+5Y1wC7nQWZBGUH/SSUDGhgpJN0NKmO5nhqWyCLmt6WKkk/5EFovrx3+5Yt9DNlm5luiMHu/3cr7Mgi6CGzHyEZpF/ZRd1XSpbf4/8K3v4gtvNHenStZxNUH5QKWHyUbZU/APoKp/mXh35V/ZAcFNJpkeSeVSiGvIdt5Z7oZvDgiyAMW66uf7pUmhmEz9xr3eZ8JRtUClhsgxhkE1wGQzd/0zk+gYLsgjKD1qmF7nZdp3ur12Ox2wLt5Pc81wqyvROimoIhcr33W+6fKHZABUQWt0UKtlSGQmgO/IHbraN3cNX3R+62VbZooXDkA1zL7JtHJjyg/36lptts4YZ4uBcoyGQbVCBpNzPtl4SIYQQQgghhBBCCCGEEEJUDxgzYxzmFDfeeAVjvIxB8XgwdsiyL7rlGd9g/JFLWbj8g5uAcP0m4+JhjiHzfk91ef8ns6AEjPeyX4zVBPfB5S9jU8mMJX7eZXIGk1CCu9T91g3u+sMYeRjj/myTMWommpU1WYnPm33nM2bfeQ77y/cW77MoCyYMcXywT9wxif3kLkbsexgE8wuYPR1vrDoY72XfuEsgsD/sF+8p0efN4xy3jIWf4bI/7Bv//3OXqwjK8/kkA9tjDJfvK3jPJeF7ZJ94fd4j+8n+Y0XGftkOxyXXfSfzuVSUoPzgvScqP/iOoDzlB58dn9lPXb6rQMoSztMwCcoPyod4xwTnE+d/RcsP1uG4+IUbnFuUG2wzmedXFI6FROUHnzn7zvtj33lOecoPjlleg4mi3Iab84vjpDyZIU4ABx3X9HL5EwVySTgImYXMnbYoCIAT8XKXgy0Z+LKucKe4XPPNtY3cLSnX5YQMq1ChgsD1odx6MF7QUKixX8z8DO5I9UuX2eQc1ImgoG/uckcrbmpyg8utUu+IyvWbYcyU5aTmWuXxblmXmvyvy34zG5nPn+cwk5xLVAj1ZKCApYLVyWX/1rhcA87NMsK6npjA4TvhrnV8fyVhP5jx39bldohAAcFtatm/RIUKj/O9cQOJ9e5tLjeS4Bpp7k7GpWSpLlw49jjGxrnnsyAOF7h8X1xnz+fOc7gDHO+HArM8ULg2cvm+uNSKiklYM7aD8oP7OPC5loTyg9nHseUH5xrlR7zvtyR8DtwKlTurcQze6HJTEy5F+oeb7LFcEQhSbg3M9xKvEkkZwWVR3GCFMhEI4WTLDz6Ha9wJLucV10VzW9seLg2AZAKyInAs8B4pP3j9ePCZs9+XuRx/PIdrtik/kpnYynM4dtk37jXObZa56VO23YcgY3CyLXT5YDnoSsK12dwrli+MVgpQK+R62caRf50YZlQSIhSK3GqTwov73HJ9Izde4MCPF6qpgMKcAOW6ZQrDktByY52/uMHMTw5kgpj3nAg+j6tcrrHlBCfQ2L8H3Vdd7lEc73UrC8HS2uWE4L7c8eAEoXCk8KEA4H10cfnsqUUnA7VlbrQwy+Uk5zpi9o8TMJmCqSJQAHKy3+nyvZSEmjyXfVGgUOkDWnPcSyCZu8ER/LQA2Kd9LscgodPfpRJGmAStp1TBscV91O91uaQrHrRI+L6CcKPFwznD+yrv/RGoHBACL7mEXRiVkQAq+9zTnwoQld6S8N65W19s+UEoUX4kc2MSAoBjmO9mqMt5RqWO53MsUolL9fcVwCWum10aHPEqPpQfXMbGpVFB+UFFmvIjmcstaTgQ+pQb7NMIl+dy8yfOVY6JMOA7odyg/KAciUdQftA4o/zgvKOCRkUw0U2paIhRYeO4Y/2HonJeJ1OuiiTg4OHApMbHCU83DYUyBSgnO18YrSC6fQlYavPUoB91uS0oXZp0gZTVbcW2aB2xLj+GznaAk/lul0pDskFSXmixUDunkkAI0fXD++X1CDJORg5CuosoIKi9U1jucbkXL+tTKy6r0OOzYRsUHJwMfD6ECoULBWZtNwx4LW6gssml5Uirh/0iwNiHoFuL904A8P98z9Tm73c5IVmXbvR4BRLPZ594/wQAhQjbYTn7yPEQVmHJ8UGQ3u4SchT2wTHGa/MeeC/sG8ciLSEKWAoh9o/g4xjmc+D7KQnvm8KInhjCm5YFsN2ggEo1nBv0WvB95bvsC/vE++QxXpt9YZ/4N/vJe+SXkQgOQoDvi8/9RBVB3j+fHxXJe1xej8+SYGGbYcD5TcWY1j29BuwT+8YxGZQftNBiyw+Oq0fc2PKD4ONzKAn7y/OQ/2cdvkN68Ph8qFByPIQBnxvHP++TRk1s+cF5U7L84H1w62fKDyqRrMt3ymPxoIylEcS5yTpIRYjKMsd/WDdJ4vNr6nJ8cKyULD/4zngvseUHj9MzRflBTwfrBp9DSfiOeA77x3HcwqXBQK8J5X6871mUE74QPlRClO4nWi6EKTVAPmQOSmqRdGvT5UYriKB/zX3apcubmjAnbbxCjwORmtp8l9Z1UPBwwNKqoouSAAkD3j8tqo0uYcr7pnVAS5gaJQcf+0VAUOBTGNDz8I7LAUrtlwObFkKy0IXNZ8hBSssuDDjx6rmceIQVhTO19DkuJzuFCa0UatVUxqi5c/JQWL7l0jqisCVEODlLwnfEPvO90bKhtZQueO+93G0uv4hFK59jh2OTbn/Ci14S9oeucn6RjmEeWpfIffM5nmmJxatw8dnx2fCZ0WILWu1hQljRstnqcrxzLHLecHwRYpxjhDPrcMxS2PHZH3A5z6gEElB0t5+oa5iCkkoZBT/HA/c27+0SQPG6elMBYcZ3FFt+cI7xHcQrP+i9m+QecWPLDypf8bqGyyrkaenymuxnMl23FYGuYYa/OM+o6AXlB58v5QeVFM43biBD+cG5zy13KT8ecDl+KWvKajkHlf2SsM2dLhXmMOAcYPgzXvnB/f6pZFE+U35QrlMWUFbscmPLD3pBOObiEfTy8Vp8t9yFks9NwZ0iqDHTIqXbkK5sum044flyKDw4QSi8CXMKcLo6CPXnXVrddH9Q0FI4xAtuClq+fA58DmS2Scubg4WCq6HLARwGvCdqrrxPTjq6oqg1UhDSRcUJx4FLwUMAEAyMwR926WKn8OG9xusCjAeFKtuilc+2KbTCgO5easx0P1F4sV+EEIUGrUi6kenl4N+8fwoOuiW3u6+4wb2h+ezjdXvxfVCJoUClBUGhS8DQ00LAhLVfwPshiDkeg/F0jhN+HpHeEAoB3jvfGxUuurY5/gi5J12OZbqX+S7jHVd8djyH44Gua45D9ovtllUIVRZCk1sC73apRPKahBfnGIHMOca4JvvL98r3xfdHQcl5xvnIZ8IxdaLWJcc7xwKFL/vE8cv3F2ZwU/GnfIgtPwhj9o3gYd/4rKlQ8Z3Qw8E5wn495saWH/GCO4CeCMKEz4DeCyoItIQJoLCGAahkcNzxPjmu+GwpHxhn59zh+KM8oTyk/KB85NwKyg+6iRknZp5IstDzQAWOnpawfsGPc4A5EJQfVJD5PoLygwCn8sd7oBeF98/xyPqcL5QffAacgywLelBPBOU/xy+VSMoPBXcKoMXBF7HfbeMGMwFpaXLiUwhyoPKF0tqmBkVrhnFcTjqCmcKE5fEgzOlSoeuZFjbP47Vo0VKocDLGC/xUQGFMzZcDjkKDfaPGRyBReHIi0sLmoOJzoACgACXoqU2yPgVG0EtwIjgY6fLiRKbQotUU1gFK9xTfFUHFZDhq+3wPFGqcgIynUqhx4nHy0+KjO4zCky5UCkn2jcI83nsk8CgQKayCMTeCku3RqmIeQFi9JAQ3Bf0zLrV0CgZaNgQZ+0ZPBq0gQoIJNhx3fKdUYPgsgm7ysgrzoDeBworvmS72oMJDZY6u+VR/b3zO7Av7RGBTWWY/mSNCcLNPhDPnGa1qClYqi0zipOJJwck+0f0YD94v3ycVLFpCnKc8n/OLyg6fT1jhxjFPWFFxopLIcUhrlCEcgisoP2jNcdzxfVEpTLb8CKA7ne+H753XohJKgPP6YZ1n9FZRTvFahBmfMcFD+YGUH3xHlCX0LPIZ08LmuKJ3sTzlB3De8TocE5xnlF9hwPuhNU35wbnET3OWVX6wHvtApZbeIspSJlCeqPyIhcfZDwV3iiGwKPCCAj2AL4fChhPlLpdCPPglGB7jYObxRHBCMj5ERSBocRM61NgorOiC4cAIAw4YapQcnEGXMAcbByi1ZApsasYcqBT4QEDQTUXhUh4IR2qWFFKEQDARJwwo2KkR0/VNwRhA1z8FBi0gusHYPz5fTlQKBd4XyynsTgTbp5BkfI+Z1xRM3I+eVgbfId8b+3qiFlJFIagJNwp2vqcAhh0oFOk253iky5LKGNCioYXCfieCSiLHAvMf2B8k8NhHtsn3f6JWbUXg2OAY4/viewuggkyFls+USi2Vozou8DnQM4SJ3g/nD58Vr0FLm++PihoVApYx7yLeWGQq4Fii/KBAj/0ddMqS2PKDIKDQBh6j/Ig9dhPBPlKBodJIpYBwo/JF0LG/YcAxToWQigmfJ9C1HZQfBBvlB/vJuQeUbZQfFflhEY5jKl4cB+xnWHN/OBYIZI5HKnZBkLIPDEFRcQ7KDxowrE/5wXHKeVae4SXON3pdFNwphi+BFhXddLFdOiznIKT1SJcKX2YQ3Iwx0pJlrC6AwomAZiYhM60JTcKLmijhQRcaB3xQ82e8i5AjBHheGCFAjZmuLk7y4HWpSBACHLBUVgh2uuoYq4Mi92GXAjCA1iXjouw3JyQtmpJdzOwnhTAtCwr/E41FVhb2gROKMdPY7jQKeMKMQpLvjN4EQomTjvfDZ01AUAACgc53RPclE06orPC9UGDQNU4BwncUW4lh3zgmCCDWS/VJSGBRKDLxKLYiScFJC5UgowuZAA/G3undYL/47INWKX/5TtgG75/hA4KSz479LtnLQ6uU1i37zPNSCaFDpYP3GFsZ4biiu5VhKPaJ1+ZzB45HhlwIB1qbwHuna5rCj/FUehzYJ64MoWJNoUorlDCji5OKF9vo6PKdl9VirwwENxVC3icttwCWc4wE5QeVqiC4KcgpP6i8B5QsPzjX6JkoqzeOc5BA5VgJq/eHigjvn9ZvMBYdlB/0ZlB2IIHE9wIMiVB+MAclIJnyg14zevs439heUFEIAyo6lMmUH7EVScoPzimOJb4z9p1hF8pOHmMIhOfQSwrxyg+GoWIbYgrukCCg+UIo5IMvBAhxTngCfYcbG9x8uSyjuyiA2hrjcxSe1LDplqXGykFKlxgtGg7eAFq4QeuNcXNOiFRDcBMAvPdgjI+DkEKaigQFKTVqDqgguCn4KESDlg/wvukpYEiBE5UWYXANcQCvxf5QkBAWhGVY8FlRM+a90D0ZwNgzwxiceHTx0Y0XG9yEHftMIQEs5zvie+QkpfVAxYUwoJBhqITuwKDABYKG44XPg4K2rIK1ohDcdLHyXnhvARSMFDZ8B7RoYoObwoIChWMvaFlSMPIdEhhbXIKF1nVZvTsUlPTM8JnFngepgNekUOZYiy3Q6X5kSIJzgH0qGdyce7xvPhNg/DOY/MhYOb0hjDNyfHKMP+VSGeUxgpFxZMZbqbyy7/EmIlYWAprPneMn9vymq56KbFB+xAY3xxbLYiv+lAex5QffMwFe1nlEdzyVEo6DIDRTDcHNZ8z5FBw3lB/sB+UHxxXfKT0bwXvg/KH84HsNoDIcW37QqqYXJIBjlcCnhctxErTewyIIbt4L31EA5Qfhy3dF+UEmxAY3xynnWVBB47uh3KNs5/vn82ACWsnvg3VoKPFYcBWHqCQENwcUXZNB1yNQm6dApzVOtwkHb3Di0XqhVsnBG0Aw8jgFCeHHzEhOXiZ4EGgcDLEtKGrTvC6FJS0mam+phpoeY5gUHrweBGOBhBLdeAQ73YlBcNMNxxhVbFcXBSyFDa1cTkBa48H6ARQ6nAi0rDgBUh1osXDi0fLlshOCNQgrgpT3R0WJAp/95gTlBGO/qUwR3LFdXRSAFJD0rlBRo6eEgoTlFCYUMrFjbXSh0+rlMT6DMFrchBATuWLvE8DwDK0cehP4zmK7ymkBEVgcZwF8RiwnKHmvdA1SaNByitdtzGfCZ0YBVJ7JRMlAa5Ju4Sfc2JnCVDgozPiMCVfmRwQVRgo/Ck6+w6CrnM+a8XmGLWhRU2mj0svxSSWHY4LlfI9UfoKKKecx52FwrXEqIbg5hyk/aOkH0AKjQA/KD743KsxAhYsWHa2wAMoPGgZB+cFxS+DRSxBUumPhuyVEaHWHNSzFZ0qXPsdFcM5QAeZcjy0/6CoPworvl/KDCm4AFSbKD/aJ85NQD9bnMVq9hCKhHXtuhgXHP69J+UFDIxhqoPyg4hGUH0iZFwQ3Y9xUqmJvtMP/B+UH5xnZUHLyKhP36NXkew0aDaKS0C1I98zLLgUjhQmhTa2eUKAw4MTkSwvGsCgEqInS8qJFzXOCVkFJCEy+VLrTCHpObp7PQUzBxDgVBU8YcLJQ+yUECGtqucyuphChwGTcnRYWB2/QPUoNkwAmzKmIULs8UYFHFz8TO6hR0mridcKGE40C+gWX7l0KQkKJE4N94zE+V0KI/yes2IegMOczoMBnn8vq6aDApPXOd0yPBN8ZBS8FFi1DCqYwul4pyNiHQy6Bxn5RgNI6Y+IMBQ7vicoDBQZhRmEQjAfzndMbEnQvl4RCiB4FQgL5jqkUsF26lum+LetYrigEN8cH+0RhTwWWz5OWGpUUzg/2lRYX3w3HFD0AhB7nGZ81nwOFfbIVXFq/fF4cB+xfGN8VEDR87lyKx/lNoBLaseUH+0ylkW5wCIYlCKtE5QdByfdJ2cN3hfw/AcPnxbFZVi9KZaHCSgPlcZdygfdBxYJGTGz5wTkRhBnnP+UHFbVE5Qf7RkWYSg9lB8cgz+G4pKxK9XEYQHBzzFF+cHwRtiXLD747yg9a5By/SDlJZYlGWaLyAxhKYz0+KyqlZAjfG0FOmSkqAcFK1y8HJx8urRZq/0i4clJRaNIlFQQ3z+HA5OTj5OHLDrotS8IXSwuGL48DATlY6OaiUKEbJajxpRoKBU4swptCgrFExgEpSDhYKUgIAd5HcOJx4nBi8h7ZN1oFwZhwPGjNciByUFM40coPGz5TChC6s4KJP/ReEMqM53MSUiCwjJOQgoPn0JpjGd8bhS0tthMVDnwmtBCouPEcvjs+O1p0FNhhjFXR2qcCySU4wbFFzZ9WGwULgUSvBu+J4Cbk2AcKBCqCSGucseR4LWsKeSqPfOccgxwfSGWEVgHfZbznVQYKPb4HQoBubI4vKst0LRJ2nGPMVeD8I7g5pnifhAXvkc+dliUFZrIhRWWG85YKA0FQVpdzZaEyQQutZPnB8RKUH7T4+U6C4Kb8oGLMenzHXLkQ29sXCxU5jmWOA9blWOAvxyHHA63ysHq3qGDwekH5wT5wHHLscQyxP3Ttc+7TQwUEFb2LQflBr0NZ5QeVHCpsDGkgxy77xV9CrqzPpLJQ3vKZUn7c7fLZcnxRfvBdUn7QU0VZQXDT2qb8YBiH9fhuOX45pk80/ELZzmfF9frPuQddrgignOSYFJWAWh81S8ZMKRgozCnA+DddJ7TWCEC6joPuZmrvnJCcmLQaqFVzEJZ1AtFKoLZKdyXbpjDhSyckw6otA+NmtFaYac2+UbhTgaCrm8KeLh16F6h0BN07dClzQnLAUrgQkHQHlgUnAS04KgKcaGHOJg/g86Qmz3vjO0DCjG5+WpwEBcFKeFGQ0Mrku+HzIOxYj245xrNKdmvFQmHPeC+fHd8ZlTVOeI6LVIdbAN2iFJjsE60Xjhm+M45LhlQ49jiW2DeGYtgvChWCiq51WmB8z7RoWV4SPgsK+2Bdujk5hnkdKgVh7Bfvg/ODz5Ew5tzi8+d9cm5xjvH+6QJnH3kPVEj4DqlssW7sd5sMtNhZn3ObcA2rckyhTo9IUH5QFnCOc87x/bBvfBfMkg7OI75D9jO2/OA7jVd+UOmkkGf7nI+sz/fGsUGDIIxJrQGcy/HKD7q6CSzOHXoXKD+CCXKUHzRwKN94vxxnZXV/02Ll8r/gfKSbnVY85xmVEsrYMKD84Hij/KArnO+B1+V9sC8cY3xXnGN89vHKDz4HeuROVH5QdrAuvS9UUJH/Z984NkSKoAXFF4TJtqbKs35Ftp8qYl87GcrzXtO9LyUJ3muy7yPZ/QoIto/pprzvNZn1eSx2n8qz/VRQ3tfMxHusCLGfaSr3LXa7yawfBrHvIRli1y/rvbI89rHY55zoeakmeN1kXy/Z9YP1gnVL/lsIIYQQQgghhBBCCCGEEEIIIYQQQgghhBBCCCGEEEIIIYQQQgghhBBCCCGEEEIIIYQQQgghqi7/7//9f/f/j1x8sXPDAAAAAElFTkSuQmCC;" parent="1" vertex="1">
          <mxGeometry x="560" y="259" width="182.25" height="152" as="geometry" />
        </mxCell>
        <mxCell id="jhgVOvy4fzAntEZaRrQU-29" value="" style="shape=image;verticalLabelPosition=bottom;labelBackgroundColor=default;verticalAlign=top;aspect=fixed;imageAspect=0;image=data:image/png,iVBORw0KGgoAAAANSUhEUgAAAe4AAAGdCAYAAADUoZA5AAAAAXNSR0IArs4c6QAAAARnQU1BAACxjwv8YQUAAAAJcEhZcwAAFxEAABcRAcom8z8AAHOiSURBVHhe7Z0HeFRl+rc/Mf/tvblVXd1dd9XtLtuLva0V6Z3QCQkl9N577yBFuoiIoFhBxYoVwYICikq1g6hrfb7nPs6RIZkwk2TOJBl/93XdV2Dm5GTOzDnv723nnf8nhBBCCCGEEEIIIYQQQgghhBBCCCGEEEIIIYQQQgghhBBCCCGEEEIIIYQQQgghhBBCCCGEEEIIIYQQQghRSr7s/tdt557CAynwFfffbr47xB3jjnB7u83cv7jfcOEo93vuxW5T9+euEEIIIcoIoTrL3ebW4YEk/Mit5U5173AfcTe6D8X+f43b3a3uft6t5p7qznPvcy90hRBCCFFGjnEXuvvchjxwBGhFF7jr3VvcoS6/c4F7nkugd3P7uVQCCHmC+9fu1e4m9xJXCCGEqLR81f2n28Lt6tIapcv4dJeu6T+657pnuoQawUj4Xe4e68bzS7eG+3c37IoGurtp1Z7j/tX9ppsqqba4OQ72f4P7jDvI5W8W5ST3LPcfLpWCo121uIUQQlQJvu7SGqVb+R73cZdW5yp3gNvY7e/e6C5257r3uwTjapdx5xPdEFq3tHZHuvFjxT90W7u0nGkFE56pkmpw8/dGuQ+4M9zfuoxfJyPHZVsFtxBCiErN/7k13SUuQU3Y5rqENT9pdTdyr3Lppr7X7eHyXBd3qcuYcQeX8APC+WmX4PwVD8T4iVvornGnuIlawiWRanAzZs3+qVjQe0ClJBV47b9zFdxCCCEqLbREf+wSiE+5tK5/4YYwaYuWNF3ktLT3ugTbyS4Q+s3dJ13Gho93GSsm6De449z4/TGWnOcuc2kVx4d6MlINbmaRP+ze6dJl/kUXeF20+Hm+gdvEvcz9s/ttV13lQgghKj0EL2O8tFDviv2bgIvnCy6PL3I3u21dQi6Ese9rXVrrTPwi7Ou7tHgrIrjPcHmd9AL8y/2cC7Souf1ruEulYof7mDvd5XGg617BLYQQotJCNzKTyG526fI+wS0KIc0kszkuYchktHh+6o53V7h0r7PPum4Y3EXHuAl+WudRBfd/XAKZFvfZbnyL+ziXQO7kcrzcGrbSPd8FXquCWwghRKWFWd2Mb9/k0qJOFNy0VAnuK921bqLgHuvS6mY8nFnkBCvhx4InP3NDfuDS4uYe6qiCm67vW10qDiyyUtIYN6E+zSWomZjHsAG9AwpuIYQQlRZao9wSRYsbmZxVFLrTCe4FLouYMDYcD+PC893rXcaMv+RSGaDrfYIbv8oZY+B9XSoKBHdZZ5VzH3ZJsM+J7oOxnyVVDhj/ZvIck+4U3EIIIaoEdB/TImbi2RNue5d7muOhlUy4M+t8l0sYMqEthJB+1KXLmRCna/0il3Be7jLuHcKYMwHPRDiCO741ngyCe7bLLWjsvyRY5vRSl1Y3k+Z6uon+DhPUGJeni5/9EdzqKhdCCFHpodXNuDMrjDH2TFc2C7EwYYvAZu1uwpnW7ovubS63gjE7m4Cku5lZ3INdFliB37uj3dvdSS5jyH9yuY2M8Wf2Q2s8fvw7GVQoGGd/3R3m0gvA62QyGjK2TYuZ4yHk+VuMYdOTQHgTziz6wnExS541y1mkhYoIjxHctM4Z+2ZpVK2cJoQQotLCymeMTzPOzX3aLF5Cq5MWMwuv8BxBx+IstFJZgGWdyyItjHuzOhnBHEKrlzFkWq/cz02w0yJn4RXGwgl/xsVZYS1VvusyCe4jd6dLuIYLxSAVApYwZZyeEGYiGhUMXgPd9swkR46BSsp1LjPMCXHGwel9YMlT3gNe75Fa9UIIIUSFQ4uWljWtWVrXTEYjCGu7V7gEN93cBDkLrNBSpeuahVcIvHDxlRDCkG/z4vfYHz9ZEIVWOpPLeK5ot/yRoDXPWDQz1XltjLnHS0AT1PHd+Ey+o7Xfx2VVOFrsM10WmWG1t7+5LJEKhD2z3pkRz3Ku4b3qQgghRKWF8Wnuw6a7Gfk3gcnYNMHH8qbcPsaENe7vZhv+XRK0YsP9sT3b8hjG3wueKvwe92WzLybBYfhakefYJp743wm3C18LYR0P/+d1UQkpuh8hhBCiysB4MjOwGRNWF7IQokRY15hbNlg+kTE2xsyYdJIMuui4l5MuPrrmuO800f2pQojk0GJm8he3fDFWfKR7qEsDLVu6tbnG6XrPd9vEyYQ5urP5SRf5t1whRCWHrxNkPIqJMs+7TIphFumRoHuLbZixyu0g3MtJK4GLn3tIi3aNCSGODMHNbGwWU2HGdbpa3OyXCjazz5loxv3ZLFUayq1c3DbGbWqT3fhvHxNCVFL4lp+OLpNl7naZEcqtKSXBuBQzSfkuYWauDnRbuXx9IJNZqMXHfzewECI5VIbp6SJkqUwX/e7tshK2uJnVTcWaSW60sEO5LY37yvnJPdVqcQtRBeD2D1rJLKnIakvcj3mkeysJZYKdrwtk1mj45QbMeOVLDbgVpTT3jQohhBCiFFAjp7ZPIPd2kwU3LQFa2yz4UM8Na+jfcbnvlPs24+81LQn+JjNOmYlKdx4/+T8teik/i8bPsGa4KdE2ZTF+v8kIZ3tLKcsnecb1FCkEdyotbtYoZlEHxre5fSVcxelrLo/T6mYlKIK4JDgoFoUg+Ln3k9Wghvzf//3fqK997Wujv/vd744+5phjRn/nO9+RUsoKNSyPKJuOOuqowM9//vOf6uUW8weCn2xflcoujg2/9KUvBcdQ9NiOPvro4PEvfvGLVa5cDl8rxxF+PvHHFn6WfK5sy/EV3UdpZR8/+MEPRn/jG9/g77HcMMNPkYY3X3LPQhDJgpsFE5jEwsIQjI/TWgZmmbOyE7NiWfSBVZ1KglA/zS10+fIBwv7Ob33rW+/985//tCZNmljTpk2tcePGUkpZoYblUY0aNey0006zE0880X76058e5i9+8Qv717/+ZQ0aNKhSZRfHhhdeeKH9+te/thNOOKHYsZ1yyil23nnnVblymdfasGFDO/300+2kk04qdmz8/w9/+INddtllwbYcX6L9lEb20axZM7vkkkvse9/73vuea0PcIzViy01ZgpuJNGUJbrru2J7bx37r/qFatWptTj755FdHjx5tW7dulVLKSuO2bdvsgQcesAkTJgSF/EUXXWQXXHCBnX/++Xb55Zdbfn6+LVq0yJ588smEv1/Zve2226x///5Wt27dIMQ5Nqxdu7b16tXLbrzxxoS/V9ndsmWLLVu2zDp16hRUvPi8OK7//ve/1qhRIxs1apTde++9CX+3rHKurFmzxv70pz+96dnWy6XLPDJSDW66yrll5Uhd5We6papl5OTknPaXv/xly4oVK0wIISojBMG4ceOClnWdOnWsVq1a1qZNG1u6dKm9/vrrsa2qHh9++KHdc8891rt37yCsCXCOrXv37rZu3Tr73//+F9uy6rF//35buXKltW/f3mrWrBkcW/369W3kyJG2efPm2Fbp5cUXX7Rzzz13u0cby/pGGtwsa8i3+9zoxn9FYFGYnNbFpdXNV/YR+BBOTuNLDugGLxUe3P8+7bTTnqXWKoQQlZG3337brr766qBLlJY23ayFhYVBa7yqs2vXrqBHgcCmdUrIEW7PP/98bIuqy8aNG61nz57BZ8ax0YW+YMGCINSj4KmnnrIzzzyTdVG41Tojwb3GPVJw08XN4hDcDsbge/jNQ3R5h7eDleb7fwOOPvro0wlu3kwhhKis3HfffUHLtF69ekF36+TJk7Mi3KiUXH/99ZaXlxf0JrRu3TroZn7zzTdjW1Rddu/ebbNmzQqGOTi2bt262V133WUff/xxbIv08sQTT9gZZ5wRaXATsnyhARPF7nR3u4xT8w1Gf3RPif38ncsCEcwID28J49YvFm5hAQfu6WYBFhZjKfUCLApuIURVYM+ePUGrm3FtAvzuu++2AwcOxJ6tutBd/uyzzwYVEbr/x44dG7Qc33///dgWVRcqJRs2bLABAwZYu3btgtb2zp07Y8+mn0wEN+PRLHl6t7vV5Tt4t7h8NV9jl/FufvI1fHwBPnCPKUue8r29fOcvX6TPkqesmsaqaqVe8lTBLYSoCtBKI9CuvPJKu+aaa+yVV16JPVP1ee+994KKyNSpU4Ox7XfffTf2TNXnjTfeCHoUZsyYYY8//nhkrW3IRHCzahpd49xTXT/2ky8c4f4zVkNjFTR+MpuccewQuswZy+bLRZq4rKbG6mtlQsEthKgqvPPOO0H3OF2wUQZARUDAbd++3V577bXYI9nD3r177bnnngta4FGSieCuFKQ7uKk58uZxmwM1xzvvvPMw169fH3Sd3H///Yc9zrb8zqZNm7KqtimEECIzKLjLCGNOc+fOtVatWgWTLTp06HCYBQUFwVhH0ee4ZaBly5Y2ffr0rKxxCiGEiBYFdxnhvkNa00uWLAlmRi5fvvwwp02bFswIZYIJ92CGj7Pt4sWLg3sao+5OEUIIkX0ouCOCcQ4WF5gyZYp99NFHsUeFEEKI8qHgjogdO3ZYjx49gpa3EEIIkS4U3BHB/Yq0uLlnsSov5yeEEKJyoeCOCAW3EEKIKFBwR4SCWwghRBQouCNCwS2EECIKFNwRoeAWQggRBQruiFBwCyGEiAIFd0QouIUQQkSBgjsiFNxCCCGiQMEdEQpuIYQQUaDgjggFtxBCiChQcEeEglsIIUQUKLgjQsEthBAiChTcEaHgFkIIEQUK7ohQcAshhIgCBXdEKLiFEEJEQSaD+yj3m+6J7knuse5X3WpuSfDct92fuj9zT3C/4x7pdxKi4BZCCJENZCq4Ce2fuLnuEvcmd7Jb0/2+WxKEe1v3Kpffmx/7/4/dUqHgFkIIkQ1kKri/5bZwCeCl7mJ3uTvXPd/NcYtC0DdyZ7pXx37y++PdK9wfuimj4BZCCJENZCK4aW3/1l3mEry/d+nubuiucnu5P3LZLp7LXIJ9sPt39xj3ZLeDO8W9yE2ZnJycf3pwP6PgFkIIUZXJRHB/yb3QvcEd4Ybj079zaT2Pcc902S6efPd2t7Ub/8Lqune5nYL/pYgHd3Vny8KFC2OHHi0KbiGEEFGQieBmDJsu73luezcMbiactXLHuc1dWuHxsO1at537BR6I0cbd5g5xS5qkdrRLC/2P7jnuBdWqVet+yimn7Jo7d27s0KNFwS2EECIKMhHczCInoKe5zdwwbOker+9OcOn+JmjjudxlMtpI92/u11xmlTOpbY9L6/3zbiI+51Z3e7qMj9Mlf89xxx13cMaMGbFDj5Zt27ZZjx49bMqUKfbBBx/EHhVCCCHKRyaCm1u/mAlO4NLypjUMP3BruxPdQrfo7PLj3cbudJex8aEuQXyjywvu68a3xONhshu/z8Q3JsXRah9/0kkn7Zs9e3bs0KNl586d1qtXL8tURUEIIcRng0wEN13iLd0ZLreDxbe4G7i0uAvcoi1u4LYvWuu0vBe4/VwmrG12u7kpv+CyTk7733vv2a5du+yZLVtsy5NP2ZYnnrJn/Gcyb7/5FuuQ196GDhxkmzc+nnCbUPYZ7PfpLfaSB/67774b++tCCCHE4WQiuL/n0iVO8DKhLAxuFlTJc8e6tKxZnKUozDTn95lNfqpLVzmT1ja4tNKLzkQvEQ/uv1WvXv2Z0k5O2717t1155ZVWWFhoXQq7WNcuXaxb165J7VBQYI0aNrLcZrlJf4fn2XfnzoU2bfo0e+GFF2J/XQghhDicTAQ33dlMEGPRFSaihfds/8nl3mxmlf+FB4qQ6N5uJrAR2CtcWuspU9b7uLc+80wQ2ufVqWE1u+ZZ7Z4FVrt7flLr9epozQb1sCYDulmdBM8fpu+zVrf2dl69KyzfA/+JTZtif10IIYQ4nEwEN9BiZpyahVfOdX/j0nJe7fKHWUzluy7d5V92aZV/xaWb/VfuKS73f9NCD8fEuZ0sZcoa3M8+9bS3hguD0M5fNds63rrAOtwwNyU73TjPOrqJnou34y0LrMB/1vIAL+jQwTY/tjH214UQQojDyVRwMyO8ljvLvdnl/mzu657kMvub8W5WQ6PLnFCnlc4a5TzGbPRbXEJ+pcukNLYpet/3ESlzcD/5VNCVTauY0O6yfpl1vn1RWu1y1yf7rNO3s3Xo2NE2P/pY7K8LIYQQh5Op4AZa1NzixWQ0JpgRwGe5BDAhfZ57qcssdG7z4gtIznDZbrbLrPTu7j/dUr/Q8rS4GYemS5vWMQHbac1VabXzbYuso/+s07ujdezUSS1uIYQQJZLJ4Ab+AIH8dZcu8XAcm0lmhDXyGP9H7semy5ztabUT8onGvpOi4BZCCJENZDq4KwwFtxBCiGxAwZ0EBbcQQojKhII7CQru7ILlZ99++207ePBg8DP0nXfeCRa+wfjHkW3D7bV8rRCiolFwJ0HBnV1s2rQp+OKXYcOG2bhx4z510qRJNnPmTJs6dephj+PYsWOD7Xnuqaeeiu1JCCEqBgV3Ej6Lwf3WW28FJ8b9999vDz30kD388MOBjzzyiG3evDmQf4ePh27YsMEefPBBe+mll+zjjz+O7a1ywesbMGCAdezYMVhLPjQ/P9/q1KljzZs3P+xx7NmzZ7D94MGD7dFHH43tSQghKgYFdxI+i8H93HPP2ciRI61Vq1ZBYHXu3Dkl8/LyrEOHDrZ69Wr76KOPYnurXOzfv9+ef/5527p1q23fvv1Tec2tW7cOWtfxj4ey/Y4dO4JKjRBCVCQK7iR8FoN73759tnLlSps+fbrx/eXz5s0LpIu5SZMm1qxZM5s2bdqnj4eypvucOXOC1ndlbXGXBF3gXbp0sSVLlsQeEUKIyomCOwka4z7E3r17g27mIUOG2GuvvRZ7NDug659eg/nz58ceEUKIyomCOwkK7kO8+eabwTjv8OHDgxnW2QS9BAT3VVddFXtECCEqJwruJCi4D0GLe+DAgTZ06NCsa3EruIUQVQUFdxIU3IdQcAshRMWj4E6CgvsQCm4hhKh4FNxJUHAfQsEthBAVj4I7CQruQyi4hRCi4lFwJ0HBfQgFtxBCVDwK7iQouA+h4BZCiIpHwZ0EBfchFNxCCFHxKLiToOA+hIJbCCEqHgV3EhTch1BwCyFExaPgToKC+xAKbiGEqHgyGdxfcf/lFroD3Obuae6X3ZL4unu2m+92cbu7tdzj3Wpuyii4y4+Cu2ry4osv2saNG+3ll1+OPSKEqMpkKri/6J7pjnXvcDe4N7iD3T+4R7lF+ZL7b3ece6u7xr3dXeS2dk9wU0bBXX4U3FULvlr19ddftxUrVgTfr7527Vp75513Ys8KIaoqmQpuQnaiu8TNdS9xaXWvcgnhr7lFqe72dfm9Du557kXuGHelW89NGQ/u/yi4y4eCu2pBSG/YsCH4zFq0aGHjx4+3J5980j788MPYFkKIqkgmgpud/se9yZ3i0pKGf7gL3JHu793PufFc4dK6Hu6exAMx2rgbXbrNUyYnJ+dP1atX37Jw4cLYoaeGgvsQCu6qxSuvvGKzZ8+2Jk2aWM2aNa1169ZB6/vdd9+NbSGEqIpkIri/5dZ2aW13c8OxacKYcWu6z+u633TjoWudbvIJ7uXuj9xfuD3da9wjtbjpev+8yxj5d91jvMV9+e9///vt8+fPjx16aii4D6HgrjrQqt68ebP17dvXLrvsMrv88suD8B43blww5v3RRx/FthRCVDUyEdzHuUxEm+m2cMPx7B+7Dd3xbnv3e248BC5d6nNcxrivc29zw+72Y92S4EB+47ZyCf9p7soTTjjhzZkzZ8YOPTUU3IdQcFcddu7cacuWLbO8vLwguK+44gqrUaOGdfVz+eabb7ZXX301tqUQoqqRieCmlUz39mS3kXu0Cz9w67iMYXd2v+/GQ4v5b+4M926XyWn8XOG2dKkQlAQH8ju3nUv3/Gz3xuOPP36/grvsKLirDvfcc4/17NnTGjZsaLVr1/5Uus2HDBkStMaFEFWTTAT3z1wmoE11m7hhV/kPXbq76Qrnjx/jxkOLmZb4QJeAp2udGej9XVrfVAISzUYHHmcm+3dcWvY/qVatWq3f/e53z5W2YFZwH0LBXXVYvXq1NWvWLGhp16lTx+rWrRv8pNXdvn17u++++2JbCiGqGpkIbsamm7p0edPyDoObFnMzl65sHqdrPJ767kKX7m7GqkMYD3/AZVb6F3ggFTQ5rfwouKsO69ats05+LtWrVy9oaRPaWL9+fevTp4899thjsS2FEFWNTAT3V91LXW7hovUctpJPdYe4TE67wKVrPJ5O7l0u3eJh9zrUcLkPnN8NZ6gnRbeDlR8Fd9XhueeeC46lTZs2QSubljcS5sws37NnT2xLIURVIxPBTQube7K5Z5tWdzip7GKX8Wpazie68eEMdKuvdgn7X7nshxdI9/nDLreDFf2dEtECLOVHwV11eO+994JjYpz70ksvDWaVE+AsxLJ161b74IMPYlsKIaoamQhuYOIZQcuMcCajjXDnuVe7tMaZqPZPl+VNCXHu6T7F5Xe415sJaizGQohfFfv/WW7KKLjLj4K7asHnNXXq1KB7nNDOzc21pUuX2sGDB2NbCCGqIpkK7hz3ZJf7tm9273cXu3SDE+oENxPVuG3sjy4Ty4CFWQa5tLyZVc7vcvvYOW78uHdSFNzlR8FdtSCg77zzTuvVq5c1bdrUhg0bZo888oha20JUcTIV3MDOf+qyitq5Lt3nzCynC5xJZnxxCDPQWbAl7ALncWaT0xo/3T3D/bXLuHmpUHCXHwV31YJFVvjMmJDZv39/u+GGG2z//v2xZ4UQVZVMBneFouAuPwruqgdfNPLMM8/Y+vXrgxXThBBVHwV3EhTch1BwV00Ib5ZA5acQouqj4E6CgvsQCm4hhKh4FNxJUHAfQsEthBAVj4I7CQruQyi4hRCi4lFwJ0HBfQgFtxBCVDwK7iQouA+h4BZCiIpHwZ0EBfchFNxCCFHxKLiToOA+hIJbCCEqHgV3EhTch1BwCyFExaPgToKC+xAKbiGEqHgU3ElQcB9CwS2EEBWPgjsJCu5DKLiFEKLiUXAnQcF9CAW3EEJUPAruJCi4D6HgFkKIikfBnQQF9yEU3EIIUfEouJOg4D6EglsIISoeBXcSFNyHUHALIUTFk+ngruZ+wf2i+7nY/0uC59jm8y6/g/wbefxoN2UU3OXn5ZdftkGDBtmwYcPsjTfeiD2aHSi4hRBVhUwG9zfdC93h7jS3m/tv9+tuIn7hNnb7ufzOUHeQOy72/3+5KaPgLj8HDx60IUOG2MiRI+29996LPZodKLiFEFWFTAX3V9xL3Knure5d7g0uIfw3N1HL+3duT3e+e6273L3FfSFmGzdlFNzFOXjwLXvhhRfsqS3P2uYtz8Tk34m9674HrGPX7talRy+798GHE25TzKc/2e+zW7fay/v22Ycffhj765ULBbcQoqqQqeA+yb3SXeQS4H92O7ur3Q7ut9yifM09wf2N+3u3utvKXebyezXdlFFwF2fT44/bmFEjg8Aq9GPELl27lWjHTp2tUZMm1rhJU+vUuTDhNkUt7NLVOhd2se7du9nyZcvswIEDsb9euVBwCyGqCpkIbsakz3Jvcie4jE8D4T3bHRX7N2PYyajlTnG7uwR6yii4i3PL7WutRZNG1qHmhTaxTR2b0LqOjTuCE9rWs5mdcm2Gy78TbRPveHdy27o2tFkNa3zZBTZ02HB7+ZVXY3+9cqHgFkJUFTIR3N9167m0tmllh93iP3cL3LFuQzdRqzsexsjpWr/evdz9hpsyOTk5f69evfozCu5DrLrlNstr0cyu7tTQXp9aaK9MKbTdkzqX7OTOtte3Qf6dcJs497j7p3exp0fmWd+mNW3A0OG25+VXYn+9cqHgFkJUFTIR3D91W7gz3OZuGNw/dhu4tMLz3WPcI0F3+wr3Rpfx7yPNSC9GGNwLFy6MHXpqZHtw57fMteu7NbH3Z3e3d6/sbgdmdkubb7kfz+1hL44vsIHNayu4hRAiDWQiuAnctu5kt5Eb3sb1A7eOO9GlJf59tyS+6l7gXudSAfiReyT4G8e6Z7q05nOPOuqoESeddNLe2bNnxw49NbI5uFffervlt2puy7s0tv0zutrr07vavqld0ubL7sFZ3ezZMfnWP7e2DRw2QsEthBDlJBPBfaLLpDJuAWvqhi1lwpcudFrc/PEjtbhPcXu4jImzr2Td5IyjM5mtl8tkNmaw33vssccenDFjRuzQU0PBXXYV3EIIkX4yEdy0rLkfe66b54bBHXahM27d0v2OWxLnu0vc0S6BnOyF0uL+ocutZpe6NatVq9bv5JNP3j1nzpzYoaeGgrvsKriFECL9ZCK4v+xe5HIL1zD3KBd+645xmZxGl3aOmwi2J9jvc5lNziS1UpOTk/OX6tWrb9EY9yEU3IdQcAshqgqZCG6C9w8ui6hc5Z7sco8249vMEO/tHueGS5oS4GG485Mu9IEuwU3LPXyuVHhw/0Ozyg9HwX0IBbcQoqqQieAGbgmjm3yhy0poc1zGnvn3uS7d6ee4dGsT7KxlDl9yz3MZ26arnJZ5mdB93MVRcB9CwS2EqCpkKrgZc2ZMm2VKaXmvdWe6TE77tkurmpXQaFHTOiewgaVSmU1e6DIjnZXUyoSCuzgK7kMouIUQVYVMBTcQ3rS8mSHOfdg/cxmvpuubP/w9l1vCuPUrvGWMnyzMQoucbcNV10qNgrs4Cu5DZENwf/zxx/bRRx8Vk8dTeV4IUTXIZHBXKAru4ii4D1HVg/uDDz6w++67z7jdEbl7InTRokV29dVXG+d+/OPTp0+3uXPn2qZNm2J7EUJUBRTcSVBwl10Fd+Z4//33bcWKFZafnx9YWFj4qS1atLD69etbmzZtDnu8Xbt21qVLF7vjjjtiexFCVAUU3ElQcJddBXfmoMv7pZdeskcffTRw48aNnzpu3Dhr2rSpzZs377DHH3nkkeDnvn37YnsRQlQFFNxJUHCXXQV35WDVqlXWyc+rDRs2xB4RQlRlFNxJUHCXXQV35eDaa6+1Dh062N133x17RAhRlVFwJ0HBXXYV3JWDa665Jgjuu+66K/aIEKIqo+BOQhjcdXp1tE63LbQud19jhWsXp9Uu66+xzv6zbv9CBXcFoeAWQiRj586dtnbtWrvxxhvt1ltvLSbX2D333BNsE/84269bt8527doV21P5UHAnIQzuWoXtLP/aGdbRW90drpuVVjuunmsFK2YFrXoFd8Wg4BZCJINbLrt6HnCnBtdUvAUFBda2bVtr3bq1tW/f/rDn2L579+5pm2ei4E7C1meetW7dutkldWtZ487trWm3Dta0S0F69X02Lsy3S+rVto4dO9oTmzfH/nq0KLgPoeAWQiTjhRdesJtuuim49XL16tWHySRQQr1hw4Y2bdq0w55j+5tvvjm48yMdKLiTsPXZT4L74po1rEG7Vta4oK01at8mrTbOb2sN81rZxbVqBMH9pH8omUDBfYjNXlninubFixfHHskeFNxCZAYWNKIcefrpp2OPRIOCOwnPPr0l6Cqv2aG15S2caPnXTLf8xZPT67LplrdostXq3PaTrvKNj8f+erRkc3CHy3t++OGH7gdJfXDDBuvUqaNfeHMSPl+yH1b6ZUMV3EJkhjC4n3rqqdgj0aDgTsKnk9N6d7ROty+yLvdcY4XrlqRVJrx19p+anJYeCNEnnnjSli1bZvPmznavtKvmzT6iI4YPtSaNG1jXwk4Jn0/kJ/udY9deuzzyGnZ5UHALET1U4K+88spgVcLHH4+28aXgTsJht4PdOC+Y/d3ppvlptfPti62j/9TtYOmBlvCSJUusYaMmVq9BU2vavJ3b9og2a9HOmrdqb7kt8xI+n9h2VrdBE2vaNDe4V7qytroV3EJEj4I7AtIS3LqPu1RWVHC///57NmvmdKtbv6l17DnWBo9fbgNGL7b+oxaV6KCxS234pOU2ZPyyhM8XdcDoJcF+87uODCoHV82bG1y4lZHly5cHwb1+/frYI0KIdKPgjgAFd3GyO7ineos4z4ZNus7mrnzKZi17xGZe/XDanLXs0WC/A8deHbS+6TqvrMEdLnn64IMPxh4RQqQbBXcEKLiLk83BfeWs6UFX9uBxVwchO23RfTZ14b1pc9qi+4P99h+1MAju+VdF3+J+95137ZVXXrFdu3fZS7t3urtsZwrOmnOltW7XxlZcf13C54v6yb532q49u+21116z9957L/YKhBAloeCOAAV3cT4LwU0XOC3kqQvvsSkL7k6bhDf77TdyQcaCe6OfF5MnTbJ+A/pb30H9rf/gASnZJq+t1WlQzwo6d0j4fFH7+b6D/Q/sb7O9INq2dVvsFQghSkLBHQEK7uIouMtuRQT3ddevtKYNGlvbWs2sX4su1rd5ofXJ7ZzUQW172PD8vjawdfeEzxe1b25hsO/cyxtY21at7Z577429AiFESSi4I0DBXRwFd9mtiOBesvxqa9OkhS3qMsm2TFprm8bdbI+NXZPUx8ffbJsn3uI/b0r4fFGfGH+LPTnhVpucN9jatWpja++6I/YKhBAloeCOAAV3cRTcZbcignvR8qXWPreNrek3z96ct9H2Xvmg7Zr1QNp9efbD9sqcR2x+4Xhr36ad3X7XutgrEEKURLYG9+fcX7oXubXcM9zjXR4/El90f+Ve6NZw/+v+w/2+mzIK7uIouMtuhbS4r706CO7res8KAva5aett69Q70+6O6ffYCzPutdmdRlt+2zxbu75iW9xvv/12UBDy7Urci85tbcj3izNT/qGHHgq+kSl8HPl2Jp57/fXXY3sRIlqyMbjZ8W/d3u7t7kPucrfA/blbEoT6n9y+7hp3vXujO979u5syCu7iKLjLroI7c+zbt88mTZoUfMNSfr5fhx0OfesS38KEfDNT/OPNmze3gQMHVuoV7UR2kY3B/UOX8F3sDnV7utNdwrue+wU3ESe6A92Fbn+30OWFNnNPdlNGwV0cBXfZVXBnjgMHDgStba7dpUuX2tVXXx3I//kaxcaNG9v06dM/fRznz59vN9xwg+3Zsye2FyGiJduC+2j3L+4N7iw37OI+zyW4B7u/cNkunm+4l7uENqH/JTeEF5qsi/0wcnJy/lq9evUtCxcujB16aii4y66CO718VoO7JP73v//ZuHHjrHfv3mn7ukQhykq2BffXXQL4WrefW82FU9wB7lj3EvdrbjzV3T7uSJdx7aPcMqMWd3EU3GVXwV3xfPDBBzZhwgTr27ev7d69O/aoEBVDtgX3j126tme7rd0wuI91m7iMV7d1v+vGQ5jPdIe4/B7j4T1cJrbxu0cK8hz3Z+5lLgfWzZ3+85///BXe2NKg4C67Cu70ouA+nIMHD9rYsWODFveOHTtijwpRMWRbcDP5jOCd4jZ2wy5xxr3ruhPcTu4xbjzMIL/GZVx8mrvUXe3Oddu4qUxq6+7y+yvd9ccdd9xbM2bMiB16aii4y66CO70ouA9HwS0qE9kW3IxfE7ST3fjg/oFbx53odnaL3t5FcN/k3ukyMe0s9z8uY+Kr3BYuLetE0Kr/tkt3PLPP/12tWrWCU0899SW+6Lw0KLjLroI7vSi4D0fBLSoT2RbcdGs3d5mY1tINu8p/4jZy6SrPc7/nxsO4+Ap3mXspD8TgccJ8uMvvpDT2nZOT8ydNTjscBXfZVXBXPNkQ3IzN33TTTcFM+BUrVth1110XyDe63XrrrXbzzTfbypUrP32c731n23vvvTc4flF5yLbg/qZb0yWAuQ0sDG4WY2HMmslpV7hfceM5x6UbfZj7Tx6IwcItBPoI9wS36Gz0hHhw/+u00057RpPTDqHgLrsK7oonG4J706ZN1q9fv+Ae9fh70fPy8iw3Nzfh4y1btgxuf3v11VdjexGVgWwLbrqz/+XS7c292191gW5vxp9pOdOlXRRWS2vvjnFpZYcwaS1scTOhLaUWt2aVF0fBXXYV3BVPNgQ3X9NK6/mWW24J7lUPXbRoURDchED8c6wIx/83btxo77zzTmwvojKQbcENLG1KADPBrINLFzm3eTFpjJnljG+zoAqrqzH2zQvh9jBa2rTIGQdv4LJYyyiX32vqljTGXQwFd3EU3GVXwV3xZPMY94svvmi9evWyqVOnxh4RlZ1sDG5WRiOE6d6mtfywywxxlkBldviPXIK5lcv92yy2QkuaCWaMj9Myv829213kMtmN271SRsFdHAV32VVwVzzZHNzPPfec9ezZ0yZPnmwffvhh7FFRmcnG4AbC+M8uE9S4/YsZ5ae6tJrpPj/N/avLZLb4VdEI6Itdbimj65yuclrwKY1thyi4i6PgLrsK7oonm4P72WeftR49etjEiRPt3XffjT0qKjPZGtwVioK7OArusqvgrngU3KKyMW/ePOvqebFly5bYI9Gg4E6CgrvsKrjTi4L7cBTcImo+/vjj4LrmZzIZ0pg1a5Z17tw5mDyYaJt4w/2WBQV3EhTcZVfBnV4U3Iej4BZRQJg+9dRTwX31V111VdCK5mcy2a6Tl9+NGjWyUaNGJdwm3nC/3J9f2ha6gjsJCu6yW9HB3axFng2ZsNxmX7vJZizdYNOXPJA2Zyx9MNjvgDFL/O+0U3BXAApuEQW0nFnkpmnTpsFXxrZq1SplW7dubW3atAl+Jnq+qIQ8t/2xsE5pWt8K7iQouMtuxbe482zwuGV25TWP2bTF99vURfelzWmLHwj223/UIrW4K4hsDu6tW7d+Gtx8fanIHO+//37Q5U2oDhw4MJhwNm3atJRk2zlz5hjfiZHo+XjZtn///sHfofVdmrsHFNxJUHCX3YoK7g8+eN/mzplt9eo3tjYFvaxH/wnWrc8Y69pndNpkf+y3VV53q9+wiS1auKDM41WpouA+nGwO7p07dwbHRQEvMgvBTfDSIiZQ169fb7fddluwBG26ZH/sl/Dm7/AdGgruBCi4i5O9wf1BcMHVrFnL6tRraM2at3FbR2Abq12ngdWpU9cWL16ckeDOz21rq/rOsZdnP2wvzbgvCNl0u2vmA7Z71gab13msgrucfPjhB3bgwH7b5+f97j2vpux99z9kHTp2taHDRtvzO3Yl3CaRe/a+GiyF+vbbByM/H0vivffes5dfftleeukl27XLX/vu3Ye5d+/eYMU4fsY/TmWF7ffv3x/bU8UQtrgJVH7efvvttmbNGrvxxhvTJvtjvyxdG1YQFNwJUHAXJ3u7yt+3ObNnWYNGzaxj9xE2aPQC6z9ijjs7jc4J9pvfZYg1bJxrCxfMj7yrfHEsuG/oO9dem/toELAvenin2z2zHrS9sx+yqwrHK7jLycsv77Pl1yy1IUOGWf+BI9yRNmBQcrt172f1GuRas9x21m/A8ITbFLWf77v/wGE2Zsxou+uudcGQUUXAqm+s+MZtUazDTndwvIMHD7bhw4cHP+MfZ8EZPktapFFfS0ciPrhnzpwZvJ4bbrjBVq9enTbZH/ulR0XBfQQU3MXJ7jHuadasRXsbNnGFzb3uiWAG+IylD6XNmVc/Eux34NirY5PT5kRe2Cy/7lpr4ZWEoW162tK+021R7ym2oPektLu4z9TAns06WLvWbeyue9bHXkHloioE99at261H927WqO4Z1qfz2Taw2znWr8u5SR3Y/QIb0e8yG9bnEuvf9byE2xR1YPdzrLDdmdag7oU2bfpMb3VXzFrmb775ZjC5i5nVkyZNsilTphxmt27drHbt2sFCJfGPjxs3ziZMmGAPPvhgbE8Vg4K7EqHgLs5nYnLa+E8mp01ffL9NY1JZmpweTk4bzeS0zMwqv/76661h/QbWoGZdy2vW2to1bRWNzT75WfuymkGhwpdgVEaYtEVh36dPn6BbtjLy5FPbPKC62ZAep9sTt55lz999tj299pykbll3rj175/mBiZ4v6pZ159iL955t65aeYR3aXGBjx8+wA29FG9wEDV90cuDAW7Z//4FPfe31N+ylnbvs+R0v2AsvvFjMxUuWWouWrWzO3HmHPb4j5t59L3+6rzf5eeCAveWVNLrgM9H9r+CuRCi4i5P9wZ1d93HT4m7euJkNbt0jaBHP7zXJruo1Me0u6D3ZFro9mhZY20rc4gZmXdMdy5hqZeSJJ7dbly7dbcKgM+21R8+x9545197cdF7a3b/5PPto67lB5aB7wX9tzLiZkQf3889tt6VLl3jlaYKNHvuJY8ZNtPETp9j0mVfarNlzbeaVOOcwe/Xpb/UaNLJuPXoXee6T7SdPnRHsBz/Z7/ig6/3OO9bZ22+/Hfvr0aHgrkQouIuj4C67FRHci5YvCca4bx2wwN5e8KS9NufRYJJaun1j7kbbP+9xW9x1kuW3ybPb7loXewXRQIG1e/cue/zxTfbwg4/Zwxs2+s/k3rP+AevVvZ/lt+tka1bfmnCbYsb2/dijG23Hjucjv9Xqyae2W9euPWxM/7PsxfvOtTc2nme7Npyfdnc/eL4d8AB/aPXZ1jX/Ihs3YVbkwX3XXXdZ2zatrWmDmtYlv7mba4XtP/GT/ye2e8dW1rtLO+vRqXXC5wsxtp+uBc0tv3Ujq1/nChs9erS98kr030Gu4K5EKLiLEwb3iq6N7a2ZXe1ND+9XpnVJm6+671zZzbaNzbcBCu5ys3j50qALe0XPmcHEtOemrretU+5M6rapd9n2aeuDn4meL+qOaffYC9PvtSs7jLK81m3t9oiDm1bUNcuX+bnfwdq3b2cFHfxa61CQ1PyC9ta0WRNr3LiR5eW1S7hNUQsK8i0/v73l+d+ZOXO67d27J/YqoqFocL8eYXDvz3Bwr7n5Nmvt5ceEQQX24OqJ9sD14+2eFeOSev/1E2zDDZP958SEz8f78I2T7KYFQ61jm0Y2YOAg27N3X+yvR4eCuxKh4C7OKg/uAr/wbujexD6a093en93d3vYWcrp8x7V5PWzXxA42uEUdG6DgLhfXXrfCmtRraAV1WtmI1n1sWKteNrRVz6SOyR9gEzsPsVF5/RI+X1T2O6x1L2tVo7G1btHS1t9zd+wVRMP+Nw/Y2DHj7Ip651vbPv+1rmMut8IR7vAkjqhhfSbWt76TGlrXUTUTb1PErqMvtw6DL7ErGp1t3bt3t+e2RzupLZuD+4abbrX2bVvZkql97LXHl9orjy223Q8tTKv7N19tT6+baf26tLL+AwbbbgV3gII7Cdkc3GtuW2vtWubapHb1bMPwfLvfvXto+rzHfWhkgd3Ut5V1bniFDR4+0va+ouAuKw89+JCNHD7CunbrZl17dLfuPXukZMvWraxeg/rWrn1ewueL2s33zf67dutqkydOsme2PBN7BdGw/40DNmbkBGtecLlNvqmhXb25hS14qLkteDC5Cx9qEZjouUQufbyFzbmnqbXrfan16N7Ltm9VcJcVWtzt27W2+RN62ksbFtgL919l2+6em1YJ70dvmmK9O7e0gYOGqMUdQ8GdhGwO7rXr1lnz3GbW8IpLrXPzRtYJc9Mr+23XqI7VuuwSGzFylL3yaibGqLIzuN96661g9vSz27falm3P2jO4PblTpk+1Fm28ZbRsacLni+n7Zf9bt2+z3bt227vvRBsAYXC36FjDpt3WyJY/3coWP9bSFj+afq950gvJ+3Otfd/LFNzlJAzuqzy4X3xgvu24b55tXT8nre56cIE9skbBXRQFdxKyObhvXbvOWjXPtY4NrrBJHZvbRHd8h/Q6uVNzG9a2kTWpeZkNHzHSXs7I5JLsDO6ysmrVquBbiyr6/tiSILjHjppoLTrUsMlrGnmruKXN39DC5j+Qfpd4hWD2+maW1/sy69mjt4K7HCi4y66CO0UU3MUJJ6ctK2xsr03/ZELZ7imFaXOPy4S3p0e3t37NNDmtoli+fLl16NAhWBu5MqLgLr8K7vSh4K5EKLiLE05OW9WtSTAx7d0ru9uBmd3S5lvux3N72IsTOtig5pqcVlFcc801QXBz+05lRMFdfhXc6UPBXYlQcBdH93GXXQV3+lBwl18Fd/oguAlsvlObQI3y28Fmz54d/J3K/u1gX3a/7/7I/Y77RfcoNxFHu19yv+3yOz+I+V33q26OmzIK7uIouMuugjt9KLjLb0UG94JJvYLZ3zs3zLfn752XVvc9ssgev2Wa9SlsldHg5us2W7RoEazMd91119myZcuC9dfTJftjv+PGjQv+zlVXXVVpg/sYt647y13ujnD/6xLgiSCgL3RHugvdK2MOdi91CfGUUXAXR8FddhXc6UPBXX4rIrhvvOk2y89rHdzH/crGJUHI7tywIK2+sWmpPbl2hvXr2jpjwR1+LXDdunWDUO3cuXMwuTPdst/c3FyrX7++LVq0qFTlR6aC++tuA3e2e727KvZzhnumS+u6KD9zu7r3u4+5i935LkFew/2hmzIK7uIouMuugjt9KLjLb0UE9623rbU2rVvawO5t7Lo5w2zF7CG2bNbgtHr9vGE2b2Ifa9uioQ0ZMtT27Yt+TXpavmFwE6wdO3a0ggJW3Uuv7Ldp06ZWr169ILhL8wUqmQruU91F7gL3n+5P3RbuapdwpjVelJPcAnee28U90SWs2ZaKQKlebE5Ozr88uJ9RcB9CwV12FdzpQ8FdfisiuO+44w5r3ry51a1Vw/La5Fpe61xrl2bb+35b5jayKy6/NPgO70ytVU5XOcc2fvz44K6MJUuW2OLFi9Mm+2O/Y8aMqbRd5Yxjn+fe6I52w9b1H9wp7hj33y7bxfNLt607yqXLvFx4cP+pevXqWxYuXBg79NRQcJddBXflQMF9SAV3+rjt9rXWulVL61bQ3OZM6Guzx/exmWN7p9W5E/vahKFdrEWTejZk6DDbl4FvgQsnp7Vp0+YzPTmNFnJDl25uWtDVXKAF3cYd6zZzmYQWDy3uTu417jj3bPc098duuI+S4PlvuSe7f3P/Wa1atfxTTz31Jd6g0qDgLrsK7sqBgvuQFRXcEwadZS8/fI69+/S59tpj56Xd1x8/z95/5lzbdMtZ1r3DRTY2g5PTFk7qbXseXmi7Hpxvz983L62+/Ognk9P6ZnhyWvztYITsjTfeGNzClS7ZH/utzLeDneC2dKe7BHQYuswsr+9OcDu4RbvL6U7nRa13n3Zvcpmklucy/n0kPuf+ye3mMjZ+nbv+uOOOe2vGjBmxQ08NBXfZVXBXDqpScE+5qZFdvamlLXiwhS3w8E63Sze2tDl3e3D3yXyL+4V7PwntnQ+cn3Zpdb/p4f3gqszPKl80ubftfWSR7X7ok/XK0ylfXLLp1unWt0vFBTctZMI20f3YZZX9sd/KHNy0nOnynuw2csOucmaF13YnuoUut3zFw6xyJq7xwga5A1y61me6BD2t6ZLgVrGfu0xiY9893Vk/+9nPXmXsojQouMuugrtyUCWCe+REa9W5hs1Y19iu29rKlnp40/JOt9c+08oWPJRrBf0zE9zPPLPNunXrbq2anmcThl5q00ddbpOHR+CIy23G6MttSK+LrGnDS2zK1Jl28O3MBLcWYCm9VSG4y9ri/oLL/drh2DcvjnFxZpXf6jZ1k8E94oFHH330GZpVfjgK7rKr4E4ffK3nuDETrUmby23oVQ1s2s25NmlVM5t0ffqdtibXxl7T2Fp0utR69extz22LNri3bt0WfH1ozRoXWPs2V1jHvFpW0C4a2XeLppda7VqX2rTpM+ztiL8cRsFddqtCcKc6xs2YdDJoSbdyN7m0olMmJyfnL5qcdjgK7rKr4E4fbx14yyZOmGQ1al5qTVrWtNYdG1irgvqR2LpDA2vero5dVvO/1rt3H9ux44XYq4iGp7ds9xZ3D+vZ4Ry7ZdF/bf21F9ntSy9Ou2uvvtjuue4iWzrtfGvX8mKbOGmmvXVQwV0WNMb9CbSYz3fXuCXNKv+HW3QFtZImoJUpuHUfd3EU3GVXwZ0+DnhwTxg/yWrVu9TadKlthQMbWqd+0dh5QEPL71XPajW46JPgfj7a4H4iNsY9cfCZ9tpj5wQTyN7cdF7a3b/5PPto27n25G1nWQ8mp43P3Bh3NgY3c6HCQI1yVjlDt/ydyrrk6a9dJokxuYyQjr+Pm3u0mSnOvdnfdOkiJ8Rpgf/CpWV+nHu8e4bL7WEr3Dpuyii4i6PgLrsK7vQRTk5rnl/DJlzf0BY+1MLm3N3c5qxPv0xQm3F7U2vbI7OT08YOOMt2PXBucMvW3ofOT7v7Hj7fDj5xnj1y49nWrSCzk9Oyda1yFkfhPmuWJ2WBFHprk8n92Sxpmmx7nme/I0eOtGbNmlXa4CaQG7tz3ZUuq6YhE81YkIWFVS5xWRKVSWefd3/ldnZZXY3Av8q91mXZU7rWCfKUUXAXR8FddhXc6ePTyWmdatiMtY1txbOtbMnjLW3JxvR77dOtbP6DuZbfT/dxl5dsDW6WPCUnWNGsSZMmlpeXZ+3atUtJVkNjKdP8/PyEz8fLfhs3bmwNGjSwpUuXlqr8yFRw04JmFnm47CkBTMv5IpcJaMwgv9hlljmBTXAzqY1ucWads3oavzfVzXV/4pYKBXdxFNxlV8GdPgjuMSMmWMuOl0cf3FsOBXeP7r1s27MK7rKSrcHNdfzggw8G488jRowIpGU8atSoI8o2LNpCEPfq1SvhNqFsG+57+vTp9sgjj1TKJU+B8E707WDAuPdX3K+53IPNtryYb7hMbgu/GYx/E/RFx8OTouAujoK77Cq400cQ3CPHW9N2l9qYa+vZvPub2sw73TuO7Cx39l25Nnt98+DfibYp6tx7m9rUWxpZq64XWfduPTPbVb7h3GAseu/D56fdfY+cbwefPM8evfGT4M7kAizZFtzw3nvv2YEDB+z1119P2VdffdUmT54crEN+zz33JNymqG+88Ubwd/h7pSGTwV2hKLiLo+Auuwru9HFg/wGbMGGi1ahzoTXNv9Da9rzM2nR3uyWx++XWsX896zygvrXrWSPxNkVkbLtF4cV2eZ1zrLe3inY8H21wP/HkduvSpbtNGHSmvfboOfYek9MePy+5sUlngYmeL2IwOW3rufbErWdZ94L/2phxMxXcFQBrjnf1vHj22Wdjj0SDgjsJCu6yq+CuHFT24H733XftlltvtqHDhlm/vgOsf99BNqDf4KT27T3Acpu2tMYNm1mPbr0TblNU9h3sf8BAW7bsam8lRXs+PvX0NuvcudAK2/7LVs853W5ffIatuerMpN688Gxbt+xCW7v0AlszP/E28d7k26xbeobNH/9va9nkXBs/YZpuB8swdHUzS7ywsNAef/zx2KPRoOBOgoK77Cq4KweVPbgp8A68dcD27tlru17aYztdfiZz67PP2eCBQ62wczd7cMMjCbcparjv3bv3BN2UH374QexVRMOOHTts2NDB1qRhDctrXcsK2ta2/LZ1UrJ9m9qBiZ5LaLva1rrFFdYit74tXLjA3vEKUZQouA+H61/BnWYU3MVRcJddBXflYOLEidavXz975ZXoz6uycODAfnvggfvsmuUrbeHi6wMXLVmV1AmT51ijpu2sXX53u2rBioTbFHVBsO+VtmrVanv66Scir5QouA9HwR0BCu7iKLjLroK74nn77bdt7Nix1rt3b3vhhWgXUsk0W7dut+49enrFZJK99977sUcrFwruw1FwR4CCuzifjeC+2mYue8SmLrrXphDeaXLqovuC/fYbuVDBXUEcPHjw0+CmSzqboCLCLUVTpkyJPVL5UHAfDkM+fL82wb1p06bYo9Gg4E6CgrvsVmRwz5o51QM1z4ZNus7mrnzKZnnI0kJOl7OWPRrsd6BXDAjuq+bNVnBnmGwObmYl9+jRIxgKYPJeZUTBXZz58+cHs8q3bt0aeyQaFNxJUHCX3YoN7ulWv1Fz69Z/mo2afpMNn7wyCPGSHDHlehs9/QYbNW11wueLOnzy9cF+O/eZaA0a5Xpwq8WdaRTcFctnMbg553bt2hX0iLz00kuH+eKLLwZLpLZt2zZYizz+Obbn9xjeSQcK7iQouMtuRQV3uGRh3boNrG6DXGvassCatsh325dobqsO1jqvi7Vs2znh88X1/fl+69RvZg0aNArWJy7NykeZRMFd9VBwf2JlC+6HH37YBg8ebF26dLG+ffsWMzc31+rUqRMsfRr/ONsPHTrUHnvssdieyoeCOwkK7rJbUcFNy/chv8BmzZxl48eNcUfbhPFjj2i/vr2sUcP6VpCfl/D5RLJf9s+4FhekgjuzKLgrls9icG/cuNHGjRtnAwYM+HTJ0lCWMZ0wYUKwehot7/jn2J7nNm/eHNtT+VBwJ0HBXXYrKriBb/ihW+qtAweCW3LeSuLdd6+3DgUFHvYzEz6fyGC/bx0I/g5/r7Ki4K56bN++3Xr27BmEAD1IlZHPYnCzNOn+/fuDNQDefPPNYrJ86VtvvRVsE/842/NYaZc2LQkFdxIU3GW3IoO7tDz55JNBd9bixYtjj2QPCu6qB+OizCqfOnVq7JHKhyanVRwK7iQ8++RT1tUL9No9O1inWxdal7uXWeHti9Nql/XLvEKw2Or062wdOna0zY+mZxwkGQruQzB2xdfxsdZwtpGtwc3QBF3JjCHu21c1C3S+mIJvorrjjjvs7rvvDr6cApkz0aJFi2CG8rp16z59fP369cG2FNwV3YWu4K44FNxJoMXdpbDQrihsa3nXzbSCm+ZZ/vVXJrXg+tnWcfVc67B6jv878TahBWvmWXv/WbN7eyvwAlYt7syj4K68ENAMRRBU//vf/z71tddeC8YVu3fvHowJxz/HtnRLVtaZ/iHc78vKb4Q0nxGTmpDvam7atKk1b978sMfbt29vLVu2DL4KktCvSBTcFYeCOwlbn3km6EI9r/bldkWnNlarW57V6tIuqfW651uz/l2tcZ9Cq90lye90zbOandvaeXVqWH6HAntiU3omMCRDwX0IBXflha8/XLFihY0ePdomTZoULEqC48ePD2bx1q9f34YNG/bp44wLsy331Fb2FdV27txp119/fXDeLV269FP5zFavXh08R+s7fJyhHI7rzjvvDMZSKxIFd8Wh4E7Cnj17bJ5fVD179LCe3XtYrx49rXfPXkkt7NTZGjdsaC28YOH3Em0Tyj7Zpoc7a/aVwf2AmUDBfQgFd+Xl5ZdfDlqYtDapRNPCDmUcmDFuZmCHj3Xr1i1osQ4fPtye8Yq3iIYbb7rVg7uVLZrc2/Y9utj2PLwwCPB0+trGJbb5tunWt7CVDRg4WMEdQ8GdBLro9nnBseO55+35bdtT9q51d1jH/AIbPmRo0N2eaJui8jf27tubtpmHyVBwH0LBXXnheqAy+9RTT9mWLVuCMA597rnn7Pnnnw+6ysPH2IbJhszMZgKbiAaCO69tS7tqfA97yUP2haDFPTup2+6eY9vvnhv8TPR8vLuDFvdk69WphYI7DgV3RLBKDq2BGTNmxB6pfCi4D6HgFqJ03HbbWmue29TyW9SziYM72oRBHWzcwIKkTh7WxWaN7WVThndJ+Hy8k4Z0tKE921jjupcHC5/s2/dy7K9/tlFwR8S2bduCbjvG3CrrPb4K7kPwbT58OcDChQtjj2QPCm4RBY9v3GjDhw+zgvx869SpU8q2bt3aGjZsaK1atUr4fFE5dws7d7KlSxYH90ILBXdk0HVHcDNRhlmulREF9yFYEYkWd6bOj0yi4BZRwOJG27Zvs42Pb7JHHns88NHHNtmjGzfZY0dw1uy5ltu8pU2eOj3h8/x+sB/3k30+7kH1pO3ZvbvSLkaTaTIZ3F90/+Q2dzu4tdxTXB5PRjX3OPcKl9/7aeyxlFFwF+ezGNyMh95www1BmK1cufJTuR+4QYMGwWcW/3go269ZsyZjEwfTiYJbVCa4b53eLWbGi7KRqeD+vPt3d5h7h/uwu8rt7f7aTcb33FbuRne9+1/3c27KKLiL81kM7nvvvTdY1CK8bzaUGctt2rSxdu3aHfY4FhQUBNszc5lCp6qh4BaZhPvuWfqT++y5lY/lPuO97rrrgmttyZIlhz3OtlhZy8vKRKaCm9byKHeJS2u7kTvSXenmul9xjwShf437hrvOvdj9kpsyCu7ifBaDm/tmqenffPPNtnbt2k/lsfvvvz9YvSr+cbz99tuD7Qk+bg+saii4RSZhuVYm5bLW+qBBg4JJZfHm5+dbrVq1gkpy/OOsgMeXcXC9VfaFcyqaTAR3jvtP9yZ3mvs1F/7jLnaHu7S6E/3xo11Cn3C/2qWlPts9y/2ymzI5OTnVnS2ZmnxUFYJ71S23WX7LXFvVrYl9OKe7vTe7u701s1vaPOjavB720oQONqh5bes/dLjtrqRj3NkMi3gwyeeBBx6IPSJEdBDc3HdPD9XAgQOD8I6X++v59ix+xj/ep08f69+/f/Bd1gruI5OJ4P6mW9Nd5vZ0w7HpX7o93LEuz3/DLcq3XcbEu7ut3avcee45brLgpsLA+Dmt+a96i/vCP/zhD9tYdSgTVIkWtwd3u+bNbFGH+rZnUkfbObGjPT++Q4nuGN/RXpzU2V6c2Dn4d6Jt4t3hvjylkz0+rI31anyFDRgyrNJOTssGuN+Z+5aRbywLpbLKgiS33HLLYY+H21XmbzYTVQ/OJ7rJ9+7dGyyeU1SWaqVLnJ/xj7PePFb0inBVgUwE97Eu4TvLbeke5cJPXLrMx7t5LuPYRaElPtEl4E9zB7oL3PPdIwU3B3Ky29gd7Abd9CeeeOLrs2bNih16tFSF4L517Vpr2ayJtbviQhvZorYNd4cdwRGt6tqEgqY2Ib+pDW9ZN+E2RR3Vso71a3y5NbzsQhs2fIS9XMHrK2crzLblyyhGjRoVyHKgoXRN1qxZM1hRLP5xvieY7wjmHnYhRNUhE8H9C7eNO9klSOn+hh+4dVyCubP7fTceZo4T7IT16e5X3UKXFjf/p0VdEkxc+4PbyZ3j0iV/2/HHH38gUwuiVIXgfvLJJ2zK5EnWq3cf69m3X2Cvfv1LtGuPntawSTNr1DTXuvXsnXCborLPHn362oCBA2z19derNh0RtHLoEmdJUGR8MZSxQ7og6YqMf5zuc5YL5RunhBBVh0wE989durmnuPHB/UO3rjvBJWCPcePhubkuv/utmIQ4Icys8iNNaKNVT9DTqqdL/uRq1ao1+c1vfrMjUytjVYXgfvfdd4KuqR0vvmTPferOEn3osY3WxcO7R+++9tjmJxJuU9xP9vvSzl325htvaOwqIpjJ+8orrwQL/yDLfYbyRRtMyuM7q+Mf37p1a7BkKF/0L4SoOmQiuH/sNnOZVEYIh2PcdKE3cekqb+t+1w2hNd3X3emucXu5dHff6251Ce8a7nfcsOv9iOTk5JymyWnlgzHRIUOGBF+lmKn11IUQQhxOJoL76+7l7rVuPzcMWhZfGeAyOY3bu+IXYiG4m7p3ug+4N8f+vcN902V2ObeVUSlINbj/rdvBygetc2aJDh06NLjvUgghRObJRHDTNf5X90b3SjfsEj/PXe4yeYzu9PgA5t8/cv/s/svldjK6xxe5LODSxWXiWiqrrgXoPu7ywyzRMLiZNSqEECLzZCK4gRCmdb3UJai5vWu6SyucJUyZmMZyqP9wj3dZaa0oVABGuCzEwn3cWvI0wyi4hRCi4slUcDPL+/cu49Zr3YdcWtsFLhPImKjWwOV2sepuoolnPNbVZTLbv90vuCmj4C4/Cm4hhKh4MhXcQCuaGd4XubSyz3BpXdNyZvnSk9xTXbrSE70QHuP3qQBwz3c4Oz0lFNzlR8EthBAVTyaDu0JRcJcfBbcQQlQ8Cu6IUHALIYSIAgV3RCi4hRBCRIGCOyIU3EIIIaJAwR0RCm4hhBBRoOCOCAW3EEKIKFBwR4SCWwghRBQouCNCwS2EECIKFNwRoeAWQggRBQruiFBwCyGEiAIFd0QouIUQQkSBgjsiFNxCCCGiQMEdEQpuIYQQUaDgjggFtxBCiChQcEeEglsIIUQUKLgjQsEthBAiChTcEaHgFkIIEQUK7ohQcAshhIgCBXdEKLiFEEJEQSaD+6vu6W4Pd5jbxq3ufsVNxHddtm/n9nF7ul3c/7rfcUuFgrv8KLiFEKLiyVRwf8k9xx3vrnPvd290CfDT3KPcovzUbe7Oc29x2Z6fk92L3G+7KaPgLj8KbiGEqHgyFdwnulPcxW5D91yXVvQqlxb1192ifNM91f2HS8v7DLexO8ad5J7tpoyCu/wouIUQouLJRHB/ziV4b3JpLX/Bhb+5V7kj3T+6n3fjqRb7GQ9hTuDf7rbggVRRcJcfBbcQQlQ8mQhuurTruEvcrm4YyL9wO7tj3XouoZwIgp/nfuKe745257oXuymTk5Pzj+rVqz+j4C47Cm4hhKh4MhHcx7u0jme6jFmHwf1jl25zxr3z3e+5RSG0/+QS+Evd+9xFLhWBY9yU8eD+iwf3loULF8YOPVoU3EIIIaIgE8F9kssMcrrJG7lHu/ADlwCe6NLy/r5bFLrPmbxW6DI+vsFd4NLa/oZbEvwN9v9X9xK3RrVq1fqefPLJu+fMmRM79GhRcAshhIiCTAT3z9zW7lS3iRu2uH/o0kU+weWPl9SCZkyc7vbj3Avcge4490iT02ipc6tZL3eZe4N777HHHntwxowZsUOPFgW3EEKIKMhEcP/IJbDnuG3dMLgJ4lyXECbYuW87GbSkm7nrXV5wSbDdse6ZLt3xuUcdddSIk046ae/s2bNjhx4tCm4hhBBRkIngZuEVuquvdwe74T3bv3aHu0xOO8+llRwP4Zvo/m6C+0m3b/C/FMnJyfk7k9M0xl12FNxCCFHxZCK4aWEzwYzgZjb4CW6Oe5l7ndvfZbEVHmPbMKy/5dJq/prLc7w4ut37uXe6tNJTJgxuzSovOwpuIYSoeDIR3MD4NcuVMsGMsW5a2Uwy4xYxVkFjItm/XVrehDgv5BQ3z2VMe5A7wGWC22y3t/sHN2V0H3f5UXALIUTFk6ngpsX8S7eTy9Kl97oEN2PchDrBXTf2/9+4zCZn1TQWW2Fy2RqXFvtylzXL2YZ9poyCu/wouIUQouLJVHADQcsiKtyi9R/39y6hTdc4Qc1z3PPN8qd0mTM2zq1kzA7/u8vv8W9a5EXHw5Oi4C4/Cm4hhKh4MhncFYqCu/wouIUQouJRcEeEglsIIUQUKLgjQsEthBAiChTcEaHgFkIIEQUK7ohQcAshhIgCBXdEKLiFEEJEgYI7IhTcQgghokDBHREKbiGEEFGg4I4IBbcQQogoUHBHhIJbCCFEFCi4I0LBLYQQIgoU3BGh4BZCCBEFCu6IUHALIYSIAgV3RCi4hRBCRIGCOyIU3EIIIaJAwR0RCm4hhBBRoOCOCAW3EEKIKFBwR4SCWwghRBQouCNCwS2EECIKFNwRoeAWQggRBZkM7hz3OPdf7tnun9wfuDyeiC+7P3X/7J7u/tv9q3uCW+oXquAuPwpuIYSoeDIV3Ee7v3QL3Zvc+91Fbkv3eDcRP3Pbugvc29wb3RVud/ckt1QouMuPglsIISqeTAX3MW43l7Ce6I5w57lXuzXdz7tF+bVLcA90B7j93VnubDfPLVV4K7jLj4JbCCEqnkwEdzW3unu9S+jSXQ4Xu7SgCWW6v2mVx/MT93fuD4P/fdKlTvf6cHeJS+CnTE5Ozt+qV6/+zMKFC2OHHi3ZGNxvvPGGDR482IYPH24HDx6MPSqEECKTZCK4v+pe6q50aT0T5HCqO8Qd617osl08tMK/+Mk/P+U7bmeXbvNcHkgVD+5/ENxqcZedV199NWhxDxs2zPbv3x97VAghRCbJRHD/yG3qznHp+g6Dm5Z3M3ec29r9rpsMwp4uc7rcr+CBEqD1zv7PdfkbrY866qgxJ5100r7Zs2fHDj1aqnJwE9C33nqrLVq0yK655hpbvnx54Ny5c6158+bWsmVLmz9//qePhy5dutSWLVtmmzZtso8//ji2NyGEEOkkE8HNJDOCearbxA2Dmy7weu4Elz/OOPiR+JZL8DM23tOlG70kPufSPc92jKOvdu897rjjDs6YMSN26NFSlYN7+/btQauakM7Pz7cOHToEFhQUWF5eXmD4WLxt2rSx9u3b26pVq+yjjz6K7U0IIUQ6yURw/8Jt4052G7nhWDa3gtVxmaxG9/f33ZLg1rCzXMa2aW3/0y3atR4Pf4P9MSZ+gXtxtWrVep588sm7aDVmgqoc3G+++aY99NBDdvvtt9udd95pd911V+D69ettw4YNgfw7fDx03bp1dscddwTBrxa3EEJEQyaCmy7r5u5Mt4Ubtrh/7DZ0x7vt3e+5iWBS2hnuFJfWM/v6ulsqcnJy/ly9evUtmpwmhBCiKpOJ4KaLu7a71OWWsDC4uZ2ri8vkNFreX3OLQmj/xh3qMiud0P6SW2o8uP+pyWlCCCGqOpkIbnbKymc3u7Saw5ni/3BZXGWk+1seSMCv3EEu2xHa33TLhO7jFkIIkQ1kIrjhRJcxblrdzDC/yGV2+CqX1dMYj+ZeblrhhDNj1Me6TC7b5rLSGrd/sVwqY90sfXqkMfFiKLiFEEJkA5kKbrq3WZ+c8ew73A0u92IPdk9xuWWMGeaMgbNiGvdw/8e9zt3jPuuy/bUuM8SnuTyfMgpuIYQQ2UCmghuYBc4XhTCuzWpphPRpLrduMdns7y5d6qyYxtg2a5tzDzYvLN8tcDu5rHdOq51u9JRRcAshhMgGMhncFYqCWwghRDag4I4IBbcQQogoUHBHhIJbCCFEFCi4I0LBLYQQIgoU3BGh4BZCCBEFCu6IUHALIYSIAgV3RCi4hRBCRIGCOyIU3EIIIaJAwR0RCm4hhBBRoOCOCAW3EEKIKFBwR4SCWwghRBQouCNCwS2EECIKFNwRoeAWQggRBQruiFBwCyGEiAIFd0QouIUQQkSBgjsiFNxCCCGiQMEdEQpuIYQQUaDgjggFtxBCiChQcEeEglsIIUQUKLgjQsEthBAiCjId3PyBr7pfd7/s5rglcZTL819yv+Z+xf28W80tNQpuIYQQ2UAmg/vb7mXueHeu29c9y/2GmwgC+w9uvsv2092G7k/cUoe3glsIIUQ2kKngppV9hTvDvcm93V3tTnL/5SYK4m+657oT3OfcPS7h/Se31C9UwS2EECIbyFRw/8qd5y50z3N/49KSJrw7ud9xi0L3+C/d090B7kp3uPsXly7zUpGTk/NvBbcQQoiqTiaC+wvuOS4t7XFu+EdoOc90R7t/c9kuns+5dJfzOF3qY90+7p/dsgT3adWrV9+ycOHC2KFHi4JbCCFEFGQiuL/r1ndpbdO6DrvFf+a2dwnkxu633JL4tzvR7e+mEtz8DVrsx7unur+tVq1a7m9+85sX5s2bFzv0aFFwCyGEiIJMBPdP3ZYu49u5bhjcP3IbuIxhF7jHuCVBcDMenmpw01r/o9vZpYv+anftcccdd2DGjBmxQ48WBbcQQogoyERwn+S2dSe7jdyjXfiBW9ulJV3oft8tCca5SxPcHAjj6lQM+J1h7sITTzzxtVmzZsUOPVoU3EIIIaIgE8F9otvKneY2deNb3HSh0+Lu4B6pxV3a4AYqCLS8GSP/4tFHH33uH//4x63z58+PHXq0KLiFEEJEQSaCm5Y0LW26rBnTDoObLnQCnQlrzV3u8y6J/7hhcFd3CeRSkZOT82dNThNCCFHVyURwMzP8QvcGd4QbBvfvXBZjYXIaLeqwCz0RjFcz+7ybSxd4qdF93EIIIbKBTAQ3S5cS0te482P/5r5tVkFb5fZ0j3UJeORF8DtAy5rlUS93WT1tjMt94LTii94+dkQU3EIIIbKBTAQ30A1OtzjBvdRd7F7rEsZnuj90L3BZXe1kl1CmZU5Lm+7x+9xd7rPune5Ul5nmKaPgFkIIkQ1kKrgJYVrVjGUT3CzGMsWt6bK0KRPTarjMAv+t+0WX3/mrSyt7rXuLu8a9zV3gsqhLyii4hRBCZAOZCm4giAlpZplzixhBzhrmwLeAsQALXeh0l7Mt3eV8IxjbsT0LtiD/Zh90oaeMglsIIUQ2kMngrlAU3EIIIbIBBXdEKLiFEEJEgYI7IhTcQgghokDBHREKbiGEEFGg4I4IBbcQQogoUHBHhIJbCCFEFCi4I0LBLYQQIgoU3BGh4BZCCBEFCu6IUHALIYSIAgV3RCi4hRBCRIGCOyIU3EIIIaJAwR0RCm4hhBBRoOCOCAW3EEKIKFBwR4SCWwghRBQouCNCwS2EECIKFNwRoeAWQggRBQruiFBwCyGEiAIFd0QouIUQQkSBgjsiFNxCCCGiQMEdEQpuIYQQUaDgjoiXXnrJevbsadOnT489IoQQQpQfBXcZ+fjjj+3dd9+1AwcOBL711luHuXHjRuvcubONGTPGXn311U8fD7d/55137KOPPortTQghhEgNBXcZefvtt23VqlU2ZMgQGzFiRBDQ8fbt29fq1Kljubm5NnLkyE8f59/8zrXXXmv79++P7U0IIYRIjc9UcP/5z3/eSmCmizVr1tigQYNs2LBhNmrUqMMkpCdOnGjjx4+30aNHf/r48OHDbeDAgbZy5cqg1S6EEEKUhhdeeMHOPffc5zzaOrhZHdxn/PGPf9w+f/78IDDL6wcffGD79u2zbdu22XPPPWfPP//8Ye7YscN27twZjHXHP862/M6ePXvs/fffT7hvKaWUsiQ3b95sp59++osebZ3d7A1u5+xjjjnmhYsuusj69OnzTt++fQ/6z7fLat++fd/2lvbb3poO9Nb0p/r/D6K3uve7B8LHYj8D+V32kWjfldG+/n5h//799/fr1+9A+P9E21Y1+35yLG+FxxY+VnS7qmbf2GfkBsfGz/CxRNtXJfvGjoPPK3ZsWXFc2Dd2LDofq459Y8eQifOxr79vzZs3tx/96Efve66NcD8fJFyW8gd3vnuXu9hd4C6MSPa90n3cfcBd4ibarirJMS13H3UfcZfFHku0bVWT47jR3ezeHXssm7zTfcK9Je6xbHCp+6C70b3OzabzMSw/NrjZUH7Ee5vL+bgu7rFscJF7r0s5coMb1flIjq1yua7pKv+cm7V81f2V+3v3l+5JsZ9RyL4vcilMJru/dRNtV5XkmP7jUum5yv1b7LFE21Y1OY76LuE9NPZYNtnbvcltGfdYNvhHd6Z7jXuum03nY1h+THF/5ybarqqa597sdol7LBskX0a5hHZtN6rzkf2e6tIYPdat5oo08VOXmlGf4H/ZwddcCpKxbrZ1zxACV7vtgv9lF41cwu304H/ZxRD3Svf7wf+yB8oPKsj9gv9lF+e59N7VDP6XXTDLmx6SXwf/E1UOakR05VGwZEtXxo9cCsmp7rd5IIv4l0sLh8ke2UYr93r3wuB/2cOX3dEuXZI/44EsgvKDABjmZlsl+XJ3tds4+F920dO91v1L8D9R5aB7nFbOcPeLPJAF0C0z153uHsMDWQStUcaNugb/yy7aunTfXRz8L3ugB2icy/AN3YfZBOUH80hGul/igSyCljbDUs2C/2UPdFnTw8r8hL/zgKh6UJDQpUzXSbbUmH/gDnbpvsu2Fnd1l/kI2VaYQB2XXpJs6yr/itvNJdzoWs4mKD/GuPQAZUvFP4T5CNPcy4L/ZQ8Ed2t3ostcKlEFoUVawz3DzeGBLIAWDpNmLnDppswmjndruX8N/pddnOYS3r8I/pc9UCE+xyUAsq0iSflBl/KZbrbdp3uyy/lIr0I2cZT7T5cehR/zgKh6MK7NxUeBwgeaDVAB+Z77XfdoHsgiaNUwwekbwf+yi6+79JZkW2WLFs53XK6zbAu3bCw/Qugp4XzkTp9s45su5cgXgv8JIYQQQgghhBBCCCGEEEJkFsYomKn6czfR7RiMqXF7FPePMoYIPMYYaWnGEhmj42Z97vv7h8tCIIz/RDlmxyQzJiod5yYaq2YMiuPi+XCshjFgxm9SmSHP75/gciyssMaxMWs7/DcTN6JY7Yd9MgbP6kKMDyaCMUOOnfeYY+d3GGvjcyvNJELGIDk/mMzG58btH6e4UY3bcT78xGW2MZ9fUTgO7rPnfP0WDzgcD+cmrynZOCnPc57zuf3Z5bPi2Pg39xTzvqZ7XgP743Pg8yppchmfI58Xf59j5Hc4fo6rLOcQ++O8ZIJUKu9LWeE6CcuPROVBecsP3gc+Z46Dzyr0Ny7XaZTElx+Jrhle/4kuz4cz4sPyI5WxX947zgtWjOO6CssN9hnlHTqcT8zfSbX84Ng5fyjvUi0/+Nz4G0zMY+0Iri/Ok2y75a/CoJBkqUgWeOCDKgoXW0O3vUvBBhSczHAlpFKBE/wKl0VNuPfvVpd7UrnvlgI6qkKF1zfBZclBTrqicIGwLCELJHCCApULZsnzXDJ4v1iBjHu+WWhhhctKSfe597ssvRlFxYSLmpm4M1yWHEwEBQG32PzXpTAhgFnKldnyYeAlg9/hwuvlcnws38iSoiz4z0UfBVTwClxuWUt0fvGaOHZuP6QwAAoZjvPfbrLQ5XnOOe5DZT3/tS6LtnAvMWsRnOWGhXC64Pxv6rIuALPDE8GtQ3xe4d0ZnK9sy+OlLey4Zjn3WCubFQAJcN63KKByyvnBLV28r0XhtTRwKT/CVbZ+6FJ+hJ/fkeC9I9AGuaw/wH363BvNErBRz7LnLoXxLmseJCo/qPyF5QfHBJSRlB+pLJTD73D9cl5wXXFcHGN/l9usomrUcC7w3h2p/OA9D8sPzj9eC9dXquUHn9vZLsfGGvtcZ91dlksVaYDwYdF4TpxEbyo1R1ok3K5BYAMn1Rw3N/jfkaH2ya0DrIxEWLPGLetkU6AQdPluoosiHbDkIAvUcy9loloiNUKOi5M0bN1xIrMEI63LZFBocSJzgg90+7pUgB5yX3FZXSiV2mlpIVgoCPniCQqORNACotAneKlh8zqooE1yS6plF4WWNcfFZ81xsToe9xLzmUV1PzGFGaG93qWgKArHQhARahScwC1u3L+dyqIyFFp/cjmmLS5fZkBBSfhwbzvndrpbO4TXAJcv4ilp+UsKfD6v8BqkZUMFieumtDN3z3cJuD0uq1tFURkJ4TzjPaRSR6u4KInKD1qYs93mwf+ODKHB9pQ1vIecj2H5wWfO+1na9ydVOMfucAmfRCFK+UFFi0pyWH7weig/KPOSQeOARhHHxTGxdgTHxLlJxZI1uqOA94tyg/KDciQRVDzC8oPKLnKNcG0mW3aXhhjvB+spUN7zd/jCJn5XC7akCU4ego0WFUHH/6k50/1DrYmCklotLVICNmyBP+VygrEthTgBnajlzP74Zhda2xT4tKiAsOQbZljukO7BKOCiojU1y6VgpJDh9RIOXIjIScgFyLHy2mh1PesSAlRq6ObjuURwvGEoIhcErUT2Qcub+6WjgL9DQUYtlouJ4OK4OD6OgddEgcdx8rnwuXEs9HZwAVHbZls+00QtMY6Lgr6eSwuAHovwPWB7zoGoWnB8HoQVvTLcA0s4h+cYhQGvjVDj2OgC5jGCiuPis6aw45wL34eiEMoEPwUK5wUhHk+ic7i88Bp5D/m86GXiWDgmXmd43XAsHBPvLf/mPCI0qMBQAFKQUuE6UkWQwpV9UEGj1+d2l/eSnpaSzuHywudD2FBRSLX8oAX+pEtPVfjZllR+cLycy/HhzD6pMPOtW/xtfjcKeN+4Zii76C2ILz84/4uWHxwnAUz5QesyWfnBe0KXP+9VuD+uZa5pPjt6TaKAa4BKKucj50p8+cGxJCo/OP9YKplvTaTHK1n5we/z3hD8LVx6ZFjQigpNFNfYZw4uGpZT5EKnZklNli+hoGXGiUuoUoBS4FDgUYjQxfKG+4JLa50PhdpZooKSD5wQ5ItIqOWFrRkKWLoqqa2HYZ5uOEkIUApAXiMXIMdGC4uWDcfOcRFQXECckLQc3nE5Qee51Hw5+VKFfbCiEK1v3q8o4D2k8KPgomAhhMKv1mNFIy4oAqmTS2FKi4X3nq8YPOjShUpocexcnEWhsOR3KHyo1LGPTEE48d4x1MD7z1AHlTu6RimsKVjovqMSyHggFUBapnvdl12W3+X9p7syUSuT945zj8oV5ziFa9QQxLRs7nZZ159zkeuGlhmfI9cY1xqfFz/pou3hbnffdKlU8zk0cY8UUrRoL3EpjDnXwy/vYJ9R9WpR6HM88eUHx0jrKiw/6MUKyw8eY7ui5QfnWLJhjniorN3j0nJPdeintNA65Hyi147VIcPygxYyvQuUH21cyg+CnQoxPZeUH4+5vP+cy1xLieBcJOCKQqWciijXXxTwd/mWQMoPKrvx5UdYJnAOxpcfPM7XeMaXHwwThr0oRQlb6QQ7PRf0lFCWKrjTBDVmPoRtLgUkJyUXAycghQerh/E83dxcLBSWfNA73U0uoc92fCCJgpuLipYvXawUxJzInJBcrBTGnEBRdXVRSHCSUbunZk5tmAuPmiNjjlRI+DevhfE2Kh/LXLq5qfHymgm8VMdzKVQZE6P1wZh+VONvXAxc3HyPMb0WBBfHQOuYVgxrdTMGvCb2k0KFcTjCkIDjc+a94L1P1G3O50EhxPHTfUfhxDdv8Z5RcYuqhwR4PYTqVpfj4YIntKhQ0XrkHORYGWahR4MQpoXC+cvvEBicYxQ4ic4r3jsKJSqfDGlQIHNcVAaY7xEFhCYt7qddziveUyokjGkSdFxjvGbOGz5XPi/OOz7fl1x6tngfqIzQYi0JrjOOhxYOYcm/+VtRBjfhxXXM+09gU34QcJQffC4cG89zzvFvrjPOq6LlBxOYjhTcHDefGxUd3iveNyoAHGdUwwC8Jnp+6F3kHOSa4RipLNNipfzgPOR9plwkoChfKD9ozYblR6IhhJKgDKFSSqgSllHANcA5z/lFhSu+/KCMpvJHLynlB+FNo4ZeVrbd54blB59FKsNuZ7tcu1QiGYJUcKcBWsS0SrnwqEHRrUd3F61kLirGNamVEQiMOfKh88HSIqXwYXsKhURjQECYU9BzAtDtR02UApZCk31Tm0sU+OmAC+lhlxOOf9Py4QLjJOJk5fgoYDgJeR+oiTIuTcuUwo9jC7v7ksHJyD64kAkZxkqjOkF5r7m4n3OpUFGx4LUStlQcmMhD5Ysg4DPl86EVzra8F1w8vBclFXgEHhclFTb2w8XMcbE/CksKrFQu2LLAfvkbO1wudHpjaAFwHJxvHButIApQKii8F+GwC8fHthwb52ki6E0gGKl8UnAx7kyAcowUZrQg030+8v4TvLQwaeXTfUqljsKQY+I5WjtUInmMY+Iz5XXd4oaz+Euq4HKe8T7x7WgEGi1Ffp/3imuMSnVU4UZZwedB7wAhRcDSGKCiwrkYlh+8v1Qg+Fz43Cg/6BlJVn6EMJ+EyiOfO2XVBpcyir8f1XXG3ADKKSq8VATjyw9COSw/+D9dx5QfVEIoP/gsSlN+AJ8RZSufIe8N8wKigGuAz4ryg/eT3seSyg+247jp9qZ3hPeC8+lI5Uc8fDaUvQruNEPY8OFRoFPDDCGkqT3TAqVQpNYcTiyg1cWEAz7gZFDYML5M7Zt9UJMjFAlLCisK5CO1IsoDJwyvnePjxAMuJFrD1JKpUdINxnFSmAIzmilUOIlLAyc+LXYKX1ocUbXegMKPrldaLLz2EI6BrnJakxwXBT/jZFyoXGS03KjJ85kfCfZPgFDg0kKk8OX9ILAJcy5gjpX9phs+J3pH+AziJ3LRzUqhyDnDZ8pPWnBAsDEcwvmVDApR/gbnOsdDi43eCFqmBH+hm+4xUwo5hmf4vCgIQxhX5Hrgc7nbpXJU1wVeI+cSJns9XD9013I9ckx8fpx/nBtUCgibkioy5YXgpAVGgU65EML7G19+cN6EEz4JcMoP3vNU4T3kcw57k7h+Cc5L3aiOjZYi3fEcAxVCCMsPWqhh+cF7zDg1UKHm3KV3pDQQZrRsOYc5D7jeohpCpJLEecj5GF+GU35Q4aDizHFxfPyf7SnHCXOuMyopqcL1Rlmh4E4zFOK0pukm4cII4YLkJKT1yHR+uorC4Kb2SUuWWmcIwRXOjKXw4DuROZkZQ6SrlaDmZKZWCowb0+XE2ApdSaUZ30oVasy0WGjlhK0V/j5dboQRrS0qLHS90dICWgq0xOhGDqHHgDFjxlg5NmrCYUUghOOk0Oe9JFTTXfjHwzEQ0BT2VHxCmLRFVzIVBz4zWgPM3OXYeT3MM6DXIxyzJ3j5jKhBMzZP1zPvDa1ejpMZyRQi8V+TGZ4T/GS7dF+EvK8UylQYKOBDGEujRUyQUeBw3nCsQKhzXLTqwjFDClhanZwDHBcFPOcZ7wXHXfR1c25zrrD/dI97c21QceU1xk9YpGAmBKgIMX7Ie837DpyPXJO0esIvcuBz57okIPk9rieuWSoABCP7p8eIQp/zmLFxKm98sxg9QLwn6YbXQ8WD10lPRgitbq6DsPwgDMLgpoyg/KDXI6Ro+cHQBQFRUrnAOUtPIeEd1dANQw+8foZfwvMqLD+odFBZofwgkBgyAMoAyg8qviFh+cExlVR+cE1SueP841wJKwpRQEWHQKb8iJ9VTvlB2U7lgc+MY6eRRaWf5xiz53fCMftE5QeVxPiGmII7IghuCnQ+JC7uEC6izi4XPxMluPDC4KbApFZJd3MIHyAhQeFJDZtWLi1eCl+6fhi3jL+9gdodNTj+Nl2dYaCnEwptAoAWKDV24CSkNcCJREFHjZoTKgxuut8IhrDlA7xuxuUJMi5WKjFF7zGmdk5oUxNn/1EcTwj7pjLEa6H1EUIQcAFx4dGiocbMhRcGN61UjjmsoPE4r5sKGJ8/kwUp8Ak8LjYClNvAws8dCAw+Y8KAIEx3tzIFGt11vBbOnxCCgMoKhTXnXnxwU5DyOfL+h12uVCr4DPnsOWYCjMldBEQiqBjQsuI9K2kyUVnhb4YzvRmCCOFv8n+uAa6xosFNGGJYyFMg0pVKNyo9J5zbHBPnJ70UdFdzTvAc+9vtvuYyTst2DJekG4Kb84FKT/xkTM4xhsfC8oPPIQxuwoHPML7iT3nA+H5YfvA5UzEJK9xFobJCxYZzOgzNdENwM0eG6ykMI8oPgoryg3OU847ADV8D1w/lR3zFn3KV8oNj4vOhLI2/h52QptzhHKVXKayoRQXBzbXEa6GMD6H8oNLHZ0X5QcWfHrswuLnmCO6wgsZnQxlLDlB+cJ3RCCr6eVBRoaHE5DSCXaQBgpsTihoWreQQWih8INSmmWjByRteeGzH9rSiQxin4n5NTli6/ygoCABOclqAnAxcCCFc8AQhhSUFTxTdroQPJyCFH38PGFvkZKSmTuWCwo8uvTC4wzGq+K4uCk5OUAoWgpKaZdg1FkKlhYKZFg8T8tIdaPFw4dGl/4xLuIZdhQQpBQQ9DBSYSM2aC4zXRJcmF1d8VzmtGlrUVARoRXORMXObVicXNYUM72MI3cr0lPAc70EULW7+JhO54r8zPLz4OQ8pTOO7ymnNUAhREQzhPeG8oiuc4+J9oLJFyyl8v+LhfeA8oQAqzWSiVKDSSJcktwlxfoXweijoCF3+LtdDWGGk8KPg5DOk0AwhEDk36eqkt4UA4D3j2uIz5DFaUVS46O7k8+Y65dotqdJSHriuuIYpD+iRCqGCEV9+0CNAWQBUuNieynwIvQEU6mH5wWdPK5TPK6x0x8N7R4jwt6MKOiq1jKUTqGH3MNcRleH48oOu8jCsuP4oP+J7VsLyg2MqWn5QeeN4CUXODSqoUUPllnOE8oPjCBsZnPdUyCk/qBRx7hHwYXDTM8R7Ht8jVbT8oFJWdFIuucB5TuUkvldGlAPeeApiZgtSi+RNpmCge4iuLD5gZkpS6IfBS4uSWjwnGyckF1xJtXlOaAoZClUuZGp0FMLMmKR1Q607ipYAcBJR+2WhDU5AWo6ENq+FFhAXGa+Bkze8MLkoCWC6wuiSpLYcX3AWha48aqoUjrQiUllUorwQPBQALLBBiFFg8plQaaCSREHAZ0cY0OqhUkWhTchTkPMeMIeBilVJPQNcrFTeaAFRseEz4/NnMhUBwznCNumGc4FC/lWXyh6FPQFNTwYtTYKJ18Q5S+8CFQfCjNYqj/Fe8DkXrViF8JopoHi/6A3imKiY8H7y+5yj6Z54R/BQ6WC2MRO5uGZ4PwlzKilcH/RKcS5SOaQSSyuM85TPlzDnfaDCleqQEuct7xfvG8cZxWcFvCa6dyk/eO8oP/hcipYfhBzHDFQiaKFT+QrLj5K6hukp4nl6X7gekc+La5dg4TpOFOzpgL9JtzflB8HEecX1zTUWX37QQxSGGZ8fPQZ83snKDwKOMKeMoiJDZZzPit/jPSrpPSkvBDchS/lBxYNKVtHyI+yFo4LO+4tUBgluytJk5QdQYWE7KjZcW5wHVE44l2kciHJADY+LjFumaHnT3Ugo86FxktJqoWZMdx4nFBDGFOZcfLQKKGDCbsuiEDLMWmTchn2yb2rgXHRc2OwzUQsoHXAy8ne4KHj9TD5icgWFCK+Xv83xckKGFx7d9nSFU2ByUVIYHek+blqzFFYUkBRE8d27UcHFQsuXMXouJIKO4CKUCVZaYXTB0hrhIqSbj9+h9cnFw2fAhURYcXGVBIUyXX/shwuc3+O9Y5+0tKIYqyI0udAZ86UFTEHC50D3L+OHdGNz8fM6qAQSZPwOFRRaRpxjtAw41kTnFRUYxhqpxIQtbOT9ozCm9R52t6cLCj3eMyp2vI98Xkz8o6uVCiLXGMFAqDOOzznF7xACfE5cZ1ybVCrjxw+PBENdnLvsn8Apqcu5vFAWUEGg/KBCRwub84TXzOvl2GgQUMkPK/78DsNTvO+UH/xOfG9fPFTkmE0engd8xvwO5zHnAxO6ourdIjxpeYblB+cV5Qd/m8ok5QevnWufrnugLKAHJSw/CMCShl441yhruOWP2+N4P7jWeO84v8MepXTDdcEYPOUHXf28t3x2lB98lpQfTHbktVBGUPGg/GCyKMfOsXH+cs0dqdFFpYzzlrspOEZ+hjPZ44ffRBngQ6EmTEgTBrRoKBi56DgZ6ariBKb1FXYHUXunJknBQiCHiyuUdAFRuDIOSU2NfTMmRE2ckzyq2jLQhUbhzrHQdc9JSC2ZrioKe2q8XByEbTiDkxo+tV5eH8fGCX6k7isuAkKf1j37iXp8CmiR0cqkW5HPAOmGoiDjYqGFzWum5UNrhUKbkOW10a3FdnSJ0Tot2q0VDxcrBSPnBQUt3V20/jgv0h1uIXSZUnmiJcJnxjnDZ8Z5yTnHuce5xrFRIeScCyuHVFZoNRCSnLOJWgP8PhUxPle2ZdyNz5mudB6PYsiG10eA8T4SzJyPvP/h6+QaoxeAXgwKed5brhk+QwpLtqUCRddtqtcLBSrbc20zDJSoEpMOqEgQyInKD1pkHBuFdNHyg+PkM+a953coHxKVH1S0KCfYH9sinxvvI/uPckiKbmxed1h+8HlxLlIpPFL5QSszlfKDijHXE61aPmN+8jlznRGKnDNRwDnO+RaWH3wO/F3KBY6F8oPPKiw/+Lx4n+PLD94H/n2k8oOyg21poPWPyb85Nj47IYQQQgghhBBCCCGEEEIIIYQQQgghhBBCCCGEEEIIIYQQQgghhBBCCCGEEEIIIYQQQgghhBBCCCGESAP/7//9f3VLmbwH9RWYAAAAAElFTkSuQmCC;" parent="1" vertex="1">
          <mxGeometry x="395.88" y="259" width="182.25" height="152" as="geometry" />
        </mxCell>
        <mxCell id="jhgVOvy4fzAntEZaRrQU-31" value="" style="shape=image;verticalLabelPosition=bottom;labelBackgroundColor=default;verticalAlign=top;aspect=fixed;imageAspect=0;image=data:image/png,iVBORw0KGgoAAAANSUhEUgAAAe4AAAGcCAYAAAAf/UOcAAAAAXNSR0IArs4c6QAAAARnQU1BAACxjwv8YQUAAAAJcEhZcwAAFxEAABcRAcom8z8AAHbpSURBVHhe7b0HmBRlur7/E+dszjnrru56NnrWdXH3v+dsNO7qipJzGBgyQ8455yRxyDmroIKCBAkGkmJEAQMqigQRTJje/3uXXdIMPTM9M909073PfV3PNVBdXd3V9dX3fO/7hfp/QgghhBBCCCGEEEIIIYQQQgghhBBCCCGEEEIIIYQQQgghhBBCCCGEEEIIIYQQQgghhBBCCCGEEOWXCvkUD9H7n8eGOGC/krxPCCGE+I/nK656riGu8VEa7Grs+o0Lc42G///SVd/FfrdE1NNV2fU9Vyy+5fq3q7trrIvPGenq6Lre9QOXEEIIIQrhItd617uu/a5dEW13bXD1d/3CleWCz7j+6BrgusPFfg9H9IBruau562JX+B6M/puuaq45ri0u3sfn7HCtdtEA+INLCCGEEIXwc9dO17OuNq4rI2rkutOFGbd1fdf1aRfmOsWF8c52EXVfG1Fn1yrXVtdAF40C+IKrhmuua5mL/f7h4nNucjVxNXX93qW0uRBCiIRzoYuUcHtXHxdGVNP1Z9f/57rKdYULwwohUv2bq4GLCBaIRCu6SBP/yXWdq7WrhyvXhbl9yQWfcv2vq5KL9PUXXdHwfz6X1//bxefFA99lm4vomig5BJPm3Ha7Zrj+x0Uqu59rj+t2180uvlcIr5NepyHA+2q5OA6mT2qcSJs0ef6U+NddfGdS7DJuIYQQCYPUL+bW0nWbi6jzcRdR6SxXb1dfF0ZHf+/3XSFfc9Gnu9dFnzL8l6uLa42L98903esi7Yw5EtFe7cKEMWbMfKkLY/+1Kxr6nBe7bnUR/YaGXxRE3Bj3JlfYoAjhPDF00tt/cdEwIa3OeVd10T+eny+76Ld+yoVZX+D6kWuya7OLY9LwEUIIIZIOhoMxY7TzXETcpICJtuu6iJaHuzB1BnthWCFElRjxUVcOGxwaApj9C64DLoybiJxIdZxrnWuSC8PEiDHkBS76kW90hRCl/tNFlEu/MwYcHQkXRkHG/Q0XBswxaXCQLWjoouHBZ/zQVRDsh+GvcPE+ImkibQyfbfSB0/CIZfxCCCFEQiA6JpV9v+s+F2ni6KiWfxOVEmkvcZFmjk4JE3Fjwhg05gwYN2n2p11E2C1c57vgVy7Mm8FbHIu0O8fg+KSiGYkdQiqa/mn6lmkwfNYVLz9zbXTxvYa5mrnob+Yzif4xaRoml7rIDvBdp7k+5yoIGhg0bNa6OFeyBXQF0ADgt2MwGhE435XvTVYBcxdCCCESBqZJmheDneAiJZwf+mm7uYiIicyLMm4aA6S9iXgxw/9zhWDqVVyPukiPf9UFdVxEwaShw4iVqJZjz3eRAQhHc8fDT1wY7DsuBqiFI8T5TjRAGKT2HRfGSqOBFDjnX1jj4O8usgdE3a1cNEY418td/D6cDw0SfovnXAyCIwtBWl0IIYRICD92YVxE3JhPLBhF3dWFceePuDHeia5o4yad3cuFcZIyJ20dDaOsMWki3zDtTtqckdn0iTMAjv5vRmXT98xIbhoPxRng9VNXGHGPcBH1k8pmtDiD48JImNQ5581+NDIKM+4w4ibVz7HCeeA0KPg8BtHRz0/WgP5zUuhE4ph3cbIFQgghRIEQmWLcpKMx51hg3KSTMW6MODr9W5Rx8ze/cROhMtcZ46bhAPSz07e+0NXBRaqb6J796FsuLIUdi+g+bga4FQRdAdkuImSmfBXWx835EW3T10+XQv4FXKK5xEVf+hEX/feFHVcIIYSIGyJO+mNJI49yxYoMMfd2LgyL/uJoEyLSXOQiHR09qpxU+RYX6efoBUiImpkmRqqc433bBXwuqXGOxZQsTJL3Yv5/dRUXjJvGCBEv08wKAvPl+A+6SHOTxi9oVDmROyl1VlO7zMW5FGTevEYfOgP06PsurPEghBBCxA3RMct1ktYlAmZAFXOUQz7vYlQ2fcK8TjqbtDWQzsZgGZF90IVRQTg4DZPjuES0ITQCGLwVNhSi523T5xz2l2Pe9EWPcRF9F5fQuGk8kJovDNL1mPJjLhoTLJ5C4yOE6W+cP4PnGAvASHvMnfPn2MxxpwEUDa93cr3q4jdTP7cQQoiEQdRMWpf+ZFYPC/uBMXEiUAZlIVYIIyolbc7rpIsZIX7SddzFADNg0BamhXFj6qTSb3DxnnDaGX3ATP2KbiRg+KxmhnGTYiZ1zaA0BsAVFyJcGgf0pRe15CjRPiPn6ePm/OhnJ3vA+SP6rPkuzGsf6goXdCEKp1HCsqaMWqcBxO90jYu56TQCiORJ/auPWwghRMIg6mZaFH3cpHUfcoUjsBnRTQRKv3ZtF6lrok4MkYh4kIvIlpQwrwMGzIAvBoexDwO67nZx3HA0OSu0EZXmH3CGUbLvWy76honuw6lkxYEsAUbLoDtWcSsK+tBZwQ0TvstFpoDfAHEcFoBhJDmNnDAaJ1vAOdMIoe+b94TroWPYjAmgG6K4A+uEEEKIuMBgWNqTVDZRMlE4i6/QR4x5Yt4sohK+Tr83kSoP2WBgGcuHAtElg9KYK81SoozAJtJmqhcjxInUeThHLDBc0uNE3Sz6UtJIleMzmpuR6fmXIi0IGhycK2lx+vI5R8RIelZUi14xDmjwENnTRUCf/mgX/fJkIThvfpfoxWqEEEKIhENkiEljYvxl8FX+aJFtvF7QwCwiUUafE73T180Ia44VHq8w6DPGAJkDjYGWBdG/QWHnGcL+7JP/dxNCCCHSAqZYEaWS8sa44x2YRQqa1c3oG2awGPO5hRAZCPM/GeRCOo60HgNEWCqxKBjwwqIPzBEl5cfAGiID9UUJUTowbgZx0UdOijz/PO78MBecKVms+01/OZE66fToQWmYOqPLuU9JS9MfT6MgWmynb51pZYp4hSjHMIqT0aAMCHnRxYhV+t0Kg1QW72PqCasg8V4qC0aCMmJUN70QJYf1x+nzZnAZA7qYAlYQNJTpB2bkNYPAGPhGmj1/3zB93YxK55j7XYxYZ6BbtNjOKHZGgXOPCyHKKazCxFrLDIZhnimjOYm6C4KWOxUJLXNGfdLKZ2QolQXrEGPeJZl+IoT4GPp5GejG/Gai5Ojnd8eCPvHfuZj6RaQd9olHwzExc54WxhQsMmVMW4tWuJ06QZkzIcoxPFaQUaOs5oR5068W/WjA/JCWY3oL0TZTP8JogHQe01RYuakkCz4IIYQQIg5Ia9O6xpBZc7ko42agDNE2yxZWd4XRNQ2AGS4GxjDvs6gWOxEAcz+JFujT4y+RhST9p4vV1lhVjOlS/OX/sfYLFe5PNgwV9B7S5RyTe68w8f7875UkqfiKXiApKbCYA+nuooybFB7zRJlryeMGw4cXYL4swciCETzlp7AvTOXC/E3SckTtTF8Z+1//9V9TvvKVr+R973vfC/Sd73xHkiSpTEVd9IMf/CDva1/7Wl5WVlbe+eefn/eZz3wm77Of/WygT33qU3nnnXdesO3b3/52WtVdYV37pS99KTgvzi88L8T/ObcvfvGLn+wb6zjlUeF35Tw4B65TeF5cq/B8ua6JOjeO8cMf/jDv61//Op/HKop0XdEYThpEzOEUlMKMmwUeWFSBh98TWYcGzfKFA1ws68hDEGhtFAStfh4ywPKM012sLrXeT/aDK6+80lq0aGEtW7YM/kqSJJW1WrVqZXXr1rU//elPdskll9hPf/rTQBdffHHw95e//KVdffXVlpOTk5Z1V5UqVex3v/ud/exnPzvrvPj/b3/7W7vpppuC/dLp3PiuzZo1s+uuu85+/etfB+fCeYXnxnX84x//aLVr107oebVu3dqqV69ubuQfuq8RmOJ3SaM4xs3qRhg380SjjZtVnVie8V8uUnUFQRodY2clJZZAvKRChQoNvPAfHjdunL344ov20ksvBX8lSZLKWtRHe/bssSlTpgTmXKlSJbvhhhvs+uuvt6pVq1rHjh1txYoV9uyzz6Zl3bVlyxYbMmRI0DjhvMJzw9T69+9vGzZsCPZLp3Pju77wwgu2atUq69atW2CmnBPnduONN1p2drbdcssttmvXroSeF8dav369XXHFFcfc2+hWJsOcNOI17vA5uaTKmTYWGjSpclLoPMmHqWLF+rJZWVmX/+EPf9h76623mhBClEf2799vBBd16tSxGjVqBKZNlLV8+XJ74403InulHx999JE9+OCD1rt378DgatasadWqVbPu3bvb5s2b7b333ovsmX6cOnXK7rzzTmvTpk1wvbhutWrVspEjR9qTTz4Z2SuxHDx40K655hqWHWaWVVKNm4ErtA54QABP5ykIRp8zx5Som0cSYvjA2sY8LIDHCTI1pVicf/75f7388sufmT9/fuTUhRCifPH222/bsmXLrFGjRnbzzTcHKeTOnTvbjh07InukL6+88koQgWLcnBsmh7kRtaY7jz76qPXs2TM4L1SvXj1bsGBBYOrJgAbB3//+9+fc2licLKnGTao7nA5GH3VBEFlf62JUOQ89+LULWCOZ6WCzXYUtGBETN+6/Ydzz5s2LnLoQQpQ/HnroIevbt2+QRm7YsGGQPs8Ec6NRctddd1nbtm2DiJt+fTKg6ZxJCKFRMmvWLGvcuHEQbffo0cO2bt0aZBqSweOPP55042b+NYsv9Hfx2MCjLh7Bx4hvFoD4beQv/dk83YiFHeib5gsRXdPXjeFj5FNdROGYe7GQcQsh0oHXXnstMLR27dpZnz59ghTzm2++GXk1ffnggw+CPnoaIpj2+PHj7ZlnnknrNHnIO++8Y7t377ZBgwYFKfPFixcHZp4sUmHcLIPIsPX7XI+79rkeczHam4fh09/NX1Zlil4zGSPn0X0skYrhM3+bpxHFs875Oci4hRDpAoY2d+5cW7lypR0/fjyyNf15//33g4bIjBkzggFrp0+fjryS/pw8edJWr14dRN7J6tsOSYVxEz0zH5v0OGJEOGbNA0RYAY0FV/h7kYu53iGMCmcuNnO2K7l4MEH+5+3GjYxbCJEuvPvuu/byyy8H0Xey0q1lBQbH6OhMSJHn5+jRo8GobyLwZJIK4y4XyLiFEEJkAjJuIYQQIo2QcQshhBBphIxbCCGESCNk3EIIIUQaIeMWQggh0ggZtxBCCJFGyLiFEEKINELGLYQQQqQRMm4hhBAijZBxCyGEEGmEjFsIIYRII2TcJeTDDz+0119/PXgQwKFDh4JHuEXr1VdftSNHjgQPCYjezr68hyf+8Jg7IYQQojjIuEsIz8ddunSpde3a1Xr16mX9+vU7SwMGDLBhw4bZkCFDztreu3fv4D3z588PjF8IIYQoDjLuEoJx87B7HnQ/cODAwKCj1b17d6tRo4Y1atQoeLh6uJ19ec+SJUvsxIkTkaMJIYQQ8SHjLiGkyjHvY8eOBSL1Ha2dO3dau3btbMSIEUGKPPo19j916lRwDCGEEKI4yLiTBA9TJ+qeOnVqZIsQQghRemTcSeKZZ54J+rInTJhgp0+fjmwVQgghSoeMO0lEG/e7774b2SqEEEKUDhl3kpBxCyGESAapNO7zXT9wXeH6s+tS17dcWa6C4LULXJe7/uCq6LrQVdh7YiLjFkIIkQmkyrgx7Z+62rrudG11zXE1cv3IVRA/c3Vx3eq6w3Wbq7PrIlexkHELIYTIBFJl3ETWHVzzXZNdY13zXItcN7s+5coPpt3cNS2iIa5xrtGueq6fuOJGxi2EECITSIVxV3CR6r7dNdNFtEyq+yYXEXRf149d7BdNDRfG3sf1K9dnXd93tXBxnKquuMnKyvpTxYoVn5ZxCyGESGdSYdxfdN3oWuka6AoN+teuoa5Rrn+6vuCKJte13tXERao9pKbrfhcp87gJjZulRlOBjFsIIUQySIVxEyU3cBElEy2Hxs2gs2zXGFcz1zdd0bR0rXPRLx6a+nkuDP15F6nzaEOPhu30nf/DVdeVfd555w275JJLXp0xY0bk1JOLjFsIIUQySIVxX+zCmCe5MPDQuL/nquWi35oP/7YrGqLwqS6M/V8ujPh/XNNdr7iI1j/jigV95oxA7+Fa6mJA3LYf/ehHb6ZqJbNnn33WunXrZpMmTdLSpkIIIRJGKoz7EheDzCa4GFQWRsnfddGPPd7FwLXvuKLh/wxcm+ha7priGuRa7Trg6ukqyLj5DI7/Rxdp+soVKlTo/Ytf/OLQzJkzI6eeXF48eDBY8nTKlCmRLUIIIUTpSYVxM++afuq8yN8w4mZON2lsRpi3cTHyPD/fcNGnfYsLA+dLErk/6mKaWNzzubOysq6oWLHi3uL2cb/19tv29NNP24P3P2APbNlqD252bdlWpG5butxaNWtufXr0tC0bN8Xc54y2fnxs/4yn9j4VPLxECCGEiEUqjPvrrnCEOAPKQuNmuheRNtO7MOcvu2LBaHKOgbHTD070vs3V3kWfd1y4cf9vSUaVv/jiizZ23Dhr0izHmrVsYc1btbQWrVsVqZzmzaxug/rWILtRke/hdY7dpGmOjRg50g4cOBD5dCGEEOJsUmHc9Df/3XW3i3R5mN7+k4tFWEa46LvOT6wvw4A2+q0Xuoo1Hayk87if2bvXOnToYNfVrWY1+3Wy2oO7We0BXYpUvcHdrcno/pY9so/VHhh7n0/kx6zZv7NdV7+GtW7Txh7bsyfy6UIIIcTZpMK4gQFqpLgXu+jnvs7V27XK1dRFfzQpdVZX+5qLPuovuZi//RfXNS4GqPEe0ua8h77zuCmxcT/xpHXu1MmqdWtjbdfMsQ6bFlv7e+bFofnWYe3Hiv36GXXYuNja+d/qvdpZ23bt7LHdD0c+vWzgWeEUjAceeMB27NgRPFsc7dq1yx577LFA/DvcHuqhhx6y7du3B1mKjz76KHI0IYQQiSRVxv15F+bLCPKNrgddd7kGuzBnpowxwpw+8N+6iMpJj1d3zXaRGmdON4u4dHTREIi12lqBlNi4n3wqMO7q3XKt3d1zraMbd2jIiVJHN+72/rdG7/YfG/fDj0Q+vWxgRPywYcOsadOm1s6/DxkH1L59+7MUbg/VqlUry83NtTvuuEMj6YUQIkmkyriBCPpvrq4uRoczRYwpWxgw/dv/62Le9Y8j2z7n4nX6tAe4GEXOvG/S6nH3bYeUxri7dO5s1bt6xH3nLOtw7wJrv3pOQtVh3QJr539r9Gxn7dwQy9q4Dx8+bCtXrrS8vDybPXu2zZkzJ9DEiROtQYMGlp2dHYyWD7eHYo78rFmzguhbEbcQQiSHVBp3mSLjLj0Yer9+/WzQoEF2/PjxyFYhhBCpRMZdBDLuM5w4ccIGDhxoQ4cOtbfeeiuyVQghRCqRcReBjPsMr776qvXv398GDx5sx44di2wVQgiRSmTcRSDjPoOMWwghyh4ZdxHIuM8g4xZCiLJHxl0EMu4zyLiFEKLskXEXgYz7DDJuIYQoe2TcRSDjPoOMWwghyh4ZdxHIuM8g4xZCiLJHxl0EMu4zyLiFEKLskXEXgYz7DDJuIYQoe2TcRSDjPoOMWwghyh4ZdxHIuM8g4xZCiLJHxl0EMu4zyLiFEKLskXEXgYz7DDJuIYQoe2TcRSDjPoOMWwghyh4ZdxHIuM+QycbNI0uffPJJe+mllyJbhBCifCLjLgIZ9xky1bhPnz5tDz74oI0bN85WrFhhx48ft48++ijyqhBClC9k3EUg4z5DJho3Br1//37Ly8uzZs2aWd++fe2BBx6wt956K7KHEEKUL2TcRSDjPkMmGvd7771na9assdzcXKtevbo1aNAgMHHOVQghyiOpNu5Pu77s+qrri654PvAzri+5vhLR51wVXMVCxl16Ms24ibY5pylTpliNGjXs5ptvtptuusl69OhhjzzyiH344YeRPYUQovyQSuP+hquy6xbXPFc/19UuTLwgvu2q7Rrh4n2TXW1dv3Z9yhU3Mu7Sk2nGzYC0++67z3r16mVVqlSxypUrW6VKlax58+a2ePFie/HFFyN7CiFE+SFVxk3EXM2V51rtWuu6wzXB9RdXrAj6665/uya52HeJ61bXIlcP16WuuCmtcdfo0dbar51nnTYvtY5u3olUp/uWeoNgodXs00HGnUKeeeYZGzNmjGVnZwcRN6nyatWqWd26da1bt262ceNGRd1CiHJHqoz75645rvmuq1y/dLV0YcgdXN905eevLiLt0S5M/2cu3kekfq+riStusrKy/lKqiLtLa8tdNSMw73YeeSdS7e+ZF0TzNA5k3Klj9+7d1rFjxyBFjnGHIvquX7++LVu2zD744IPI3kIIUT5IhXHTR32Ni0gbE85yweWuKa6Rrj+5PuuKpoqL6HqYC9MOaeba7eoS/C9O3Lgvr1ix4t758+dHTj0+9j39tHXp0sUq1alhDXt0sOw+nS27V6fEqnfn4NiV6tWydu3a2eOPPRb59PJFphk3hb9fv35Wu3btTyJuVLNmTWvVqpXdddddiriFEOWOVBj3t1x1XPRr8yFhWvwiF1E3Zt7ARWo8mitcfVwTXa1cRODXuwa5MPx/ugqCz2Ag28Wuy1y/r1ChQrNf//rXB2fPnh059fjY98wzgXHfUPkmq920sdVrmWN1mydW9VrkWJ1mje2GKjcHxv2EX5TySKYZ9+HDh23lypXWqVMnq1q1ahBpE33n5OTY1KlTbe/evZrPLYQod6TCuH/iynFhttmu0Li/78LQx7lyXQxEi+YLrr+7Zrp2uO53Peq6zVXTFSu9HsLANSL6Ti4aDMtdGy+44IJTVMjF4Zmn9gap8iqtm1iLGaOs9fzx1mrWmISq9bzx1tL/Vm3b7ONU+SN7Ip9evsg0437//fftwIEDNnr06MC4MW0Gp5E+37p1q73zzjuRPYUQovyQCuO+xNXCxUC0eq7zXfBdV3XXeFdH13dc0TBdDOMm4l7hYpAaJrzQRZr8V66CIB3P59ZwdXfRLz774osvPjZ9+vTIqcfHJ4PTeraz9gwk27rMOm5YlFB12rLMOvjfmn07qo87xWDOrJbWpEmTIOImTY6RHzx4MLKHEEKUL1IVcTd1MZWrkSs64maqFxE3U7zyR9z0e/dyYbz/5/q8iyibwWzrXaTPw2PF4jwXjQRO6r/OP//8qy6//PJ9JR6c1i3X2t412zqsX2jt18xNqBhR3s7/1ujVXsadYujDZs72yJEjrWHDhkHa/O6777Y33ngjsocQQpQvUmHcRNJ1XYwqb+MKzRZDZ6AZfdyk0PP3cTd2Mf2Lv9ED16q6HnD1d+Uf0FYgWVlZfyjJ4DTN4z5DJho3nDx50u655x7r06ePzZgxI3jQiEaTCyHKK6kwblY6YyDZXS6md4XG/VsXi6pg3H925Y+e27u2uBjAFv3FmBq2y8UgNUasx4UWYCk9mWrc8PLLLwfztrkhNJJcCFGeSYVxk7L+jWuxiz5qRouTJidtvspFf/UPXPRps1ALy6LynnA6GNPF/uH6nutHLlLnW12tXewXFzLu0pPJxs3ocQarKdIWQpR3UmHc8DUXRj3bxUAzdLtruouV0zDlG1wMVmM5UyJpzJxFVjD7la5ZkX9j5gNcjBqPGxl36clk4xZCiHQhVcZNZEyUXd9FXzdGPMZVycVDR5jrzb+Z5kV0HqbA6QdnENoM11wXK68RcTM3m8g8bmTcpUfGLYQQZU+qjBswb9LhRNIXuhi0Rv83MPo7fAIYph2mwOn3Zhum/8OIGMRW7C8q4y49Mm4hhCh7UmncZYqMu/TIuIUQouyRcReBjPsMMm4hhCh7ZNxFIOM+g4xbCCHKHhl3Eci4zyDjFkKIskfGXQQy7jPIuIUQouyRcReBjPsMMm4hhCh7ZNxFIOM+g4xbCCHKHhl3Eci4zyDjFkKIskfGXQQy7jPIuIUQouyRcReBjPsMMm4hhCh7ZNxFIOM+g4xbCCHKHhl3Eci4zyDjFkKIskfGXQQy7jPIuIUQouyRcReBjPsMMm4hhCh7ZNxFIOM+g4xbCCHKHhl3Eci4zyDjFkKIskfGXQQy7jPIuIUQouyRcReBjPsMMm4hhCh7UmncFVzfcP3c9RvXRa6vuNgei8+7fui6xMV7UPhv/n7NFTcy7tIj4xZCiLInVcaNOV/gaupa5rrXNcVV0/VdVywudXV2zXQtcS1yLXTd41rluskVNzLu0iPjFkKIsidVxv11V3PXXNc81yzX0sj/r3dlufLz364mrsGuMa6xLoz7aRdfmOPFjYy79Mi4hRCi7EmFcZ/n+q1ruWu261euL7uItle6erpIibNfNJj5Z11fjIg0exVXnmu661pX3Mi4S4+MWwghyp5UGDd91UTVd7iGuMI+bVLhoyK6ysV+RUGqndR5Kxd95HEj4y49Mm4hhCh7UmHc9GHXd5Eex3BD4/6xi1Q4afAcFxF1YXzHNcO1xnW1i2g8brKysio6e+fPnx859fiQcZ9Bxi2EEGVPKoybyJhIebKroSs07u+7arnGufjwb7sKIky3k1q/1cWo8qIg1f45F2n2L3nE/a/LLrts/9y5cyOnHh8y7jMcOXLEBgwYYEOGDLETJ05EtgohhEglqTBuTLaFa4Krnut8FxCJ13CNd3VwEVEXxLdc7MuAtuGuwkweOJFfumgoMLhttGvJRRdddHzatGmRU48PGfcZTp06ZYMGDbJhw4bZu+++G9kqhBAilaTCuMOU+FRXY1cYcf/AVcdFxN3GVZgZ/96FYRO1V3URRRfGp1yXudq6GMg237X2wgsvPJmXlxc59fjIZOM++cYbtm/fPtu95zHb8cijgXb6vwvSuk2bLbdjZ2vfpZtt2LIt5j75FRzT9djjT9ihl1+2999/P/LpQgghSkIqjPubLlLiC1xE1qFx/9SV6yIarutiMZaCqOxicNsgF9PEwqi9IEitf8FFOp7PuaRChQr1Lr300ufnzJkTOfX4yGTjfvjh3TZk8CBr07q1tWvnn+1q375g5bZpYw3q17cGDRpYbm5uzH3yi2Oybwf/9+KFC+0NbyyI5PDhhx/aBx98cI7Y/tFHHxX4Oq8JIdKHVBj3p12MGr/bRXQdfsgVLgabjXQRURcEfdVEzjsif4s1KC0kKyvrcg1OO5u7191rTRrUs07Vr7dprWrZVNfklgVraus6NrdzY5vTqbH/u3bMfaI1xTW9dS0b3aSqNbzpnzZw8BA7fORo5NNFIiGTsXXrVps4cWIgMkuhaKwu9EbTrFmzzto+YcIEo+toz549kaMIIdKBVBg30M+NSbP6WSXXH1wdXUTRrV30dyPS58zxDiNqTJv3EpVvdFVzlYjzzz//r5oOdjar7llnrXMa2fKO9ezk1E72+pRO9tqkjoXqyOROgWK9ll9HXG9N62z7RrW2Po2qWr/BQ+2V145EPl0kkvfee89uu+22ILuBOnXq9ImaNGlitWrVshYtWpy1vXXr1talSxfbtGlT5ChCiHQgVcZNnzSGTR/1Otd9rrtcGDJ90aS0q7sauS53hXO6SXeztCn947e4/ugqEZrHfS4Yd5ucbFvZpYGdnt7V3p7W1d6Y2jlhOun6YFY3e2FsrvXPri7jTiKkwQ8dOmSPPvpoIG7sUOPGjbNGjRoZMyqitxNp85fZAkKI9IH7NhXGDTwU5F8uFmGZ6GId8j+7SH3z2pUuXqcP+zMu4DXMmgFpf3MVNZq8QGTc53LH2nutTdPGtrxT/cBoj0/pbIcndUqYXnO9Oa2LPTOqjfV14+4/ZJiMuwxYtWqVtfdytX379sgWIUQ6k0rjBgam0eeNMfNh4TKn/CU9Tmo8HLwWwnaUf0nUYiHjPhcZ938Gy5cvt7Zt29qWLVsiW4QQ6UyqjbvMkHGfi4z7P4Nly5YFxn3fffdFtggh0hkZdxHIuEsuGXf5QMYtRGYh4y4CGXfJJeMuH8i4hcgsZNxFIOMuuWTc5QMZtxCZhYy7CGTcJVd5NG6mTG3bts02bNhgmzdv/kT333+/7dy50x566KGztodif/Y5fPhw5Ejpg4xbiMxCxl0Enxh3Nzfu1bOtw4aF1v7uuQlVh/ULrZ3/rdGrvYw7yWDanf165uTkBGYWikVLWrVqZW3a+HWO2h6K/bt37247duyIHCl9kHELkVnIuIvgmSeetM6dOln1Hm2tvUfGnbYus47rFyVUnbYs8wbBIqvRp4O1bdfOHt39cOTTk8t/onEfOHDAbr31VluwYEFgaKFGjx5ttWvXDlYUi96Oli5dGux/++232/PPPx85UvrAOci4hcgcZNxF8MxTT1mHDh3shqb1reHEQZY9fbhlTx5SpJpMHWYtZ42x5jNGWfaUoTH3+UTThlsj/3tD84bW2iM+Rdyp5+GHHw6uc3HLRzog4xYis5BxF8Fzzz5r/fr3tyq1alitJo2sdrPGVsfNrkj5fnWbN7G6zZrEfj1KtV21chpZZf+MHr162t69eyOfnlxk3Gdg+c+OHTtacR9Ckw7IuIXILGTcRXDixIngqUtLFy+xpfMXBlq2YFGRmjJ+gjVtmG2dctvZojnzYu4TimMumb/Ali5abPdtvs+OHT8W+fTkIuM+AwPTiLiL+9jXdEDGLURmIeNOEvueeca6dukSPDrx9LunI1vLFzLuM8i4hRDpgow7SbzwwgvBKOTJkydHtpQ/ZNxnkHELIdIFGXeSeIaIu2vXIOJ+9913I1vLFzLuM8i4hRDpgow7Sci4ZdzlBRm3EJmFjDtJyLhl3OUFGbcQmYWMO0nIuGXc5QUZtxCZhYw7SaSTcd/aub695QZ7Mq+LHXPzTpRoCLw7o6sdGJ1r/RqXb+NmARbmcaeqfKQSGbcQmYWMO0mkg3GvcuPOdeO+o2sD+2BmVzvtJvumm3ei9JbLZnezl8a1tYFNali/cmzcTzzxeLDc6cKFCyNbMgcZtxCZhYw7SaSDca+5d721aJJtI5vWtPUDWtk61939WiZM97g2Dmxty7s3sdzaVWzQ0OF2+Ejyjfujjz6yw4dfs8cee8x27dzhesi1vVAtXrTAmjVtYsOGDo75emz5cXftsCf8JjqSgvMqKTJuITKLVBt3BdenXZ9x8WHnueKB933KxXsR72Vb3Mi4z2X9ho3WOLuR1a5cyXIb1Q3UJsFqm13XmtapYVUq/duGDx9hR44ejXx68vjggw9s9eo1HkF3Dp74xZO/ct24ClPz5i2sbr16lt24cczXYyryRLFu3brZvffeGzQYyiMybiESw4cffmjvvfeenT59OvibX++//35Q/+TfHu7P+xNBKo37K65/uga7Jro6uf7s+pKrML7put7V3zXGNdDVzPULV9zIuM/lnvUbrFnjbOveoKrN7tLUZrmmd85JmGa45nZtarfkNrAm1W+2IcOG22tHkm/c77//nk2fPs2qVKtlDXI6WW6X4da602Br1bFgtes63Lr2HWcde46K+Xp+te40JDhuvcbtrVqN2jZv7pyE3ZSJRsYtRGJ44oknbNq0acHTBCdNmnSOZs6cGQxwzcvLO2s7+0+fPj1hz6FIlXF/wfVvF4a9znWf607XaNf/5yooev6yq7Jrsov973Hd6uJ9f3LFjYz7XKIHp9En/cbULnZ0cueE6ZjrnemRwWkpHFX+3nunbVreZGuQ3cIGjF5i05butkkL7reJ87cVqEnI95m0IPbr+TVpwQPBcfsMn++f09zmzJ4p4xYiw3nooYesd+/e1rp1a+vSpcs5atSokdWqVeuc1/l/nz59gtkriSBVxv0z13TXAtdNrj+4OrrucOW6vubKD2n037umungv0frlrooRfdcVN27cf5Vxn004OG1llwZ2enqXYGT5iamdEyammDHo7YWxuTYghaPKQ+Nu2LilDRq33GaseNSmLn7Ipix6MGGaunh7cNx+oxb557SQcQvxH8Drr79uTz/9dGCcTz311Fl68sknbciQIda0aVNbtWrVWa+xP57AQ6sSQSqMmz7pK11rXONc9FXDFa4ZrhGRf9PvHc0FriYu9mnMhtKQlZV1ecWKFfem6rGN6RRxZ9o8box7+rQpgXEPGL3Y8pbs9Ih6q02ctyVhIkLnuH2GzwuMe+6cWTJuIf7DmTt3rnXu3Nn27dsX2ZIcUmHc9FHXchFtd3CFafGfuoi2SXvXdeWPuv/hwtTp277BRdTOe77jCs2/IIjWSc9/38V7LqlQoUK9Sy+99PlULbAh45Zxlxdk3EKkhhkzZgTrQTCjJZmkwrh/7CJyJuVN5Bwa9w9cdVxE4W1c33ZFc7Nrrmusq58rz7XY1cf1R9fnXAWBsV/mausizT7ftfbCCy88yaCBVCDjlnGXF2TcQiQf7n8GoGHce/bsiWxNDqkw7ktcLVwTXPVc57uAPuoarvEuInEi6WiquFa57nJNchF9Y/KzXCNdf3EVBCfyS1dDF6PYieqXXHTRRccZEZgKZNwy7vKCjFuI5JNpxn2Rq6mLkeEYaRhxk8YmhY4Z8+GxIm5Me72rpYvXmTrWyrXJ1c1VWNSd5eL1L7q+dP755//rsssu208fRCqQccu4ywsybiFSA9PBWIGRaWPJJBXGTWRd30WkjOmGxh2m0JmbneP6hiuaG13zXBg+/d0h17pWu4a7fuQqaCrZWWRlZVXU4LSzkXGXXDJuIUR+Zs+eHQxOY+R5MkmFcX/exQIqTP0a4gpXS7vUNcpFGhtjJkKOhnnaDEwb5PorGyKwL3O6MW5Gnsdl3JrHfS4y7pJLxi1EbJjyxHzne+65x9avX28bNmw4S1u2bLEHH3zQtm7detb2devWBSsQMiK7LFch5LMPHTpku3btCr4j3xfx78K0efNm69u3rzVp0sQIEGPtEyr6mLt377ZXX3018unxkQrjxqgZKLbCNcf1KxcLq9R0rXT1dGHATAdj6hgGznsYvEYqnT5wUuVE5KTKGeBGqryXi5HjcSHjPhcZd8kl4xYiNs8++6wNHTrUGjdubG3atAnKXrRYjKRFixbB3+jtzZs3D5YQXrlyZbBsaFnBZ991113Wvn17a9asWfCd+K5Fif2ys7Otfv36wfti7RMt9mc/+sRp5BSnsZIK4wZMF/NldDfpb9LmS12MGr/aRTr9GlclF4PKMHFGhv/cxYhyRpMzQI2R6byff/O+MHovEhn3uci4Sy4ZtxCxOXbsWBA5L1682G699Va77bbbztLgwYOD1cX69et31nbK6YoVK4KpVGUZcbPeOIPMatasae3atbNBgwZZ//7949KwYcNs1KhRcb2HfXjeAb8F05SLU3+kyrhJZ9OnzRrjy133ujBhom7mbzPwrKqLvnCi83DQGQZOnzYjype5SJHzb0z+q664kXGfi4y75Eon47799tuDCuiBBx6IbEkv3nnnnWCNZ9KrO3bsCJaNDPXoo48GlRjpxnAb+3CuvJaolapE4ti4cWPQkCSqLY/wMBCmDefk5AQGThp/zZo1tnr16iLFfvHsyz4cd+rUqcHnzJo1q1hZhlQZN2DeRN5E0b9xMdqcB48AH8xCLRg46e/ofmtGhZNK56EipNn5N/3mxULGfS4y7pKrLI2baOTDjz6MW0uWLrU23rLfuGlTzNcLUllGPdEcPnw4uI9IK1Lhd+jQIRCpzGhFb2fZyQEDBgTLTYryBcZNQxIDK4+Exk0ZYkEVDPbuu+/+xJQTIY7HccPPKc/GXabIuM9Fxl1ylYVxP3vg2WAN5Fnz5tj0ebNs5vzZcalzj65Ws35t6zu4f8zX82uGH5vjz5k/1+65+x575dArkW9QNhA1U9FRyTFql7QiIhqi0qtbt66NGzfuk+2IfUm7vvzyy5GjiPICg9BogFGWyyMYN+t9ULYoR2vXrrU777zT7rjjjoSJ43HcyZMnB59DuZZxx0DGfS4y7pKrLIyblnrznKaWXbO+tWnUwnJdbRo1L1K52S2trf8Wudnx7d+m4ceqX72OdWjX3rZv3x75BuWLt956y+hP7NGjh73wwguRraK8I+OWcceNjPtc/jOMe4nlLd0VeVynm3eCxCNAOS6P9UyVcS9evsSa1Glo41sMsPUDF9nd/eba6r5zitS6gQtsw9Alds+A+TFfz6+1/ebb2v7zbWCjLta8SVPbsHlT5BuUL6joiLR5zOIrr5RtVkDEj4xbxh03Mu5zyWzjnmyNmrS2IbfcZrNuf8KmuckSISdKPIub4w4Ys9Q/p5Ubd/If67lg+SJrnd3cVveZY2/M3mOHp++wQ9MeTLiOzNhlR2futnkdx1nr5i3t3vs2RL5B+eLNN9+00aNHW8+ePe3555+PbBXlHRm3jDtuZNznksnGPWP6VKvfsKn1GJhnY6evtZFT7rARk1clTCOn3Bkct0u/SVa/UVObN3d20o170YolgXGv7DXdXpm+3Z6fstUOTN6ccB2cer+9mPeAzewwytq0aGXrN2+MfIPyhYw7PZFxy7jjRsZ9Lplq3MzDnD17llWrXsPq1G9izVp2sKYt2iVY7YPj1q6bbTVr1raFCxckfRR2aNy39ZxmL3tk/Kyb7L5JmxIuGgQvTN1mM9qPlHGLhCPjlnHHjYz7XDLXuN+z2bNmWvUataxBdgtr1baHtcztmmB1C45br2Ezq1mrji1cIONONTLu9ETGLeOOGxn3uWR0H/f0qdagUXPrPXS2TZi72cbOWGtjp9+TOM1YFxy3x6Bp3jhoZnNTmCqXcX+MjDs9kXHLuONGxn0u/zGD025jcNpOm7pkR8LEYDeOy6j1Rk1apmRwmoz7bGTc6YmMW8YdNzLuc8ls4868edwy7rORcacnMm4Zd9zIuM9Fxl1yybjLHhl3eiLjlnHHjYz7XGTcJZeMu+yRcacnMm4Zd9zIuM8lk417Wt7kwLgHj1thM1c8alMXb7cpix5KmKYu3hEct9+oRYFxz5mtPu5UI+NOTzZt2hQ8ZIQlfMsjMu5yhIz7XELjXuHGfSqvs51w835tshtugnTU9fb0LrZvdNkYd/1Gza2/G+vUxTs9St5qE+ZuKVBBJB1E5YXvF2rivG3BcXsPm+uf0yylxn17z+l2aPpD9tyULbZ/8n0JF6Z9MO9+m9leC7CIxLNu3b2Wm6uIW8YdBzLuc1l5zzprk5Ntd3RtYB/N7Grvzehqb3mEnCi97bI53e3l8W1tQOPq1nfwUDuUAuNmHveM6dOsStVaVq9xO2vVcZC1aN/fWrTrV6DadBpsnXuNsvbdhsV8/Rz58ThunUa5Vq1GbZs3b27SjXvhisWW69H9mr7RS54+lHCFS57O7zTOct24792sJU+TBQ9HWbp0afBcZirvUNRTy5YtsyVLlgRPOwu3z5w5M9iXSv/kyZORo5QNh15+OUh7L1y42ObOXxRo3oLFRapv/0FWq05969m7X8zXoxUc07V8+Qp7ePeu4NnsyUbGXY6QcZ/LnWvXWfNGDWxys2q2Z0gLe9i1Y1DzArVzcAt7ZESuPTI8N/h3rH2itdP1+LCWtqFXtnWoVcn6DRpir6bAuLkB7rlnrXXv3iPoS4t+VnNBatmyZfB4yMaNG8d8PZY4Lsfv1atX8GzdZC/AsuTWZda8YY5N7zDSHhq9yrYMX2H3DV+WcG0bcattG3mbjWrRx1o1b2kbt5TPh4xkgnE/9thj1q9fv+BZ49HltHXr1lavXj1r1KjRWdspb82bNw8M5ejRo5GjlA33b7vf2rdraw3r1rLWzbMjahyX2rSIvT2/2K9ZkwbWoF5tr0tvsWPHjkU+PXnIuMsRMu5z2bT5Pq+Ym1p21UrWuWEN6xSoZoHq3KiWdc+pF4h/x9onv7q4cutUtbpVb7YxY8bY0RTceBgoldrTT++1xx7d43ok8rdgrVi+1Jo3y7GRI4bFfP1ccUzXY3v8Wj+dkgrl9pW3W706da1RjXrWKSfXOjZpYx2SoI45H/+tU6WmNfNKZeu2bZFvUL7gsZ6hcafrYz151jjmzaNTd+/e/YlII2PmPLL0wQcf/GT7rl27gn33799vp0+fjhylbFhzzzrLadLIBnVtamvmDba75g6yVbMGFqnV84ba2kUjg7+xXo/WPQuG2MKJPa1Fdk3r13+Avfrq4cinJw8ZdzlCxn0uzz/3rBvWcpswZaqNnZxn46bk2fgp0wrU0DHjrV6TZtagaXMbPm5CzH3yKzju5Kk2bcYM27Zli7399tuRTy9fPPHEE9apUydbtGhRZEv549bbb7MGdetbbr1mNiS3tw1q09MGtu6RcA3243LspjUbWvOmzWzLtq2Rb1D+GD9+vPXp08eOHEl+JieVHD9+PHhcKQZSXrlzzVpr1aKpLZrUy47tWWxHHl5oL2+fl1CdeGyJPbkhz/p0amp9+w20QzLuABl3kkgH46ZPlkL6jn+/t9+JiH8XoOdfOGi9+/S1fgMG2suHXom5zzmKHPNdjw4+eP99wuHIp5cviGY6duxoc+fOjWwpfyxesdRaNWpmS7pNDp7i9eQt99rj49cmXHsnbLCnJ260KW2HBoPTNiR5cBoZEhp0x4+/bkePHLejr7n4W4QOvvCSDR401Dp36mqPPPxozH3OUeTYx44dD1LtH34Yf2VZEqiM3zx1yo765x1+7fVArx05oyNHT9ix4yfP0Y6dj1j7Dl1s2PDRduiVI+e8fvTYG2cdB3187OPB7/jOO28nvetm9d3rrHXLZjZvfI/AZF98cI49u3VWQvXqzgX28N2TrFfHHOs/YJC9IuMOkHEniXQw7uLCYJhBgwbZsGHDUjJIJJXs3Lkz6ENkIFB5hcFpbRq3sNV9Ztvrsx+xV6Y9ZC/lPZBwMejtyMxdNq/T2MjgtOQaN/fHho3rbfToMTZk0HDXCBs6eGSRGjRgmDXJbm7162Zbn579Y+6TXxwbDRs23G6//TY3ueR2cRw58prdeusyGzp0hA0YNCrQwMGji1S37v2tVp3G1qhxKzesETH3ya/+HNvPbezYsbZly6bAgJJJaNxzxnW3gw/Otefvn237Ns9MqGgQ7Fo90Xp2kHFHk0rj/rTrV65qrgauf7oudrE9Fp9z/cx1raumq3pEvO/Xri+54kbGXXpeffVV69+/vw0ePDglfbqpJB2MO1PncZ88ecpuueUWq1LjBqvf8npr2ukmy+lwc5Fq2rGytelR03J71rZmnarE3Ce/OHZ27o12c41rg0GFLzyf3L7xffsOWPduXa1ezX9Y93ZXW59O11ivDv7ZRahP53/Z4J432cAelTzavC7mPmepI++5xtq3uNLq1rzepkzNs7feSm63lIy75EoX4/6U63JXX9cG107Xba6Orv92xeJHrqauu12PuNa57nHNcNV38XrcyLhLj4y7bMlU437j9ZM2avhYq9/iRhu+pIZN39zAJq+rb5PXFq289Y1s2oZsm7LO3xPj9fyatqmBjb+zjjXpeL117dLdDuxL7mj0J57cbx07drYBXf5qe+7+h+2/70p7fN1VReqJe6+xvRuvs6c2XOf/v/qc1/PrCddzW660exf+zXKbXWejx061k6dk3CVBxn2GH7gGuha5ernauMa7bnXVcxFd5+cSV2fXWtcSV0tXY1dV1+9cX3HFjYy79Mi4y5aMNu5h4yyn3c02dUN9u/WZprb40RxbvCfxWrG3qc3dnm1t+txk3br2sP3PJNe4H3/igHXq1NXGDfiHHXv4anvv6WvsxKPXJlxvPHatfbjvGnt87ZXWNfd6GzUmT8ZdQmTcH5Pl+pPrLtdU19ddcJULQx7s+rmL/aIhEsesx7gqs6E0ZGVl/aFixYp758+fHzn15CLjTi9k3GdUFsY9evh4y2lf2aasr28rnm5qix7JsUUPJ17Ln3Ljfuhj4+7erWcKIu4D1rlzNxvV90p78f5r7PVHrrVDD12XcL2y/To76Qa+446rrHObG2zMuGky7hISGjfT8WbNmhUs0YrJ3nPPPQkTx+O44eeUR+MmMsZ4l7uItiu44Bcu/j/adbPry65oMO5Wroku+sQL6gsviPNc57s4qf/yiPsqj7j3KeIuOTLusiWjjXvEeGucW9nG31nPFu7Osdn3N7HZ2xKvBTtzbNrGRtayR+qN+6Ab93E37pfdaBOtQ27cb5SRcc8d38NecoM9+OAcO7B1VkL1ys759vCashtVPmXKFLv77ruDefUrV65MmDgex504cWK5jbh/6Mp2TXfRZ42hAtvpqx7rIrL+liuan7pIlW9ybXQNd3Vw/cP1BVdhEL2Taq/h6u7q55p98cUXH5s+fXrk1JOLjDu9kHGfUcoHp71xysaNvcWq17nJWnWrbl2G1LNOA10DEq8ug+tZuz61rUa9G6xnj1723HPJHZyWycZ915p11qZVM1s8ufcn87gP7ZifUL3x2BJ7akOe9e3czPqlyLjff//9INKuXbt2sIId8+lZ5IfFcBIljsdxWbGxTp06Ria4OEsmp8K4GRne3EXkjFETBcP3XIwWH+dq7/qOKxr6xdl/gQvzvsPFgLYRrmtcX3UVRDgYrpNrrmuZa+MFF1xwinV+U4GMO71IB+NeuHxxYNx39p4VrCX+ct4DdtANNtF6Zdp2e3X6DpvTcYy1ad7S7r0vuWuVnzp5ysaPv8UqV61k9ZtUtaZtaltO6+SIY2c3r2E3VbneK89e9nySR5WHxj12wJV2eOfV9vaT19jRh69NuI55g+D03mtsz91XWte2N9joFBj3PWvvtRbNm9rIvrm2cfkY27B0dLAiWiJ134qxdtuMQda2eQMbOGiwvXr4tcinJw8iX+qB6tWrB8vOtmjRIlhmNtHiuCyzXLNmTVu4cGGx5t2nwriJnEti3Ez3YroYBvx71x9dDV1TXHkuzLsgSMeTor/I9VvX7ypUqND0N7/5zQukJFKBjDu9SBfjZgGW23tMC+ZwPz95i+2fdF+RYrEWovMDMV6LpYNTttmLU++3Ge1GWusUGPcbJ07amFHjrUGzm23gzNo28Y5sG7uiUVI0YVW2jVxU3xq3rWQ9uve0Z/enJlU+ut+V9tKDHw9Me2XHdQnXqzuvs1OPX2u77rzKuqQo4t6wcaM1adzY6tSsau1a5VjbVk2sbcvEql3rHGuR08CqVrnJhg4dmpIV8kiVz5gxI1gnns9kUSYe7sK2RInjcVzq0uzs7ODf5T1VHvZxF5UqD/eLhii7i2uXi7R53GRlZV2uwWmlQ8Zdtiy7dbk1qFnXutRuZRPbDLbxrQbYuFb9i9SUDsNsRtfRNqnd0Jiv59ctrQbaLa0HWetqja1p4yZ235bNkW+QHMLBaU07VA5Gld+2L4mjyp9uavN2ZFtu39T0cT/99H7r0qWrNc++1iYNq2TTx9xkU0benHBNdc0ce5MN6329Nap3o02YmGdvJnke973rN1jTnCbWumk9GzWgk6ujjejXIaEaM7CTDeje2urXqW6Dhwyx11LyWOD3gtHkRMUEeps3b7Z77703GFCWKHE8jouJh4Pg0mVwGiPJw8FpN7liTQmLBVH3Yy7eGzdu3H/RdLDSIeMuW7Zt3WZ9e/exNq1aB0+JateuXVzKadIkSMk1b9Y85uvnyI/N8du0amXDhw6zJx5/IvINkkM4OK1J28o2cU09W/JYjptrE5u3PfHCvGdubWSteqXGuPft2x/UA1Ur/9NaNatquS2rWZsW1ZOitn7sxg0qWfWqlWzKlKn2VpKfCxAOTps1pps9t222Hdgy0/Zump5QHXxgjm2/c4L1aN+kTAan8ZdHl951113BFK5EieNxXAa/lffpYKtdpLi/5oIrXeF0sFiLsDCK/LMf//MTiMq7uu53MRc8bjSPu/TIuMuW14+/bnv37rVdj+y27Q/vtB2P7IpLo8aPsUY5jW3m3FkxXz9HfmyOv/uRh22/G8+pU6ci3yA5RBv3hNX1AnOd+1ATm/tg4sWUsBmb3bh7psa4n9p7wCPubtY192q7a+71tmHpDXb3gn8nXPcs/LdtWnaDzZ9wnbVo8m8bPyHPTr2ZXOO+y427jRv3wom97MjDi+zVXfPtxYfmJlTH9yy2x++dan06NdM87ihSYdxAWhyDXuwiUsZ0b3GxAEstF/3b9EVf4aLvG7O/wEUkTpo9x9XE1cc1zTXMRWMgbmTcpSeTjTsdng5WUph+wjOdH3roociW8gXG/ckCLOszbwGWjp262qQhf7d3nrrK7OBV9v4z1yRcH+y7xuzlq+zA5n9Yj3bX28gx0+yNk6mJuLUAS/GVLsZN9MwAs/4upnZFL3l6oQuzruOiD/x/XJ9xMc+7p2uFa72L5U7XuIa6GKiWPxovFBl36ckE4+bhKHx3BrnwzO5Q69evt1atWtmkSZPO2h6K/XlfOl7LFStWBCnwLVu2RLaULwLjzvAlTwd1+6s9vvYf9vzWK+2p9VcVqb0brrZ9911n+zZda3tjvJ5fezdcZQe3XWkbF//N2jbXkqelQcZ9NpgxDwfJ/5ARRpl/3sUDSDDtb7uIuFlh7Q8uou7wISMs1MJyp/H2h3+CjLv0ZIJx8/jO4cOHBw+Y4ElnoXikZ7Vq1SwnJ+es7aHYf9SoUfboo49GjpQ+LFu2LOizvu+++yJbyhd6yMh1kQeJnNHHDxm5OeohI7EUdQw9ZCRhyLjLETLu0pMJxr1r165gike3bt2CcwnFOY0YMSJ4LXp7KPbn9T179kSOlD6Ud+Pm/vhPfazn0GHjPTqeYuPG59nYcWhqoH4DRlidejmW06ytjRo96ZPtY9nPNdK3DR4y5qxj6bGeiYHfDcPGUBntzX2DycZaurSk4ngclwXBws+RccdAxl16MsG43377bXvttdfslVdescOHD38itnFOpMWjt4dif/ZJx+eQl3fjZuEJrsvx46/b0SPH7ehrLv4WoYMvvGSDBw21zp262iMPPxpzn3MUOfaxY8ftzTfftA8/jL+yLAlUxm+eOmVH/fMOv/Z6oNeOnNErrx61Fw4esueef8mef+HlT7Tpvm3Wuk17N6sh9vQzz571Gvu++NKr9urhY2cd6+NjHw9+x3feebtYC3qUhEw37saNGwf1NxEy3U3Lly8vUrfeeqvddtttRe7P6xx33LhxwefIuAtAxl16MnlwWiZT3o27NIwfP9769OmTkoU5kgGNwiVLlgRrVkcv0EF2h6UwmePLao/hdlK47Ms84GQbc1FkqnGz5Cmp6xo1agSmymyTc6ZMFiAycyxnStdbrNejxXFZfKVWrVq2YMGCcrfkablAxl16ZNzpSaYa91tvvWWjR48OKsoXXkhuX3WyePLJJ23YsGFBRd69e/ez1rLu27dv0CiJXuOaOoUZAhjL8ePHI0cpGzLVuDFQFkfhuoTXgvEQ8ahJkyZBg4trFOv1aHFcjs+Ym23btpW7JU/LBTLu0kOqeMCAATZkyBB7/fXXI1tFeSdTjZv0+pgxY4IK8ODBg5Gt6QXpehod+/btswMHDnyi5557zl588cXgvJ599tmzXmNfum6IDMuSTDVuYO2CQ4cOBdfm+eefD/4WJa4ZA1iZnUIfdqx9ohUel2tJOSgOMu4kkYnGTeFihDUtxNOnT0e2ivKOUuUiGWSycZcU1hzv3Llz0LhKJjLuJJHOxk0kQ2vwqaeesqeffjo4F/TAAw8E/TIUzB07dnyyPRSrerG/KtHyRbobN41Eos/85ZER/qQc27RpY5s2bTqrLLIvkWpxIxkRPzLuc2EcAv3byZ42KuNOErS4QuNOt+iUlA99hzyLtkuXLsF5IEyb/hvWvaZwhttD0a/D6mOrV68u1kALkVwYxYpx02+XjtBFwwAtDJpGY1je+Hf9+vWD5ybTRxxup8xSdpnah9GL5BBt3CxP+sIDs23/lpkJ1aEd82z3mvQwbuo8pndRNyZ72qiMO0m89NJLwcCDVD3/O5HQt8MoR1LipCJpfCBGs4aPt+Pf4fZQmD3TG4o70EIkl1WrVpXrJU+LgkFYTJ9hpHV0eUSURcokK96F21jMhbLLAC76EEVyuHPNWmvdoqktmtTLju1ZbEceXuhGOz+hOvHYEntqQ5716dTU+vYbaIdk3AEy7hLCRaJCwaBffvnlwOyihXkRITCQiwg23M6+vIdR2cWZt5dKODeyBMxZJs0fLeY4ovzbo1XWg2b+E6GhdOLEiaBsoeiyGK4CxfzS6O3hfsl+iEhp4dwoc4WVR8pr9Hb2ZZsyP8mDiLt508Y2fmCu7bzrFtt+x3i7//axRerBVeNtx10T7aFVt8R8PVq710ywexYMtfYt6lu//gMUcUeQcZcQ+s6Yf0laLpy6ES1SxswDbNiwofXu3fuT7fTJ8R6eC66R2SJRYF48KpApRSi6LGLaLOdKQzJ6O2nlfv36BY1MIYrLpk33WfPmTa1hnarWJbexdW6TbZ3aNC5S3do3td6dW1n39s1ivh6tLm0bW26z+la7RmUbOWKEHTlyNPLp5Q8ZdxJIhnETwVDxMdKa/rRohWk9lh9kPmC4nTnQVJpLly4NIiQhEgFZDqagMF0PRZdFujBIHzNVJXo7ZZeUcrqm0EXZ8uyBA7Zg4QIbOWq0DR/5sUaMGlOkOnTsYjVq1bHcdh1jvh6t4SP8uC7K74YN6+2tt8rvYEMZdxJItHGTvsO8SZcjoudoYcqkIE+ePHnOa+zPa0rjiURBefx42dBzy+Mbb7wRlDf+Rm8P9yO1LERx+eCD94NFcN5446TXd298LP5dhFauXGUtW7W2xUs8eInx+lkKjvlx+aWcluexMzLuJJDqwWlCCCHOhdkNDJbkYRuZhIw7Cci4hRCi7Fm3bl0wPZHZDpmEjDsJyLiFEKLskXGXHhm3EEKIlCHjLj0ybiGEECmD5WlZ6W7NmjWRLZmBjDsJyLiFEKLsIeLOzc1VxF0KZNxCCCESBmvLr1y50vLy8oJlZ+fMmXOWWJCqevXq1q1bt7O2s3ztrFmzbOfOnYEJphuZatwVXN9w/dz1G9dFrq+42B4Pn3dd6PqJ64uu81xxI+MWQojkwxLPLOzDin2kxHk4UbSYChYqejvPsWZ1PyLx8rocdGFkonFjzhe4mrqWue51TXHVdH3XVRSY9pWuOa6Zrv9zZbniRsYthBDJh8VSMBYeA8zjf4mgo/XII48Er/M3ejsr+G3fvj14hGt5XmilIPjOoXFnymM9v+5q7prrmuea5Voa+f/1rqJM+BeuCa4Trl2um12fccWNjFuIzIJlXnnmNo/uZNU4IcoaUv48bpZnwieTVBg3Ke3fupa7Zrt+5fqyi2h7paun64euglLfn3VVdt3hOuBa6LraRRQeN1lZWf9bsWLFp2XcQqQ/RDc83YyKcvLkyfbkk0+mZXpVpBc8de7IkSP26quvBn350WIbz6Yg5c/I+fyv8T7enwhSYdwYLFE1xjvEFfZpX+oaFdFVrlhGzDZMmi/He+90zXAVtH+BuHFf4ca9l6dyCSHSG9ZY56EqRDetW7cOntTHI0qFSCa7d+8OHhrFE/jCB/pEq3HjxsHAO54OGb2d/XnwVKL6vlNh3PRh13eRHm/lCo37x64mrjGuHBcD1/LDYLRBLqJyzHqki/T6ta7CjPt8F5/7R9eNrsoVKlTo/Ytf/OIQD90XQqQ3pCKpCGvXrh08PpdH6+opZyLZYNwMvKO8DRw48CzxlEjKJE/jGzJkyFmvsf/IkSPTyrgZPc6gtMmuhq7QuL/vquUa5+LDv+2KhnT6Na6xrgauH7m6uegjJwovrI/7U66Krh4u+tKJ1Lf96Ec/enPq1KmRUxdCpCP0bW/cuDGItCtVqmQ33XSTNWjQwJYtWxY8sS8dBzaJ9IBU99GjR+3w4cNB6ju/wifusU/0dvZnWzqlyi9xtXAxuKyei2gYiIhruMa7Ori+44rm767+Lt77LRd94J1cjCr/s6uwaWR8Bkb/D1ddV/Z555037JJLLnmVuYJCiPQE096/f38wRxizxrgrV64cRN1EOw8//HDwqEkhMplUGHeYEp/qauwKDfcHrjouIu42ruiIm306una66AP/m+sm1yLXZheRNAPe4u7nzsrK+hOD09THLUT6QkR9++23B/OD69SpY9WqVQv6FGvWrGnNmjUzusJeeeWVyN5CZCapMO5vukiJL3ARWYfG/VNXrmu0i6iYxVhC+CKdXS+4nnKtcWHY/P8N125Xe1dho9HPIjRujSoXIn05ceKETZkyJYiwMW3+Isy7SpUqQX8iC4AIkcmkwrg/7WJg2d0uouvwQ65wMUKcAWe/Z0MUmDsDyzDn3i4i7MEuzBsjZ1rZv13MD4/LuDWPW4j05+TJk0bWjNG7RNkYNsbNv+vVqxdMx2EBDyEymVQYN9DPjUmT6q7k+oOLVDhTxFq76O9GpM8ZlBb2g0fzVRdpc+aDM73sc664kXELkf6cPn3adu3aFYzQrV+/ftC/TaSNcffp08c2bNhgb7zxRmRvITKTVBk3a4tj2IwsX+e6z3WXizT5ZS5GmFd3NXJd7orVd03kztQwUu4sf1qsLyvjFiL9YcQ4S2recccdlpOTYzfeeGMwqpz+bh5owehdLcQiMp1UGTd8zfUvFwupTHTRh83ocFZG4zXMmNf/O7ItP0TY/3TVdvGgEqZ8xY2MW4jMgbWgecpU1apVg4ibx0QyRUyI/wRSadxA3zWRM3Ow+bCwf5q/pMdZszwcvBYLXmO/uPq1o5FxC5E5sIQkq6W1bNky6O9mwNq+ffsirwqR2aTauMsMGbcQmcN7771nTz31lI0ZMyYYSc6TqPSgEfGfgoxbCJGWYNQsc7p582Y7duxYZKsQmY+MWwiRtrCSGtG3EP9JyLiFEEKINELGLYQQQqQRMm4hhBAijZBxCyGEEGmEjFsIIYRII2TcQgghRBoh4xZCCCHSCBm3EEIIkUbIuIUQQog0QsYthBBCpBEybiGEECKNkHELIYQQaYSMWwghhEgjZNxCCCFEGiHjFkIIIdKIVBo3B/+p61rXTa7/c/3IVdCHftF1ieuvrn+5rnNd5fqV67OuYiHjFkIIkQmkyrizXL92dXOtdW13LXW1cl3kisWPXY1dc1zrXGtcd7kGun7v+rQrbmTcQgghMoFUGfd3XT1dC13DXL1cea5lrpquz7jyw3uIsJu6Oro6uIa4Jrl4/+WuuJFxCyGEyARSYdznu/7gusM13YUhwz9dy10DXKTQ2S8avkz+qPoCVx/Xna76bIgXGbcQQohMIBXG/SUXfdq3uvq6Krjgl67+rtGuf7vYryjo8yZVvspVhw3x4sb9Vxm3EEKIdCcVxv0DVyPXDFczV2jcDExr6BrrauH6pis/9I1j1tVdpMdnuzhOG9d/u+ImKyvr8ooVK+6dP39+5NSFEEKI9CMVxk0aHMOe6GrgClPi33PRvz3O1d71bVd+SJX/r2uQa71rv2ux6xrX51wFcZ7rC67vu/j8SypUqFDv0ksvfX7OnDmRUxdCCCHSj1QY989czV0TXPRLh8ZNX3cN13gXA8++48oP+37LdZmLPvHOrjGuLq7fugriUy7e09ZFv/p819oLL7zwZF5eXuTUhRBCiPQjFcZNSpxpXdNcOa4wVf5DVz0XqXKmhWHQRfFlF42A1S5GmxcEJ0IfOqn4wS760ZdcdNFFx6dNmxY5dSGEECL9SIVxf9VVzbXE1d0VGjd91F1dmGpVF6ntaEh3xwKz3+Niellh0D9OOp2FXL50/vnn/+uyyy7bP3fu3MipCyGEEOlHKoybg/7ZxQIqk10YKfzFFc7rZjW0/HzelX+kOe8lrb7b1YkN8ZKVlVVRg9OEEEKkO6kwbrjQRWTNwDJGhDOVC8Ne6WLAGv3bP3f9xsXocqLli103uxjARkRexZXrwvwZ6HalK240j1sIIUQmkCrjZm1x1iYf7trk2uFiQRameDHqm9HfmDn91pe6WEntf1yMJsfc73XdHRGD0zBt+rvjRsYthBAiE0iVcQP9zVe4GKDG9C9GlJMiJ7omBc4Spn90YeJsIwq/2sUAMwakYer8mwZAPIu1nIWMWwghRCaQSuMuU2TcQgghMgEZtxBCCJFGyLiFEEKINELGLYQQQqQRMm4hhBAijZBxCyGEEGmEjFsIIYRII2TcQgghRBoh4xZCCCHSCBm3EEIIkUbIuIUQQog0QsYthBBCpBEyblEsPvzwQ/voo48i/xNCCJFqZNwibk6dOmXbt2+3Xbt22dtvvx3ZKoQQIpXIuEVcnD592vbs2WMjRoywMWPG2JNPPmnvvfde5FUhhBCpQsYt4uLgwYPGb9esWTNr2bKlLVq0yA4dOhR5VQghRKqQcYu4ePDBB61r165WtWpVq1atmvXs2dN2794deVUIIUSqkHGLQmEw2okTJ2zp0qXWsGFDq1SpUqDGjRvb7bffbidPntRgNSGESCEyblEoDEIj2h4yZIjVrl3bKleubDfffLPVrVs36O/esWOHvfPOO5G9hRBCJBsZtyiUI0eOWF5enmVnZ1vNmjWtevXqgfg3UffMmTPt+PHjkb2FEEIkm1Qa93muL7p+4LrQ9W3X51xsjwVf5suu77p+5Pqh63uuL7kKek+ByLhLxiuvvGLDhw8P+rYx7Bo1agTi3/R1M8L8tddei+wthBAi2aTKuDFaTLeua45rpWu0q5Lrm65YYNa1XGNdi1y8b7KrkYtjFQsZd8k4duyYzZkzJxhNXqtWrcCsEf9u0aKFzZ8/315//fXI3kIIIZJNqoz7q64GrlmuFRHd5pruutp1vis/v3Z1cOW55rlmu253TXPVcBXLvGXcJYP+64cffthGjRoV9HHTvx32cY8bN84effRRe/fddyN7CyGESDapMG6ibUyYqHmu6wrX910NXatcXV2kw/Onv3/i+qvrf1y8Tqr83y4icMz7n664ycrK+rMb99My7uLBiPE333zTbrvttqCfOxxV3rRpU1u9enUweE2jyoUQInWkwrjpx8Zk73KNcIXR9W9dt7hGuf7mYr9ovuAiUo+GtHpn1xpXYzbEixv37ytWrLiX1K4oPjt37rRevXp90s/dr1+/INoWQgiRWlJh3N9xhX3bbVwVXEBE3cxFX3e26+uuouA93VzLXPR/FwSf8Q3Xb1xE7VdWqFChwy9/+cuXZs2aFTl1URwYpLZs2TJr1aqV5ebmBhG4BqUJIUTqSYVxY7ZNXeHAstC4SZfXdo1ztXUxyrwwiMjp257iGur6k6sgPuWq6MLkF7sYDLflggsueHPq1KmRUxfF4YMPPrCnnnrKJkyYYFOmTLH9+/cH24QQQqSWVBj3Ja4Wrgmueq4wVU6/dXXXeFdHF5F5QWS5fu+a4Vrqut5FRF0Q7E+D4QYXn03DYMLPfvaz12bMmBE5dVFc6M9+4oknAgPnoSNCCCFSTyqM+8euHBeRMinx6Ii7jouIO9dVUMTNoDX6w/u5GIlOFF2YycdEg9OEEEJkAqkw7m+5SIkzpYsPCY37YlcrF33cTBX7misWzOdm5PlqV4/I/4uNG/cfNThNCCFEupMK4/6M6xoXI8HHuMJU+eUuonBGlf+RDTFglTXMnfnf3V0XuEqE5nELIYTIBFJh3PALF3O4F7iudP3ShSHf4WrvIm3OqHKicwahkR6nD5spX9td61xVXD91EamzZCpLn8aNjFsIIUQmkCrjZs1xRoSzUhop77WuO10MWPuDC+Ou7GLwGibPqPD/c93qOul63sWgNAanLXQxH7ywUeXnIOMWQgiRCaTKuIFomqgZs6a/m8FmLHf6eRfRNou03Owiqsa4L3P1crFIC6ulkVIn1c5gNtLmpNrjRsYthBAiE0ilccOnXUTfrIjGk8LCD2TAGn3hn3UxlYtUOa+xehr7IVLjvPcrkf9j7nEj4xZCCJEJpNq4ywwZtxBCiExAxi2EEEKkETJuIYQQIo2QcQshhBBphIxbCCGESCNk3EIIIUQaIeMWQggh0ggZtxBCCJFGyLiFEEKINELGLYQQQqQRMm4hhBAijZBxCyGEEGmEjFsIIYRII2TcQgghRBoh4xZCCCHSCBm3EEIIkUbIuIUQQog0QsYthBBCpBEybiGEECKNkHELIYQQaUQqjfuLrr+6urgGuZq6Krq+4IrFZ1y/cNVxDXD1dP3L9W1XBVexkHELIYTIBFJl3J9zXeUa49rgetB1l2uw63LXea78fMV1rWuS6wXXS64JrstcWa5iIeMWQgiRCaTKuC9yTXQtdNV3Xefq7VrlauH6sis/bLvUdbML817vGuX6g+tTrmLhxv1XGbcQQoh0JxXGjcn+zbXGRcT8WRf8yTXHNdz1O1d+MyZV/iUXKXYib6L1Xq4rXJ92FYusrKzfV6xYce/8+fMjpy6EEEKkH6kw7q+7argWuTq7wv7pn7k6uEa7arm+6iqIv7jGufq44jFuUu8Y/9dc33V9zyPuKr/97W+fnTNnTuTUhRBCiPQjFcZ9oauJKy/yNzTuH7jqusa62ri+5SoIjPsWV19XPMbNiZBmJw3P+6a57vjJT35yIi8vL3LqQgghRPqRCuO+xNXcRZq8nut8FxAJE4mPdxF5f8dVEKTaS2LcfC7Hp9GwSsYthBAi3UmFcV/sauZigFkDVxhxf89FipwUOB/ONK+CKK5xh6ly0u80CL4bpsrnzp0bOXUhhBAi/UiFcX/fhWHPdJG6Do37Ale2i0FnGPs3XQVRXOM+Bw1OE0IIkQmkwrgZFX6ja6VroCucs/1r11AXg9MYNV7YFC8WamEqWDfXL9lQXDQdTAghRCaQCuMmwv69C+Oe5fqJiwVUbnLd5iKK/nFkG/tGL8bCv+kTZ/GWyS6Mn2lkn3eFkXtcaAEWIYQQmUAqjBvov+7oYgGWKS5Gks93MUXsBhcD1VgOlYVZfuoiFY4xE5Xnula7Drj2uDB7lkAlZR43Mm4hhBCZQKqMm2ia0eV8yJ2ura65rkYupoFh3DVd9HmzpCmLtGDc/+ci0t7l2uF6wPWQ61YX65bHjYxbCCFEJpAq4wbMm7nbRMp/djFdC9MmHU6EzWsMWGONctLjbGfxlv9xYeB/jIh/c4zCpo+dg4xbCCFEJpBK4y5TZNxCCCEyARm3EEIIkUbIuIUQQog0QsYthBBCpBEybiGEECKNkHELIYQQaYSMWwghhEgjZNxJ5MMPP7SPPvoo8j8hhBCi9Mi4k8SxY8fs/vvvtz179th7770X2SqEEEKUDhl3EnjnnXds27ZtNmjQIJs8ebI9++yz9v7770deFUIIIUqOjDsJPPPMM4FhN2nSxNq2bWsrV660o0ePRl4VQgghSo6MO8HQr7127Vpr06aNValSxapXr26DBw+2p59+OrKHEEIIUXJk3Ankgw8+sFdeecWmTZtmtWrVsptuusluvPFGa9Wqld17771BCl2D1YQQQpQGGXcCef311wOD7tWrVxBpE3HffPPN1rBhQ7vllluCH1t93UIIIUqDjDuBPPfcczZq1CirV6+e1ahRIzBvVLNmTWvWrJktW7YsiLqFEEKIkiLjTiD0YxNtV65cOTBszBtVrVo1MO+ZM2faW2+9FdlbCCGEKD4y7gRy8OBBmzRpkjVu3Dgwasy7WrVqVrt27WB0+apVq+zdd9+N7C2EEEIUHxl3Ajl16lSw6MqAAQMC0ybyZoBadna2TZ8+3fbv3x8MYBNCCCFKiow7gTBinBXT5syZY3Xq1AlMu1KlSkG0vWXLFpm2EEKIUiPjTgKbNm2yTp06BVE3aXIGrB04cCDyqhBCCFFyZNxJ4IUXXgii7ubNm1uXLl1s3bp1duLEicirQgghRMmRcScB5mrv3r3bxo4da3PnzrWXX345WFFNCCGEKC0y7iRx8uRJe+yxxzQgTQghREL5jzLuihUr7lu+fHnk1IUQQoj0g8W+rr766mfd2tq6Mtq4//773/9+/8KFCyOnLoQQQqQfe/fuJeJ+wa2tvSujjfuq73//+wdZEGXYsGGnhw8f/o7/fTcZ4tiut0eOHHnK9Wa4Lf9+6aTIOb0TnlP4/1j7ppsi55JR1wuF12jEiBFvcW78DbfF2j+dFJ4H14tzy5TzQpFzUXlMI4XnEFUe307WeXFsphhfcMEFp93ahro+HZhchvJ717Lzzjtvh+t21wrXrUkSx77H9bhrl2ulK9Z+6STO6S7Xo649rjsi22Ltm27iPNa7nnQ9FNmWSbrfxbltjNqWCeK+etjFfbbGlUnlMdPqj2jd53rKtTVqWyboNtd2F/fava5klcflrnvdz7a7Ork+5cpYvuK6zPW/kb//4/ptksSxq7pWuSa7/uCKtV86iXO61rXYNd/198i2WPummziPRq41ruGRbZmkfq57XK2itmWCuJdnuG513ejKpPJI/bHSNdX1R1es/dJVDKiiPPaI2pYJ+p1rjGu1q64rWeWR41Z0/dn1U1cFl0gQP3bNdfUK/pcZfNk10TXa9Rk2ZBCXu5a4Wgb/yyzquZa5aGxlGoNc013fDf6XOVB/zHH1Df6XWVznWuGqFvwvs6DPeZHr18H/RNrxSxcXcKArUwYPfM81zYV5f40NGcT/uW5zdQj+l1nkuIje/hn8L3P4nGuEiwbyRWzIIKg/FroGuzItFXqTi2wkDcpMo5uLRskVwf9E2kE6Y7mLwQOfZUMG8CPXLBfpu2+zIYP4m+sOV5fgf5lFC9ddLtLJmcSXXGNdGNwlbMggqD/IktAwoYGSSRBpk06meyqTIGVNhpVG8p/YINKP/3aNc3V0ZUpamXTkEFd/19fZkEHQQmY8QuPgf5lFLReNrX8E/8scvuDq7hrlIrWcSVB/0Chh8FGmNPxDSJXnuSoH/8scMG4ayWQkGUcl0pDvuKq7rnZlsSEDoI+bNNe/XVSamcRPXLVdDHjKNGiUMFgGM8gkmAZD+p+BXN9gQwZB/UFkeo0r0+bp/spFecw0czvP9VcXDWWykyINoVL5vuubLi5oJkADhKibSiVTGiMhpCN/4Mq0vnv4quuHrkxrbBHh0GXD2ItM6wem/uC8vuXKtFHDdHFwrxEIZBo0IKn3My1LIoQQQgghhBBCCCGEEEKI9IA+M/phLnDF6q+gj5c+KF4P+w7Z9kVXcfo36H9kKgvTP1gEhPmb9Isnsw+Z73uhi+9/PhvyQX8v50VfTbgOLn/pm4qnL/HzLgZnMAglXKXuN65w1R/6yJPR788x6aNmoFlBg5X4vTl3fmPOnfdwvly3WL9FQTBgiPLBObFiEufJKkacezIIxxcwejpWX3XY38u5sUogcD6cF9+pqN+b1ym39IVf6uJ8ODf+/TMXswiK8/vEA8ejD5frFX7n/HAdOSc+n+/IeXL+qCR9vxyHcsm873h+l5IS1h9896LqD64RFKf+4LfjN7vYxbUKRV3CfZpMwvqD+iFWmeB+4v4vaf3BPpSLn7vCe4t6g2PG8/6SQlkoqv7gN+fc+X6cO+8pTv1BmeUzGCjKMtzcX5ST4niGKAQKHXN6mf5EhZwfCiGjkFlpi4oAuBGvd1HY4oGLVck1xcWcb+Y2slpSExc3ZLIqFRoIzA9l6cFYRkOlxnkx8jNckeoXLkaTU6iLgoq+mYsVrVjUZKmLpVI3RcT8zWSMlOWmZq7yLa6Cppr8fy7Om9HI/P68h5HkTFHB1OOBCpYGVmcX53enizngLJaRrPnEGA7XhFXruH754TwY8Z/rYjlEoIJgmVrOr6hKhde5biwgsc51t4uFJJgjzepkTCVLdOVC2aOMjXddyYYYXOXiejHPnt+d97ACHN+HCrM4ULk2cHG9mGpFwyRZI7bD+oN1HPhd80P9wejj6PqDe436I9b1zQ+/A0uhsrIaZfB2F4uaMBXpBle8ZbkkYKQsDcx1idWIpI5gWhQLrFAnAiYcb/3B71DFNcHFfcW8aJa17ekiAIjHIEsCZYHvSP3B58eC35zz/peL8sd7mLNN/RHPwFbeQ9nl3FhrnGWWWfQp09YhKDO42Ra4+GEpdPlhbjZrxXLBiFKAViHzZRsG/yscRlRiIlSKLLVJ5cU6t8xvZOEFCn4sU00EVOYYKPOWqQzzQ+TGPn9xhSM/KcgYMd+5KPg9bnYxx5YbHEPj/B52HXOxRnGszy0tGEtrFzcE63LHghuEypHKhwqA79HVxW9PKzoeaC2z0MJMFzc584g5P27AeCqmkkAFyM2+2cV1yQ8teaZ9UaHQ6AOiOdYSiGc1OIyfCIBz2ueiDGI6A1w0wjCTMHpKFJQt1lF/0MWUrlgQkXC9QnMj4uGe4XsVd30EGgeYwKsuzC4ZjZEQGvus6U8DiEZvfvjurNYXXX9gStQf8SxMggFQhrk2w1zcZzTqeD9lkUZcoq9XCFNcN7oIOGI1fKg/mMbG1Kiw/qAhTf0Rz3RLAgdMn3qDcxrp4r0s/sS9SplIBlwT6g3qD+qRWIT1B8EZ9Qf3HQ00GoJFLUpFIEaDjXLH/o9ExH0dT70q4oDCQ8GkxccNT5qGSpkKlJudC0YURNoXg6U1Twv6cRfLgpLSJAVSUNqKYxEdsS8PQ+c4wM28zUWjIV4jKS5ELLTOaSRgQqR++L58HkbGzUghJF1EBUHrncpyr4u1eNmfVnFBlR6/Dceg4uBm4PfBVKhcqDBruJIBn8UCKhtcRI5EPZwXBsY5hGktvjsGwL+5zrTmd7i4IdmXNHqsCon3c058fwyASoTjsJ1zpDwkq7KkfGCka12YHJV9WMb4bL4D34VzoywSCVHBUglxfhgfZZjfgeuTH743lRGZGMybyAI4blhBJRruDbIWXK+mLs6Fc+J78hqfzblwTvyf8+Q78mQkjAMT4HrxuxfWEOT78/vRkHzAxefxW2IsHDMZcH/TMCa6J2vAOXFulMmw/iBCi64/KFePuaLrD4yP3yE/nC/vQ/ybfbiGZPD4fWhQUh6SAb8b5Z/vSVATXX9w3+SvP/geLP1M/UEjkn25prwWC+pYgiDuTfZBNIRoLFP+k7VIEr9ftovyQVnJX39wzfgu0fUHr5OZov4g08G+4e+QH64R7+H8KMfNXQQMZE2o92NdZ1FMuCD8qJgo6SciF8yUFiA/MoWSViRpbVJuREEY/euu512kvGkJc9PGqvQoiLTU5rmIrsOKhwJLVEWKEgNJBnx/Iqr1LsyU7010QCRMi5LCx3lhEFT4VAZkHt52UUBp/VKwiRDihRQ2vyGFlMguGXDj1XFx42FWVM600me7uNmpTIhSaFXTGKPlzs1DZfmmi+iIyhYT4ebMD9eIc+a6EdkQLaUKvntv1/0unohFlE/ZoWyS9se8yJJwPqTKeSId3TxEl4h18ynPRGKxGlz8dvw2/GZEbGHUnkwwKyKbLS7KO2WR+4byhYlxj2HO7EOZpbLjtz/g4j6jEYhBkW4vLDVMRUmjjIqf8sDa5n1cGFCsVG8iwMy4RtH1B/cY1yBW/UH2bpLruCu6/qDxFSs1XFAlT6TLZ3Ke8aRuSwKpYbq/uM9o6IX1B78v9QeNFO43FpCh/uDeZ8ld6o+dLsovdU1BkXPY2M8Px9ztosGcDLgH6P6MVX+w3j+NLOpn6g/qdeoC6opHXdH1B1kQylwswiwfn8W1ZRVKfjcZd4KgxUxEStqQVDZpG254Lg6VBzcIlTdmTgVOqgNTf9lF1E36g4qWyiGWcVPRcvEp+BRkjknkTWGh4qrvogAnA74TLVe+JzcdqShajVSEpKi44Si4VDwYAMZAH/xRFyl2Kh++a6wUYCyoVDkWUT7HptJKBqR7aTGTfqLy4rwwISoNokjSyGQ5+D/fn4qDtORDrtdc4drQ/Pax0l5cDxoxVKhEEFS6GAyZFgwmWecFfB+MmPIY9qdTTng8ItkQKgG+O9eNBhepbcofJvesi7JMeplrGatc8dvxHsoDqWvKIefFcQuqhEoLpsmSwE+6aETymZgX9xiGzD1Gvybny3XlenH9qCi5z7gf+U0oU4VFl5R3ygKVL+dE+eX6JdO4afhTP0TXH5gx54bxcG781jSouCZkOLhHOK8nXNH1RyzjDiETgZnwG5C9oIFAJIwBJasbgEYG5Y7vSbnit6V+oJ+de4fyR31CfUj9Qf3IvRXWH6SJ6SdmnEi8kHmgAUemJVlP8OMeYAwE9QcNZK5HWH9g4DT++A5kUfj+lEf2536h/uA34B5kW5hBLQzqf8ovjUjqDxl3AiDi4ELsd7VxhSMBiTS58akEKahcUKJtWlBEM/TjctNhzFQmbI8FZk5KhdQzETbv47OIaKlUuBljGX4ioDKm5UuBo9Lg3GjxYUhUntyIRNgUKn4HKgAqUIye1iT7U2GEWYLCoDCS8uJGptIiakpWASU9xbXCqBgMR2uf60Clxg1IfyqVGjceNz8RH+kwKk9SqFSSnBuVeazviOFRIVJZhX1uGCXHI6piHECysiQYNxX9Cy5a6VQMRDYYGedGJoMoCJNggA3ljmtKA4bfIkyTF1SZh9kEKiuuMyn2sMFDY47UfKKvG78z58I5Ydg0ljlPxohg3JwT5sx9RlRNxUpjkUGcNDypODkn0o+x4PtyPWlgEQlxn/J+7i8aO/w+yTI3yjxmRcOJRiLlkGiULhyMK6w/iOYod1wvGoXx1h8hpNO5Plx3PotGKAbO5yfrPiNbRT3FZ2Fm/MYYD/UHov7gGlGXkFnkNybCplyRXSxO/QHcd3wOZYL7jPorGfB9iKapP7iXeDRnQfUH+3EONGrJFlGXMoCysPojGl7nPGTcCQbDosILK/QQLg6VDTfKVheVePgkGF6jMPN6UXBD0j9EQyCMuDEdWmxUVqRgKBjJgAJDi5LCGaaEKWwUUFrJVNi0jCmoVPiAQZCmonIpDpgjLUsqKUwgHIiTDKjYaRGT+qZiDCH1T4VBBEQajPPj9+VGpVLge7Gdyq4wOD6VJP17jLymYmI9eqIMriHXjXMtLEIqKRg15kbFznUKoduBSpG0OeWRlCWNMSCiIULhvIuCRiJlgfEPnA/C8DhHjsn1LyyqLQmUDcoY14vrFkIDmQYtvymNWhpHNV3A70BmCBX1fbh/+K34DCJtrh8NNRoEbGPcRay+yERAWaL+oEKPfg46dUl0/YERUGkDr1F/RJfdouAcacDQaKRRgLnR+MLoON9kQBmnQUjDhN8TSG2H9QfGRv3BeXLvAXUb9UdJHixCOabhRTngPJM19oeygCFTHmnYhUbKOdAFRcM5rD8IYNif+oNyyn1WnO4l7jeyLjLuBMNFIKIiTRed0mE7hZDokZQKFzM0bvoYiWTpqwuhcsKgGUnISGtME/OiJYp5kEKjwIctf/q7MDlMgPclwwRoMZPq4iYPP5eGBCZAgaWxgrGTqqOvDjq59rioAEOILukX5by5IYlo8qeYOU8qYSILKv/C+iJLC+fADUWfaXQ6jQoeM6OS5JqRTcCUuOn4PvzWGAQVIGDoXCPSlww4obHCdaHCIDVOBcI1im7EcG6UCQyI/RJ9E2JYVIoMPIpuSFJxEqFiZKSQMfCw753sBufFbx9GpfzlmnAMvj/dBxglvx3nnT/LQ1RKdMs5875EgunQ6OA7RjdGKFekW+mG4pz4bH53oDzS5YI5EG0C353UNJUf/alkHDgnZobQsKZSJQrFzEhx0vDiGB1cXPOCIvbSgHHTIOR7ErmFsJ0yEtYfNKpC46Yip/6g8R6Sv/7gXiMzUVA2jnsQQ6WsJCv7Q0OE70/0G/ZFh/UH2QzqDoQhcV2ALhHqD8aghMRTf5A1I9vH/cbxwoZCMqChQ51M/RHdkKT+4J6iLHHNOHe6Xag7eY0uEN5DlhRi1R90Q0UHYjLuJIFBc0Go5MMLApg4NzyGvssVbdxcXLaRLgqhtUb/HJUnLWzSsrRYKaSkxIhoKLwhRLhh9Ea/OTdEosG4MQC+e9jHRyGkkqYhQUVKi5oCFRo3FR+VaBj5AN+bTAFdCtyoRIThHOIQPovzoSLBLDDLZMFvRcuY70J6MoS+Z7oxuPFI8ZHGizZuzI5zppIAtnONuI7cpEQPNFwwAyoZukpIB4YVLmA0lBd+DyragirWkoJxk2Llu/DdQqgYqWy4BkQ00cZNZUGFQtkLI0sqRq4hhnGfC2Mhui4ou0NFSWaG3yz6PkgEfCaVMmUtukIn/UiXBPcA55TfuLn3+N78JkD/Zzj4kb5ysiH0M1I+KePPuWiM8hrGSD8y/a00Xjn3WAMRSwsGze9O+Ym+v0nV05AN649o46ZssS264U99EF1/cJ0x8ILuI9LxNEooB6FpJhqMm9+Y+yksN9QfnAf1B+WKa0pmI/wO3D/UH1zXEBrD0fUHUTVZkBDKKoZPhEs5CaP3ZBEaN9+FaxRC/YH5cq2oP/CEaOOmnHKfhQ00rg31HnU715/fgwFo+a8H+xAo8Vo4i0OUEoybAkVqMkw9Aq15KnSicdImFN7wxiN6oVVJ4Q3BGHmdigTzY2QkNy8DPDA0CkN0BEVrms+lsiRiovWWaGjp0YdJ5cHnQdgXiCmRxsPYSSeGxk0ajj6q6FQXFSyVDVEuNyDReLh/CJUONwKRFTdAog0tGm48Il+mnWCsoVlhpHw/GkpU+Jw3Nyg3GOdNYwrjjk51UQFSQZJdoaFGpoSKhO1UJlQy0X1tpNCJenmN3yAZETcmxECu6HUC6J4hyiGbwDWLTpUTAWFYlLMQfiO2Y5R8V1KDVBpETrHSxvwm/GZUQMUZTBQPRJOkhZ92RY8UpsFBZcZvjLkyPiJsMFL5UXFyDcNUOb81/fN0WxBR02ij0Uv5pJFDmWA715HGT9gw5T7mPgznGicSjJt7mPqDSD+ECIwKPaw/uG40mIEGFxEdUVgI9QeBQVh/UG4xPLIEYaM7Gq4tJkLUnaxuKX5TUvqUi/CeoQHMvR5df5AqD82K60v9QQM3hAYT9QfnxP2JqYf78xpRL6aIaUffm8mC8s9nUn8QaIRdDdQfNDzC+gNR54XGTR83jarohXb4d1h/cJ/hDfkHrzJwj6wm1zUMGkQpIS1Ieuawi4qRygTTplWPKVAZcGNy0cI+LCoBWqJEXkTUvCeMCvKDYXJRSadh9NzcvJ9CTMVEPxUVTzLgZqH1iwlg1rRyGV1NJUKFSb87ERaFN0yP0sLEgDFzGiK0Lgur8EjxM7CDFiVRE5+TbLjRqKAPuUjvUhFiStwYnBuv8btiQvwbs+Icwsqc34AKn3MuKNNBhUn0zjUmI8E1o+KlwiIypGJKRuqVioxzOOLC0DgvKlCiMwbOUOHwnWg8UGFgZlQGYX8w15xsSJhezg+VEBkFTAJxjWkUcFxSy6RvCyrLJQXjpnxwTlT2NGD5PYnUaKRwf3CuRFxcG8oUGQBMj/uM35rfgco+3gYu0S+/F+WA80vGtQKMht+dqXjc3xgqph1df3DONBpJg0PYLYFZFVV/YJRcT+oerhXi3xgMvxdls6AsSmmhwUqA8pSLeoHvQcOCICa6/uCeCM2M+5/6g4ZaUfUH50ZDmEYPdQdlkPdQLqmrEl0OQzBuyhz1B+ULs81ff3DtqD+IyCm/iHqSxhJBWVH1B9CVxn78VjRK8RCuG0ZOnSlKAcZK6pfCyY9L1ELrH2Gu3FRUmqSkQuPmPRRMbj5uHi52mLbMDxeWCIaLR0FAFBbSXFQqpFHCFl+ioVLgxsK8qSToS6QfkIqEwkpFggnwPcIbjxuHG5PvyLkRFYR9wrEgmqUgUqipnIjykw2/KRUI6axw4A/ZC0yZ/nxuQioEtnETUnHwHqI5tnHdqGyJ2AqrHPhNiBBouPEerh2/HREdFXYy+qqI9mlAMgUnLFu0/InaqFgwJLIafCeMG5PjHKgQaAgionH6kmNF1lTyNB655pRBygeiMUJUwLWM9b7SQKXHdcAESGNTvmgsk1rE7LjHGKvA/YdxU6b4npgF35HfnciSCjNek6Ixw31LgwEjKCjlXFpoTBCh5a8/KC9h/UHEzzUJjZv6g4Yx+3GNmbkQne2LhoYcZZlywL6UBf5SDikPROXJym7RwODzwvqDc6AcUvYoQ5wPqX3ufTJUgFGRXQzrD7IOBdUfNHJosNGlgSi7nBd/MbmCfpPSQn3Lb0r9sc3Fb0v5ov7gWlJ/kKmirsC4ibapP+jGYT+uLeWXMl1Y9wt1O78V8/Vfch10MSOAepIyKUoBrT5alvSZUjFQmVOB8X9SJ0RrGCCp4zDdTOudG5Ibk6iBVjWFsKAbiCiB1irpSo5NZcJFxyST1VoG+s2IVhhpzblRudOAINVNZU9Kh+wCjY4wvUNKmRuSAkvlgkGSDiwIbgIiOBoC3GjJHE0ewu9JS57vxjVAmBlpfiJOjAJjxbyoSIgyuTb8Hpgd+5GWoz8rf1orGip7+nv57bhmNNa44SkXiTa3ENKiVJicE9ELZYZrRrmkS4WyR1ni3OiK4byoVDAqUutEYFxnIlq254ffgso+3Jc0J2WYz6FRkIzz4ntwf/A7YsbcW/z+fE/uLe4xvj8pcM6R70CDhGtIY4t9o69tPBCxsz/3NuaarMYxlToZkbD+oC7gHuee4/pwblwLRkmH9xHXkPOMrj+4prHqDxqdVPIcn/uR/blulA0CgmQMag3hXo5Vf5DqxrC4d8guUH+EA+SoPwhwqN/4vpSzgtLfRKxM/wvvR9LsRPHcZzRKqGOTAfUH5Y36g1Q414HP5XtwLpQxrhX3GL99rPqD34GMXGH1B3UH+5J9oYGK+DfnRtkQCYIIiguE4o2mirN/SY6fKKI/Ox6K811TfS75Cb9rvN8j3vMKCY+PUk1xv2s8+/Na9DkV5/iJoLifWRbfsSRE/6aJPLfo48azfzKI/g7xEL1/Qd+V7dGvRb+nsPclmvBz4/28ePcP9wv3zf9/IYQQQgghhBBCCCGEEEIIIYQQQgghhBBCCCGEEEIIIYQQQgghhBBCCCGEEEIIIYQQQgghhCi//L//9/8D9kymanz2NNsAAAAASUVORK5CYII=;" parent="1" vertex="1">
          <mxGeometry x="232" y="259" width="182.25" height="152" as="geometry" />
        </mxCell>
        <mxCell id="jhgVOvy4fzAntEZaRrQU-27" value="" style="shape=image;verticalLabelPosition=bottom;labelBackgroundColor=default;verticalAlign=top;aspect=fixed;imageAspect=0;image=data:image/png,iVBORw0KGgoAAAANSUhEUgAAAe4AAAGdCAYAAADUoZA5AAAAAXNSR0IArs4c6QAAAARnQU1BAACxjwv8YQUAAAAJcEhZcwAAFxEAABcRAcom8z8AAHexSURBVHhe7Z0HmFTl2f7/4n7pvZmqJiYxMX6phuRLYhI1isYoIL2XLfTee5depSO9Y8FCFVAEFFEEu4CIimLDjhpL4vN/fsc5MOzOMrPszOzMeP+u674Wzpw5c+p7v8/zlvP/hBBCCCGEEEIIIYQQQgghhBBCCCGEEEIIIYQQQgghhBBCCCGEEEIIIYQQQgghhBBCCCGEEEIIIYQQQgjxieZzrj+4Cl1DXWNcI129XPVdv3Cd6oJzXNVcl7l+5DrFFU0l1/+52rn+zoIIP3TVcfVxjXaNjfwd4Grk+qmr+LZCPuWq7Grtuto13jXC1cH1F9cXXcX5nau3q5/rCtenXcX5mquei3U6un7iEkIIITIWTPbLrn+6JrrWu3a6HnDd67rdNd/V0nWGCwOt4VrkmuK6xMU2ovkfVzfX064hLIhwqesG1zOuZ138xv2uXa61ri6un7vyXNF8xVXFNc51h2u36xEX3+f/U101Xd9yRRs/+/yBy1zs75mu6M/Z79+7NrpY55DrXy4hhBAiY/m6q64LQ93mwrwbu4hQMVoiYaJWouKLXV91YZI3uua4MPxYxt3X9aqLiDrkKtdKF0ZJ1Mx3ido7u9gey7u7MOAQtl3LdavrTle4fxgskTIVA5ZT4Wjg4nhCiMYxZETFgEpGdGTOumyDCgrrvOmq7hJCCJFjnO0i5UtqFVNr66rq+mNEF7r+14WBhRDVYlK1Xd9hgfN5159dGCJpasyIbRGtFriIBsNt8P0LXGzjx67PuKI5zYXRYk5ExsWj1tJgfzFtIthJrj+5oqNSImyOhX07z/UlFwZ8MhE3pkj0fo3rfBZE+IaLaPsxFwZNyhz4bVL0s11sa4aL8xQNafvJroddy12cyxBS9W+4nnctdXV1/cwVwvkd6KIy8YqLTADXUQghRI4QmlgPFxEcKWXMZotrmgsTp334WlcrV3R0d5brOtcOF2YN33aNcmFWfH+hi2095LrPRTvzb10Y4Q9cg10YENs+3RUNlQW2w2/TFlzc2GPBOkWufa6bXL9xhe3Y0WDM7AOVAT4nQse4MfroNuxoqNQ85eJ8hITGTWr7IhZEYD+IfDluomfS5YChk+7mnBBRx6ok8H8qG0T/XAsyA+E6nVykv29xkWaf57rcFdLMxXGQFeB3n3TRDCCEECJH+KWLQh7TxigwJwp/RIRM1Eg0ebOLiJPoNIQonfZYIkciZyDyxrBfdGFaRI5NXBjzAtdtLsyaygKdqJq6MCF+OzrypEJBp7K9rlkuthsv4iaqpjJBB7QDLo4rkSid72GyGB4dxMJKSHHIHJRm3ETq0Yb/fRcd1va7VrnIKACd2TifVHbYP/Y3Fp91cS2ImNkv2sSBCJttkpanskUFgM5twHEMc9GGzzLOG+ePTIoQQogcgB7JzV10iMKYSclimCGkqkknY4SkbEnTRkfcmBGm+6ArTBPzHSJBOmrRvkxbbgjmvsR1lyvfRaRLCpxo9W4X7cwh9OzG4FlOu24iEJViuhgWmQOi00TA8PhtsgdEwZg354UKBxULxP5e73rJRVt3COeHjMEGF23VfI8KD73DqQytc7V3he3UpMn5Hc4NlZmwiSEWVArIHKx2cT4A497jog2ddnF+t7+LTAfrUFHiWtJDnuvGulRKhBBC5ADfdRE90pZKSjzW0CKi4OEuzCYR42abE1z3uEiLE1mHfMGF4TzhItrEMDFbjJBt8BnLiJIxnrku0uT0vk4EKgJEvbQfY4xhJJoItAOTlqfCgdgfeobT2xvxf9qMj7gwzxD2LbpXOeeSKBeD5y/tzZynMNX9KxfnbKuLCkF0p7Xi0L7/uAtzpt0byIBg5uwDFSHOMdcHE6dyQaWJ36QCw2esK+MWQogcAJPDVGnTxeToaR0Lxg2Hxk2qONq4ifCI7qKN+3sutkm0yfqkjKMhsqXdlbbZsM0aY1njwmhIJZOOZwwyPbKJmonKEwFzZPwzZk+v6kQjdSoLtANjwJtdfB9j5LepTCCaCdjHl12kwENoX17moj2ZCgPfI4VNpI1p0pEtOqqmaSLs7d7CdaKIm8oE2+Bchil1tk+qnLHoVAhIg5MhIBtAVoRrRWc/mjFIyVNJknELIUQOgHET/WGymE5DVyyijbuNi17jIZhJacaNybF+ceOm9zbGQ7swE6QAHciI/Be7qEDQS5p0N+ZG1Bmdvj8RGDC9t4nm+Q32O4x0TwTfC9u4SXf/1RULKgLF27jJDHAstOvTmS6E/aZZYIWLyV7CY8VsaRqgjZt2aioqsSD7QcWHSJ7t0B8AGFrGPlCxoRJFpzfS46+5iPjpyEanv2+6prtk3EIIkSNgVkSytIOSCqYdNhaY+yAXPbSJ9qKNm57edITCuIl0gVQ55kenKVK24TAoIAVOj29MlWiQygMwjprIkbZcolaMhnZjxkFHD3VKBAySFDlRPZUNIs/S4BwgzD3sVV4e4/4HCyJgtFSGSHNTIQn3g9Q455p2flLzf3PFgp73bJOIG4MPz1VPF50BObfsO9eDDmnvuF5wUVliXZZT+eFcy7iFECJHoHAnqnvUhWn92hUNKWuiYdLEGA2RXZgqx5hob2U8McbPdKBAJynaWenVTYqXyDOESgDjllmfbYZgQKSQGXtMZyqGkJH6pXMakWNZwXipBNCrHdPjGKLBqKlQMHyLfeKYTnYcN8ZNb/mZLjqqhQYLRNOkr+koR8WAnuFE0hwrv0UlgIoC+xANmQyG1NFpkPZwthsSbdzhPpKuZ7/JNIQ94rl2Mm4hhMhBKOgxHiJDUstXuhhDTMcn/s3nmBq9rYmuSWUzwQm9xfneRy7MNjRuIkrm6z7owqCJ1tkGJklPa4aDkcKNTisDBo3x0KkLY8K8mYUsOsJPFHq201GLdD2RP+bNrGnsB/vOcRE901aNSRPx08ZNZYH2bdqIYxk36x92kaUIoc2edDhRNyYePfyMNnyyFOwDw93CIXNAj3XOJ59Fn3d+m3Q4zRd8RoaCylAIPcjZB46JIWPA/pOCp6IQVqw4n5xDovDS+i8IIYTIQijoMVFMEyPZ7mKiFP5NqpZULvNh0+GKz+hpzRAtjIjOZLShMkMZpgN0tqKzFMZDpy1S3nTUopc5Rk5Pccwyejw4YEIYDFEm03Ri/qTdixtoIhD1YlxULog6qZTw+3RYI3NA5YHOcaSV6WCHwbIu0TGRM1mCWMZNhzCMEKMNoVLDMXJcmG/xceNUFjhXzF8ePTyNCg6mTwaCc8W+sQ7nnrHxVAQYWkYfgeh9oQc++0C6/kSVGiovHCPt3qX1XxBCCJGlYEpEzKSCSYdjQqRwGWccDmViOBLDwUjJEpWSYieCZB1S5pg70DGK79I+jdHRI5vUOQZFWyxRdBgVRhPuA2ZPepeI+GRMOxp+h31k/9hvDBRjJvJncheaBsLUNulqDI7Im/Zo0vfRsB7bolMYUXEIPfPpfMa0r5yj4vtMepxjxnBJeUdvl/Z4hq9xnuiwhllznvgNKg/Rc5SHkLngc4ahnajTHkPvwreW0V4uhBAix8BQMAKiT6Jf/vL/aKMhmgw/5zNMCkNjebgeHd7oVU7bLObI/8Pv0L5bmhmzHUyJzmm0dZPaTgbsF5WCcB/CY2NZ9LGFx4Kil0fDOnyPdUKiv1fasbGc81U8Ggd+K/q8R5/bWMTah9JgHdYtbVtCCCFEYNT0GKfHNKle2l8TgciUtl16rzOkKZxwRAghSkBqjzY3Zh5ifmamfTzRbEYhvNmIWaVIRxFZ0NYVTksoxCcVOkgRNTORCal1nq/SIBKkLZpIm17StD/T0YthVdFt4ESjTBXKKy4ZSkXbNCn6aLGcjlzRM7UJIXIU2q1o96LzCsMzSPFFv54vFhQ4rENbHh1d6FjCiwQYP1r8xfZCfJLAqGlDpsMWleETzQxGKpfIms5eTBVKxyxerEHbbvQzRDROGzK9xGn/5o1ZrB8tljPsivZmIUSOwyQS9Pak8NjqYkYjeoeWBu1UpANJ6zF1IWNNmbqQ4Rl02qH2H77JR4hPGvR05p3QVIh/4gpnDItFGHGT5eIZomc3neGKQ8R9rote5xg7kTxRd7RYzusyGSMthMhxKDiIkknxMUaSoSsnevE8poyx00uVSRLCmaFI0ZHmY2IFCiwhhBBCpICwNyiGzJCNeMbNy/6JtumAQ1ounEOYF+QzjIYesUQc8eA36fFJD1J62/KX/xPRS1K2qnhvZ/4fa71QPAfFibVeWYj1fUmS0qtERz+UC4w7kYibMZ6MSw3nNA4nQaAzDcvDzjUYcWlwUMzBjPEzJpPJFIb9z//8z+gvfelLY775zW+OOe2008Z84xvfkCRJkqSsEN71ne98Z8xXvvKVMfiZ+xrT8abUvOkQwzCUeMZNZxomqWCsKu3j4TuM6WXOHMZMA8lEC0yAUBqY+nkupkNk0gXMfvPXvva1988//3xr2rSpNWvWzJo0aSJJkiRJWSG8q3nz5la1alX71re+9YH7GpMunSiILTcnY9wMBzsZ4yY9yPoMH2PGpt9WqlSp1TnnnPPKmDFj7IknnpAkSZKkrNP+/fttzZo19vvf//4N9zZm7iNlnjISNW5S5cyjfKJUOeNSy1TLyMvLO++Pf/zjnhtvvNGEEEKIbOXgwYNWpUoVXq3L1MUpNW6GrfR28TrA6FcRFofOaeGczsxtHM4nHHZOY+Yn0uBlwo37b+edd96+xYsXRw5dCCGEyD4ee+wxu+iii5gXhaHWaTFuJnk4kXGT4mYe5fD9t+GL/kl5h8PBYo1FPSGnnnrqBRj3woULI4cuhBBCZB+PPPKIXXjhhSk1bkyWNwLRUYxpGp930U7NZBC/czHVIn95kxBTodIjPBwSxtAvJm5hQgjGdDMBCxNJlHkCFhm3EEKIXCAdxk17NFOebnXxbuHnXHtcvAKQl93T3s3feq6fu4DpGJnydIKLd/0yVSNTnjJrGrOqlXnKUxm3EEKIXCAdxs2saaTGGVPNSwz4yxzLjD9jNjRmQeMvvclpxw4hZU5bNi8XaepiNjVmXzspZNxCCCFygXQYd0Yg4xZCCJELyLiFEEKILELGLYQQQmQRMm4hhBAii5BxCyGEEFmEjFsIIYTIImTcQgghRBYh4xZCCCGyCBm3EEIIkUXIuIUQQogsQsYthBBCZBEybiGEECKLkHELIYQQWYSMWwghhMgiZNxCCCFEFiHjFkIIIbIIGbcQQgiRRci4hRBCiCxCxi2EEEJkETJuIYQQIotIp3Gf4vqq6yzX2a7TXV90VXKVBp993fVD149dP3J9w3Wi78RExi2EECIXSJdxY9o/cOW7lrrWuia7arm+7SoNzL21a76L7y2I/P/7rjIh4xZCCJELpMu4v+YqdGHAy1xLXNe75rouc+W5ioPRN3bNdC2P/OX7E1w1Xd91JYyMWwghRC6QDuMm2v6Va4UL4/2Ni3R3I9ctrj6u77lYL5rqLox9qOvPrtNc57g6uqa4rnAlTF5e3vlu3Htl3EIIIbKZdBj351yXu1a5RrrC9ulfu4iex7oucrFeNO1dG10tXdE7Vs91p6tz8L8EceOu7OxZtGhR5NCFEEKI7CMdxk0bNinvea52rtC46XDWwjXeVeAiCo+GdTe52rg+w4IIrVz7XcNcpXVSO9VFhP471yWuf1aqVKnnL37xi0Nz586NHLoQQgiRfaTDuOlFjkFPczV3hWZLeryBa6KL9DdGG81VLjqjjXL9yfUlF73K6dT2govo/dOuWHzKVdnV20X7OCn5bWecccbbM2bMiBy6EEIIkX2kw7gZ+kVPcAyXyJtoGL7jquOa5OrqKt67/ExXE9d0F23jV7sw4tUudri/KzoSj4bObnyfjm90iiNqn3D22We/NHv27MihCyGEENlHOoyblHiRa4aL4WDREXdDFxF3B1fxiBsY9kW0TuS90DXARYe1h109XAnvcLI7p3344Yf29NNP265du+yBBx6wBx988Dg9/PDDtmfPHnv88cePW866fOfAgQP2/vvvR7YmhBBCJEY6jPtbLlLiGC8dykLjZkKVtq5xLiJrJmcpDj3N+T69yc91kSqn09oOF1F68Z7opeLG/afKlSvvTVbntCNHjtiCBQusbdu21qlTJ+vWrVsJ9ejRw7p3737cMtZt06aNXXvttfbaa69FtiaEEEIkRjqMm3Q2HcSYdIWOaOGY7d+7GJtNr/I/sqAYscZ204ENw77RRbSeMMkex/3uu+/axo0bbfLkyTZ9+nSbNWvWcRo5cqTVr1/fWrZsedzntLHznbVr19pbb70V2ZoQQgiRGOkwbiBipp2aiVequH7pInK+1cUPM5nKN12kyz/vIir/gos0+89dv3Ax/psIPWwTZzhZwqRiApb//ve/9p///Cf4W1ykyYm2J02aFJh89Gfhd4QQQoiyki7jpkd4bdcs1zoX47MZ132Ni97ftHczGxopc0ydKJ05yllGb/T1Lkz+Jhed0lin+LjvE5LumdMOHjxovXv3DqJtIYQQIlmky7iBiJohXnRGo4MZBvwPFwaMSV/qquaiFzrDvHgByYUu1pvtold6T9f5rjLvaLqNe9++fdazZ88gLf7ee+9FlgohhBDlI53GDfwAhvxlFynxsB2bTmaYNWIZ/0eMxyZlzvpE7Zh8rLbvuMi4hRBC5ALpNu4KQ8YthBAiF5BxpwgZtxBCiFQg404RMm4hhBCpQMadImTcQgghUoGMO0XIuIUQQqQCGXeKyHbj/uijj46bNAaxLCTW56Gi1xNCCJFcZNwpIpuN+8UXX7Trr78+2HemaWVedTRnzhxbunSpLVmyJPh3uDzUtGnTbObMmbZjxw6ZtxBCpAgZd4rIZuPmzWWjR4+2Vq1aWZcuXaxr166BOnbsaI0bN7YmTZoEL0sJl4dq3759sHzVqlVB5J1N8KY2Xvry9ttvR5YIIURmIuNOEdls3JgXc63ff//9x72y9I477gjMGzPfunXrca8rRbt37w7Wf/7557Mu4uZ6XXfddbZt2zb1SRBCZDQy7hSR7W3cscDQhw0bZqNGjcqpd4m//PLLQdMAFZIJEybY3r177YMPPoh8KoQQmYWMO0XkonEfPnzYhgwZYsOHD7c33ngjsjS74U1td999tw0YMMAaNWoUvCudyPvVV1+NrCGEEJmFjDtF5KJx02lt8ODBdvXVV+eMsR05csQWLVoUtNtfddVVVqtWreD49u/fH1lDCCEyCxl3ipBxZz7//ve/7eGHHw4yCDVq1AiMu2rVqtahQwe77bbbciarIITILWTcKULGnfk8++yzxv1Ab/g6depY7dq1rWbNmpafn29jxoyxXbt2aVibECLjkHGnCBl35kNP+N69eweGXbdu3UChgRcUFNjKlSuzblibECL3kXGnCBl35sPwtR49egRRdmjciHbuZs2a2Q033BB0XhNCiExCxp0iZNyZz9NPPx3MDNe6deujkXZo2kOHDrV77rlHqXIhRMYh404RMu7Mh3HpO3fuDIa40TkN0Tmtbdu2dssttwTD34QQItOQcacIGXd28Prrr9vcuXOtYcOGQa9yzHvQoEH2+OOPR9YQQojMQsadImTc2QFt2Js3b7ZevXpZ/fr1rUWLFsG4bkXbQohMJZ3G/QXXX11dXYNcBa7zXJ93lcaXXRe72ru6uXq6arvOdFVyJYyMu/zkonHDoUOHbPHixcGwsJEjR9pDDz2UM9dMCJF7pMu4P+u6yDXOdYdrh2uVa6jrt65TXMX5nOtvrvGu21xrXBtdi10tXT9yJYyMu/zkqnHTAY2JWObNm2cbNmywd955J/KJEEJkHukybkx2kmupK99V1UXUfYsLE/6SqziVXf1dfK+j61LXFa6xrptc9V0J48b9dxl3+chV44Z3333XnnvuueDVnkIIkcmkw7jZ6N9da11TXETS8BfXQtco129cn3JFU9NFdD3CdTYLIrRyPeAibZ4weXl5v69cufIe2i/TgYxbCCFEKkiHcX/NVcdFtN3DFbZNY8a0W5M+r+f6qisaUuukySe6rnJ9z/VTV2/Xda4TRdyk3j/too38m67TPOK+6je/+c2TCxYsiBx6apFxCyGESAXpMO4zXHREm+kqdIXt2d93NXJNcLVzfcsVDYZLSn2Oizbula4NrjDdfrqrNDiQX7pauDD/aa6bfvSjH70xc+bMyKGnFhm3EEKIVJAO4yZKJr092dXYdaoLvuOq66INu4vr265oiJj/5Jrh2uqicxp/b3QVuagQlAYH8mtXGxfp+dmu1WeeeeabMu6TR8YthBAVTzqM+8cuOqBNdTV1hany77pId5MK58dPc0VDxEwkPtiFwZNapwf6QBfRN5WAWL3RgeX0ZP+Gi8j+B5UqVar961//+sD8+fMjh55aZNxCCCFSQTqMm7bpZi5S3kTeoXETMTd3kcpmOanxaBq4FrlId9NWHUJ7+D0ueqV/hgWJoM5p5UfGLYQQFU86jPuLrmouhnARPYdR8rmuYS46p/3TRWo8ms6uO12kxcP0OtRwMQ6c74Y91OOi4WDlR8YthBAVTzqMmwibMdmM2SbqDjuVXemivZrI+SxXtDkDafVbXZj9z11shx0kfb7TxXCw4t8pFU3AUn5k3EIIUfGkw7iBjmcYLT3C6Yw20jXPtdxFNE5HtfNdTG+KiTOm+xcuvsNYbzqoMRkLJj4/8v9/uBJGxl1+ZNxCCFHxpMu481znuBi3vc613bXERRocU8e46ajGsLHfuehYBkzMMsRF5E2vcr7L8LFLXNHt3nFJt3HzrmdeXDFt2rTIkuxHxi2EEBVPuowb2PgPXcyiVsVF+pye5aTA6WTGi0Pogc6ELWEKnOX0Jicav8B1oet/XbSbl4l0G/dTTz0VGPfUqVOZDDuyNLuRcQshRMWTTuOuUE7WuI8cOWK7du+29WvX2rpbV9m6W1bZ+ltXx9XCOXOtVUGR9e7a3VavvDnmOqHC7a5bs9Z27txpb7z5ZuTXMwsZtxBCVDwy7jg88/TTNmLkSGvYtLE1bVFozVoWWfNWLeKKdRsVNLPGhc2teZzvsE3Wb9CksQ0eOsSe2Lcv8uuZhYxbCCEqHhl3HPY9vse6dOlilzevb41G97MmEwdZk7ED4qrZhMHWctoIK5pytTUZF3udo5owyBqN7W+XFzS0du3b28MPPBj59cxCxi2EEBWPjDsO+x59zLp362Z1enewTrctsm5bV1iXjUviqmuUYn0erW53frzNuv27WMdOneyhXbsjv55ZyLiFEKLikXHHYd9jj1uP7t2tTi837rXzresdS63L+oVJVdfbl1pn/1u3X2fr1LmzPbz7gcivZxYybiGEqHhk3HE4atw921vHVXM9Ml5sndfMT6q6bFhsnfxv3b6dZNxCCCFOiIw7DjLuY8i4hRCi4pFxx0HGfQwZtxBCVDwy7jjIuI8h4xZCiIpHxh0HGfcxZNxCCFHxyLjjIOM+hoxbCCEqHhl3HGTcx5BxCyFExSPjjoOM+xgybiGEqHhk3HGQcR9Dxi2EEBWPjDsOMu5jyLiFEKLikXHHQcZ9DBm3EEJUPDLuOMi4jyHjFkKIikfGHQcZ9zFk3EIIUfGk27gruT7j+qzrU5H/lwafsc6nXXwH8W/E8lNdCSPjLj8ybiGEqHjSadxfdV3uGuGa5urh+pvry65Y/NTVxDXAxXeudg1xjY/8/6+uhJFxlx8ZtxBCVDzpMu4vuKq6prpuc93pWuXChP/kihV5/9rV27XAdYPretd61zMRtXIljIy7/Mi4hRCi4kmXcZ/tuta12IWB/8HVxXWrq6Pra67ifMn1I9cvXb9xVXa1cK1w8b1aroSRcZcfGbcQQlQ86TBu2qT/4VrrmuiifRow79mu0ZF/04Ydj9quKa6eLgw9YWTc5UfGLYQQFU86jPubrvouom2i7DAt/hNXB9c4VyNXrKg7GtrISa3f7LrK9RVXwuTl5f25cuXKe2XcJ4+MWwghKp50GPcPXYWuGa4CV2jc33c1dBGFt3ed5joRpNtvdK120f59oh7pJQiNe9GiRZFDTwwZ9zFk3EIIUfGkw7gx3Nauya7GrnAY13dcdV2TXETi33aVxhdd/3StdFEB+J7rRPAbp7suchHN559yyikjzz777Bdnz54dOfTEkHEfQ8YthBAVTzqM+ywXncoYAtbMFUbKmC8pdCJufvxEEfcvXL1ctImzrXhpctrR6czWx0VnNnqw33X66ae/PWPGjMihJ4aM+xgybiGEqHjSYdxE1ozHnutq6wqNO0yh025d5PqGqzQucy11jXFhyPF2lIj7uy6GmlVz1apUqdKAc8455/k5c+ZEDj0xZNzHkHELIUTFkw7j/rzrChdDuIa7TnHBr1xjXXROI6Wd54oF62Psd7voTU4ntTKTl5f3x8qVK+9RG/fJI+POTl555RV7+umn7a233oosEUJkM+kwboz3ty4mUZnvOsfFGG3at+kh3td1hiuc0hQDD82dv6TQB7swbiL38LMy4cb9F/UqLx8y7uzjnXfesQ0bNtjMmTNtx44d9uGHH0Y+EUJkK+kwbmBIGGnyRS5mQpvjou2Zf1dxkU6/xEVaG2NnLnP4nOtSF23bpMqJzE8KjeMuPzLu7OL999+3hx9+2EaPHm1t2rQJzPvAgQP23//+N7KGECIbSZdx0+ZMmzbTlBJ5b3LNdNE57esuompmQiOiJjrHsIGpUulN3tVFj3RmUjspZNzlR8adXbz22mu2ZMkSa9GihdWtW9c6duxoa9assffeey+yhhAiG0mXcQPmTeRND3HGYf/YRXs1qW9++FsuhoQx9CscMsZfJmYhImfdcNa1MiPjLj8y7uxi3759NnToUKtRo4ZdddVVgXlPnTrVXnrppcgaQohsJJ3GXaHIuMuPjDt7oEPa6tWrrUOHDlatWrWj5t23b1/bunWrvfnmm5E1hRDZhow7DjLuY8i4s4f77rvPhg0bZs2aNbPatWtbnTp1AhUWFtrEiRNt7969kTWFENmGjDsOMu5jyLizB6LtgoICq1mzZpAir1evXvCX/xOFb9++PbKmECLbkHHHQcZ9DBl39rB+/fqgJzlRNoYdiv939/uZiFwIkZ3IuOMg4z6GjDt7eOyxx2zKlClWVFQURNm1atUK1K5dO1uwYIE988wzkTWFENmGjDsOMu5jyLizh7fffjvohNatWzerWrVq0DEN0cv8wQcftH//+9+RNYUQ2YaMOw4y7mPIuLOLZ5991saNGxekxzHtRo0a2bx58+yNN96IrCGEyEZk3HGQcR9Dxp1dMDc5ndQ6+z2Faffr1y+Iwj/44IPIGkKIbETGHQcZ9zFk3NnFf/7zn+DlIrzKlg5py5cvt5dfftk++uijyBpCiGxExh0HGfcxZNzZBy8V2blzp9188822Z8+eyFIhRDYj446DjPsYMu7shLnJSZsrRS5EbiDjjoOM+xgybiGEqHhk3HGQcR9Dxi2EEBWPjDsOMu5jyLiFEKLikXHHQcZ9DBm3EEJUPDLuOMi4jyHjFkJ8kmFGwueeey4YZnnw4MESev7554NyknWil7M+y/h+MpBxx0HGfQwZtxDikwxDK5k2mKmE+/fvX0JDhgwJysdBgwYdt5z1Wb579+7IlsqHjDsOMu5jyLhFRXDkyBG7++67beXKlXbrrbfaqlWrAjEr3KZNm+z222+3tWvXHl2ObrzxxuAzJpzJRt555x174okngmlr//vf/0aWioqGef4nTJgQlIOjRo0qIV7qwxTDvXr1Om456/Me/IcffjiypfIh446DjPsYMm5REbz00ks2adKk4P3ivN2sY8eOgXiveIsWLYLCsvjy/Pz8IOrhLWnZBkZNwTx9+nRbtmxZcPya7S4zeP/994M5EZjv/8033zxOr7/+uk2ePNnat28fVDSjP2P9ZM6lIOOOg4z7GDJuURHQLnjvvfcG0TaRNe8aR8wGF5r0okWLji5ft25dsO6dd95phw8fjmwlezh06JAtXbrU2rZta71797bNmzcHhb/IfObPnx9ML7xv377IktSQTuP+lOtnritctV0Xus50sfxEfNb1c9flrhquf7n+4vq2K2Fk3OVHxi0yCSJT0o+0IXJv5grbtm0LDLtevXrBy2E4xgMHDkQ+FZkK9+O1115rXbt2DVLqqSRdxs2Gf+Xq69rous91vauD6yeu0sDUf+/q71rj2uJa7Zrg+rMrYWTc5UfGLTIJ0pa0N/LWM6LUXIB06pIlS6xx48ZWvXp1q1atWvB2t7vuukvp8gwnF437uy7Md4nraldv13QX5l3f9RlXLM5yDXYtcg10dXWxo81d57gSRsZdfmTcIpMghc77xvv27RsMt8l26JB2//332/Dhw4++Qx3jpimA96g/88wzwRvfRGaSa8Z9quuPrlWuWa4wxX2pC+Me6vqpi/Wi+YrrKhemjel/zhXCjsZLsR9HXl7e/1WuXHkPbWFlITTuur07Wqf1C63rncsDo02mum5ebp39b70BXWTcQiRIrhk3Y4Bnz55tLVu2DNLkmHft2rWDdDnDidasWWP//ve/I2uLTCPXjPvLLgz4BtcAVyUX/MI1yDXOVdX1JVc0lV39XKNctGuf4jppFHGXHxm3yCRyzbj3799vAwYMsBo1agSmXbdu3UCYd/369QNTT9YEHiL55Jpxf99Fanu2q6UrNO7TXU1dtFe3dn3TFQ1mPtM1zMX3aA/v5aJjG989kZHnuX7squ7iwHq4pv/kJz85zIktC0/s3Ws9evSwao3rW/MB3a1gSG8rGNQzufJtNh/Yw6o3bWCdOnWyRx5Kzli/ZCPjFplErhn3U089FYz5bdCgwVHTxsCJvkmX0/ZNOl1kJrlm3HQ+w3inuJq4wpQ47d71XBNdnV2nuaKhB/l1LtrFp7mWuW51zXW1ciXSqa2ni+/f5NpyxhlnHJkxY0bk0BPjiX37AuO+4qpq1qCouTVqWegqSLIKfdv5dkWN6oFxP+oXJRORcYtMIteM+7XXXguGuzF5B6Zdq1atIPpu1qyZjRkzJmj/1jvVM5dcM27arzHaya5o4/6Oq65rkquLq/jwLox7rWuzi45p/3D93UWb+C2uQheRdSyI6r/uIh1P7/O/VapUqcO555777Ny5cyOHnhj79uwJUuU1Wudby+kjrc2ccdZ65uikim22mjHaarYrClLljzz4UOTXMwsZt8gkcs24P/zww2CmNCZewbjpVV61alVr1apVMEscM8ipZ3nmkmvGTVq7wEXHtCJXmCr/gauxi1R5W9e3XNHQLn6ja4WrGgsisBwzH+HiOwm1fefl5f2+XJ3T+nYKOpB123addd20NKnqtvU66+J/6w3sqjZuIRIk14wb6DVOJ7TWrVsH0XbNmjVt4MCBQUEtMptcM+6vumq5MGCGgYXGzWQstFnTOa2m6wuuaC5xkUYf7jqfBRGYuAVDH+n6kat4b/SYuHH/9bzzztt70p3TenUIOpB1vX2pdVm3MKnCvDv737r9Ome0cWPWTKLPcBXGmwpRkeSiccOjjz4ajE9v3ry5tWnTxpYvXx5UmkVmk2vGTTr7ry7S3ozd/qILSHvT/kzkTEq7OMyW1s411kWUHUKntTDipkNbQhG3epWXH6ZdHDpsmI0cOdLefVfDUkTFkqvGzXHdcccdQQ/z8ePH2549e4LJZkRmk2vGDUxtigHTwayjixQ5w7zoNEbPctq3mVCF2dVo+2ZHGB5GpE1ETjt4QxeTtYx28b1mrtLauEsg4y7Ja6+9Gtxgd951t23adrfdHmh7qVq5eq217tjF2nXpZres2xBzneIKt7v9nh321IED6lwjkkauGjcQYW/YsMG2b9+usdtZQi4aNzOjYcKkt4mWd7roIc4UqPQO/54LY27hYvw2k60QSdPBjPZxIvMNrq2uxS46uzHcK2Fk3CW57777bEC/vtaysMDat24ZqEObVqWqXasWlt+0sRW42rU68bqh2rduZW1aFllbX3/+vHnBW3KESAYYGhEpU57SqSuXwAQ4PkXa2UMuGjdgxn9w0UGN4V/0KD/XRdRM+vw81/+56MwWPSsaBn2liyFlpM5JlRPBJ9S2HSLjLsnaDRut0E24T/0rbEnnRraoUyNb0LF0Lerc2K7vXWTXuRb6v2OtU1zLujSyaa3qWMFVl9uQYVfbS1n4tiaRufC6T1LK2fgWMJFb5KpxVygy7pLcsn6DtSvKt5Xdm9i/Z/Wwt2f2sNendzuButvrM1z8DRRrnWN6w/XB7J721Pj2Nii/tg28eoS98LIKWHE8//nvf+zFl160x/xZe3D3I/bgrkf9b3zt2H6/9e090Dq062K3rbs95jolFNn2Iw8/6lH6QUW0ImnIuFOAjLskt6zfaO1b5NtNbtzvXevG7eYdGHOS9Ibrwzk97enxHWxwfh0bJOMWMXj33XftxhtvsG7du1rHjh2sc+dOwRux4onJipichDdptW/fPuY6JeXPmH+vY6cONnv2LHvJKwwiuTDWHBNjaBt/Y4l1wvVChetn61h19l3GnWRk3CW59TaMu8Cu79bE3nSTfc2j6JemdkuaXnZRGdg3tr0NdOMePHykjFuU4K033rJxYydYjXqXWcve/7KuI6tbp2Hx1fnqq6zPuAbWd0JD6zq8Zsx1iqvLiOrWblBVq9HwYuvVs6c9dSC3OrVlAnSsu/766+2aa66xmTNn2qxZs47T/PnzbenSpcHf6OVTp04NJp+55557AhPMNmTcKUDGXRIZt8gE3nz9LRs7aqIVdKhu16xpaMseLLQFOwpswT3xtXBHYaBYn8XS0t2Fdu2WZtamT1U37j725BMVa9zMhvbkk0/aY489Fgz72rt3b6B9+/YFc5cfOHDg6DLEOqxLZ7xMHaHBfjNFKzO+denSJXizWbR4+xnzsbdo0eK45WRNyIbceuutMu44yLjjIOM+ecm4RSKExl3YqYZN29DYrt/TwpbsLrIlu5Kv6x5tYfPvybd2/at/bNz7Kta4mWxl2LBh1q5du+CdCD179gzEfOUMc+vTp8/RZQhTwOB4U1imzl7Ii1CoeOzatcseeuihEmLfmVyGCDt6+QMPPBAYHq83zcZ0uYw7Bci4SyLjFpkAxj1u9CQr7FjDJq9p7BF3kUfcRNHJ11KvEMze0tza9q1uvXv1rfCIm2ib9yeMHj06SC1Pnjw50NChQ4O3ghUUFASzqIXLJ06cGESzN998czAhUjaydevWoL/B+vXrI0tyAxl3CpBxl+STaNxEAy+88II999xzQc0+FMsYUvTSSy8dtxwdOnQoWJ916Eglkssn2bgp7OnZzpjt995776gomEkfM8EMcx9Ef8a6pMmztRPX5s2bg5Q4b0LLJWTcKUDGXZJPonHv3LkzeEkKaUle3hCKOdhHjBgRpC2jlyPGCbM+U72m+oH8JPJJNu7SoA2bNDnp5FxDxl1+ZNxxkHGfvDLRuPfv3x/0dCXdOGXKlKPCnHmVYtu2bY9bjkhRsj5tc7k2tWYmIOMuCW3EtHMzwUymTnn66quv2P277rdNm+6w9RtuD3TbxjviatyEa6xx03wbMWpszM+jFWzTtWXLVtv/xBMZPe5exp0CZNwlyWXjJpVIWvzIW2/ZW2+96X8/1iuvHA4m3njmmaft2YPPHNWaNautdauWNnHihOOWo4Mu1n/Ov/fqK68c3Vaw3SNvBb+jOdhPHhl3SbLBuHfed5/17dvHigqaW7s2rVwtrV1b/xtHLb3MyW/WxFoWFcT8/Dj5dlu3LLJWLQptzuxr7fXXX4/8euYh404BMu6S5Kpx8wDt3Hl/8BBNnDAu0KSJ4wNNmzrZ5s6eZfPmzra5c649qhHDh1nTJo2sW9dOxy0Pxfpz/Ht8P9zWx9se75/PCXrEZmubY0Uj4y5JNhj3ei8/CvObWc92TWzBpN42f0JPmzMuvhZe08+Wzxhiiyb3j/l5tBZd09smD+tk+Y1q2uAhQ+zFl16O/HrmIeNOATLukuSqcX/44YfGda5Xr6HVa5hvzYo6WLPC9q52kb8lVdCyk7Vs282KWneJ+fnximzHt1u3QXNr2LBx8M5kGffJIeMuSTYY9+q1t1nb1i3cgPvYS/cvthfuW2jPbJ8fVwfRPQuCv7E+j9YrDyyxhzdMt35di2zg4KH2wosvRX49M5k3b551d79gzH0qkXHHQcZ98qoo4/7gg/dt1szp1qBxgfUYOM1GT19rIybfZMOvWVmqRk652cZMX2Wjp90a8/PiGjH55mC7XfpNsoaN823+vLlBjVuUHRl3SeiL0bt372CIWKY2w6xeuyFIjy+6po+9sHOxHbp3oT199/yk6uVdS+yh26YFxj0ojcZNJZwpWAkCEhXt7zNmzAiGujGGPdY6scTvlLXSL+OOg4z75FWxxj3VmhW0DUx27k2P2awV99vM5TuTplkrdgXbHTxuuf9Oazfu2TLuk0TGXRKGIDIBy7Rp0yJLMo816z427vkTewcR9NN3z7MntsxJqqgM3L9mivXtUmSDhwxLi3FjohgjWTRS30zHyt94Yr2OHTsGc+czQiXWOtEKt7tixYpgNryyIOOOg4z75FWRxn3trOluqG1siBvrTDftqYvvsimLtiVNUxffHWx3wKhFgXEvmK+I+2QJjbuoMzOnNbHrH0/9zGntB6THuInCXnjhedu7d789+tiT9oiLv/G0bv1ma9O2iw0YONx2P/B4zHWKi20/9vh+e/LJA/baa6+4AaX2fsxV4yYKXrZsmTVp0iQQU7QyPWsiat26tbVp0yah77AOJs+LcpjbvSxRt4w7DjLuk1dmGPeyIEKeiuEu3Jo0TV10V7DdAaMWyrjLSXTEPWVtY1v+UJEtvPfjOciTrWUPFNmcremLuDHtuXNmWfdu3axrtx7WrVtP6969V1x16NDZGjZqYs2aFwTfi7VOcXX1bXft2s369+tja9euTvnQqVw1bpomiIYxbeZ1YGY7/s8w0nhiXV6eQiQd6/NQbI91Bw8eHPwObeOkzBNFxh0HGffJS8YtEuGtN4/YxPHXWL3G1a3jwLrWb3wT6z2msfUenXz1HdfEug9vYPWbXWl9+/Szpw48E9mL1ECkjWk3b/hXG9XvQpsw+CIbM+AfcTV+cBWbNqqqTRlxhY0dGHudaLHOxCEXWf8uf7dG9S61yVOm29tvp3aWv1w2btqqiYox1C1bttjGjRvttttuS5rYHtvF4PkdTFzGHYPyGDcPXp1eHazTugXWdfMy63LboqSq6x3LrLP/rdu/s3Xs1EnGXU5k3NnFkbeO2KRJ19hVNatZo+a1rLBNAytonRqx7WZFda3aVf+yfn372dNPp9a4SWF37dojMO0DWy+2l++/xJ65u0pcHXQ9e89l9uz2S2N+XlwHt1exV3dfYvfcdJF1bXu5jZsw0946IuM+GcKIG0Pl74YNG2z16tW2atWqpIntsV1eYxpWEGTcMThp4370scC4a6fDuPtFjHvX7sivpxYZ98lLxp08eB/3hHGTrHHhVTZgan0bt6K5jVrczEYtSr7GLW9uV89tbM3aVrU+vfvagSdTmyp/5NEng/T4BI+GD7tp//vxKvbaA5cmXa8/eKl9uK+KPbT+H9ajw7/cuGfJuE+SaOMmrU2EjNnyutFkie2xXTofyrhPwEkb9+N7gnfKXta4jtUb0t0ajuhtDYb1jKvGI/pY0YQhVjB2oDW8ulfMdUKxzfpDe9hlTetZ2/bt7eEH0jMftoz75CXjTh5BG/eoSdaiSw2bcXsTu3FfC1v2UFHQHp1s3bCnhS24N986DExPGzcRN+3PpLKJojHZQzsuS7qev/cye/OhS+2+Wy+27u2vsPETZdwni4y7JJ93fdv1Pdc3XJ91neKKxamuz7m+7uI734nom64vuvJcCXOyxn3w4EEbP368FRQVWovWraxlm9bWsm2buCps1dIaNW1iTfKbx/+Of8628wsLbeToUcGr/tKBjPvklYnGTWck3iSFeOVjPIXr0Yu2IjnaOa1TDZuyrrGteKTIFu0stEX3JV90fJu7rbm165de4x4/+B/2/I4q9tYjVeylnZclXS/ff5m981gV273mYo+4ZdzlQcZ9PKe56rlmua53jXT9y4WBxwKDvtw1yrXIdW1EQ13VXJh4wpyscTMP9WOPP253bd1q2+7YHNGdcXX90uXWtkVL69+rj23esDHmOscU2e6WrfbIo4/akSNHIr+eWmTcJ69MNO5t27bZ2LFjAzHjVjyNGjUqmODj4YcfjmyhYsjlcdyhcU8c+g87vOsSe29PlSCtnWy94dE2qfKHb/uH9ep4hVLl5UDGfYwvuxq6Zrtudt0S+TvDdZGL6Lo4P3Z1d2137XYtcS1wYeQ1XN91JczJGvfJQqTOzEfTM3gCBRn3yasijPuVw6/YQw89ZHfdc7dt2b7Ntt5z11Hdse1O6z2gr11w8UWBLrn80rj660V/tyr/usxGjR9z3LbQFtfdO7YHE0O8+cabkT1IDbls3Hv2PGk9evSyrm2r2I3XXmFrFl5pN8+tmnzNq2rrFl9pc8b/01rmX2nXTJ5pR1Lcq5yZ09q3bWlLp/azww8sDaY9fW7HwqTq9YeW2aObZtiA7i1l3FGky7jPdS12LXSd7/qhq9B1qwtzJhovztmuDq55rm6us1yYNetSESjTzubl5f3VjXtvuoz7wIEDwVzDvE83U9s+PwnGPXT8Cpt13S6btvjuwGyTpWmLtwfbHTh6cdqMm+EjfXr1ttYtW3mB2c46tGt/VPy/WZOmVqdm7UB1a9WJq9o1a1nd2nWsoHl+iW21c7Vq0dKGDRlqDz+U2og8l437iSf2W8+ePa3mVf+01i1qWfvWdaxdq9SIbec3rWa1a1Wz6dNn2Dvvpta413rE3dYj7tljewbR8d7N19ojG2cmVQe2zbXtN0+y3p0KZdxRpMO4ace+1LXaNcYVRte/dU1xjXX9zcV60fzM1do12kXKvFy4cf++cuXKexYtWhQ59NTCSwJ4YCdPnmzvvfdeZGlmkdvGPc2aF7b7eMrTlY9Gpjy9L2kKpjz17Q7xikHzwrZu3HNSbtwrbrjemtZrZH0bd7RrO4+xGR1H2rQOIwJN7zjC5vYYb4v7TflYfRNQv6m2yP/O7jbu6HbQTN/uzI6jrFPdFtaioNA2b70zsgepIacj7r0fR9xti6rY7PFVbdGUajZ3YvWka96k6rZ4ajUbP+RyK2ha1SZPmZnycdybNt1uRUWF1qqgoQ0f0NmG9+9kw/p1TKpG+Hb7d29jjerXsuHDR9jLh9NRfsi4gQi5kYs0NxF0JRcQQbdyjXM1d9EJLRoi7s6u61zjXRe7znN93xVuozT4/Guuc1x/cp1fqVKl9ueee+6zDHRPBzLuijTuD2z27FnWqEmBde073oZPWmFDxy22IWMXJU1sj+126jXaGjctsIUL56fcuJdcv8zaNm9pt/SbbS/Pvs8OTr/Lnpq29aienr7tpBW9nedmbrdDs+6xuZ3HeiTXxjbeeXtkD1LDJ6GNm85pL9x7iR15pIq9fP+lSdfhXZfau2nunHb77XdYYWGBm2pt69qhhXVp38I6J1ldO7S0di2bW+2aVwXzfx+WcQekw7h/5CpyTXdh0KHp0rO8gWuiq6OreLqcdDo7tcX1uGuti05qbV20f5+IT7l+7+rhom18pWvLGWeccYQZcdKBjLvijJte0jwItWrXsXoNmlh+URvLL2ydfPl263gEXLduPVuyZEmZ3/BTVjDudvmt7Nb+c+zwnPsDg31mxl1J1/OzdtgL195r87qMt/at29rGLTLukyU07glu3C/ed4m982iVwGSTrVd2X2rvPV7FHlj7D+uZJuNe5+VHm1YtPMrvZHfdfI1tWznRNl8/Iam655bJtmrBCOvcppkNGXp1Wt7HLeP+GCJnUt6TXY1dYaqcXuF1XJNcXV0M+YqGXuV0XGPHhrgGuUitz3Rh9ETTpcFQsZ+46MTGtnu7Zv34xz9+hSnm0oGMuyKN+wObO3e21avfyIpad7Ouvf3B7zksybo62G5+y87WoGFjW7x4UcqNe+kNywPjXtl3VhARH5i2xZ6YujnpIgLHwGd3HhMY96Ytd0T2IDV8Eow7F8dxh53Tlk3rb68+uMwO715iz9+3KKl68+Hl9vjtM21g95Y2SG3cR8nkiPszLsZrh23f7Bzt4vQqv83VzBUPxogHOvXUUy9MZ69yGXfFtnHPmjkt6Jw2bMJ1Nvv6B2360nts2pLtSdP0pTuC7Q4asyTonDZ/XurbuGXc5Ve6jZs3dnXrRqr8orRF3OmeOW3BpD5BD/CD2+fbk1vnJlUvuHnvWjvV+mk42HFkUhs3bdLxIJJu4XrIRRSdMHl5eX9U57TjyW3jTvX7uHdH3se9ImLcqX8ft4y7/Eq7cUemPB036EJ7YcfFduSRS+zlnVXi67g27BifF9PhXVXs3ccusd1rLvKIW3OVl4fixp3Kucoz2biJmC9zrXGV1qv8L67iM6iV1gHtpIw73eO4ZdwVmyq/dtZMq1m7gTVv1dM69R5nHXqMco1MokYH221a1M1q121oCxekvnOajLv8Srdx79mz37p26Wqtmp1vM0f93RZMuMBmj70wruZNuNiWTb/Clky93OaMvSjmOtGa41o46QIbM+Cv1rTBJTbxmmkpH8edy8aNYbdq1SowVIZhYrJEyMkS22O7s2fPDt7LnalvB/tfF53E6FyGSUeP42aMNj3FGZv9VRcpckycCPynLiLzM1xnui50MTzsRlddV8LIuEuSq8bNA7Bq1Wrr3LmLP3ytrW3b9tauXfLFdlv69rt16x48jGrjPjly2bife+5Zm3zNRGvTqsjat2tpHdq3crWOqzati6xZ04ZWkN/E2if4HdZr26aFde7UzlauvCHl5Q5t3Bj3omv62As7F7nJLrCn3LyTqZd3LbEH10+zfl2LbNDgoWkzbvpCFRQU2IQJE+z666+3pUuXBh1QkyW2x3aZ5bCwsDB4h3cmGjeG3MQ113WTi1nTEB3NmJCFiVWqupgSlU5nn3b93NXFxexqGP581w0upj0ltY6RJ4yMuyS5atwY6PPPv2C77r/ftt+9ze6+a2vwN9kKt7t79y578cUXI7+eOmTc5Ve6jfvdd9+1J57Ya9u332d3bt1pm7fsDP7G07IVt1phi47Wvecg23j79pjrFBfb3rLtPtu58347dOjZlGeAVq+9zdq2bmGLp/S1l3cvsRfvX2TPeuSdkHbEWBZDrz241B7ZOMP6u3EPTJNxY6BE2vXq1bP8/Hzr1KmTdezY0Tp06JA0sT2227x5c6tfv74tXry4TBX/dBk3ETS9yMNpTzFgIucrXHRAowf5la46Lgwb46ZTG2lxep0zexrfm+rKd/3AVSZk3CXJVePOVWTc5Ve6jftkefbZZ61Pnz7BzIuZyrr1G6ywoJn16djMlk3tZ0vcwBd69B1Py6YPtBtnD7Pl/jfW59FaMb2/zRjV1Qqb1LbBg4fYiy+l3rjD4aQYN9Ewb4fEZJMttkvFoEGDBoFxl6WilS7jBsw71tvBgHbvL7i+5GIMNuuyM19x0bktfDMY/8boi7eHx0XGXRIZd3YRGvfN/Wbbi9feZ8+4wWLeydazM+4OxojP7TJWxl1BPPPMM4FxT5kyJbIk87h3x71+DntaQfOmQeSN2qE2La1j+9bWqUMb/1tSNBsUueG3aVV43PJOkb8d2rXybUS25WrlZVRRYb7NmjXTXnvttcivp44wVY5p8zKelStX2ooVK2z58uVJE9tju+PHj8/oVHmFI+MuiYw7u1hywzJrX9Da1gyYb2/Me8DN+94g8k62Xp69M5jgZWG3idbBjVsTsKSf5557LuMj7lcOH7YdO3bY2nW32ao16wOtdq1dv9HuuHObbdlGiv/uEpo0eZo1aZZvY8ZNPG4562/xvxs2bQ7S8Gzr1tXrgu0yverePXuCV9emmrBzGp3GPumd0yocGXdJZNzZxfIbr7MWTQtsSsfhtnnUdbZh+BJbf/XipGvT8GW2acQyG96yj7Vp2cru2Lo5sgep4ZNs3ESQu3fvtrvuuiswwVA33nijFRUVBS8q2rp169Hl99xzT7DuHjexTC1XPvjgw6D827lzpz3wwAP24IMPHieGWjVt2jQoG6OX79q1KzgXL6UhHX4iig8Hw2gZwhVrPPbJiu2x3UweDpYRyLhLIuPOLm666SZrUK++1a9Rx1o3LbJWTQqPU+tmRdamecuIWiSgj9crvq3WTT7+f62qNYI03ra7tkX2IDV8ko2bd6EPHDgwKLxp9+zcuXOgdu3aWZMmTYLOS9HL27dvH0RoTN38yiuvRLaSWRw6dCjojc0x9OjRIygHo9W2bdvg2Nq0aXPcco6va9eutm7dusiWKgYZdwYh4y6JjDu7uPWWW6xWrVr2l7//1f568QX290suOqoLqlxkl155uVWtVT3QlTWrxVW4Hu/kjt7W3y6+MNj+X/52vuU3z7ftd2+P7EFq+CQbN+/tZ1gQbaoLFiwwyifEkCGibj4LlyHaQll348aNduTIkchWMouXX37ZbvF7FfOLPqZQy5YtC9p3aeuNXj5nzpzAwIjUU90j/kTIuDMIGXdJZNzZxY57dtjwq6/2qKSbdfNIpkfPY+revbs1bdbUrqx6ZaBq1arF1RVXXmHVqlezwqLC47fl20bdPPqZOH6C7Xn88cgepAa1cYtMQsadQaTbuJ944omjxp2ODhUng4w7u3jrzbfsmaefsf3795fQ426uTOZQtWrVQDVr1oyrf/3rX1a7du0g0om1TfTcs8/aO++8E9mD1HCcca9tbMsfKrKF9xbaQjfvZGvZA0U2Z6uMW5SOjDuDSLdx085Dr9B0vUb0ZJBx5xZ07KF3KmJO/niiRyvjR5988snIFioGjHvsyIlW1Pkqm3F7E1v5RAtb5uZN5J1s3bC3hS28L9/aD6huvXr2sf37ZNzieGTcGUSyjZuTTOcQxlvSTsWECdGiJygdSa6++uqgYIz+jO/wQngG+lckMu7cgpmXuC/LqoomMO5RE6xxiyvt6oW1bdqGxjZpVSObdOuJdc2qxjZtXTNXc7tmtX8nxjrFNXV9Yxt3Y33L73S59ezRyyPupyJ7IcTHyLgziGQbNx1D6GRB22Lv3r2tf//+x4nekcy8w7CHvn37Hl1OFN6tW7egM8brr78e2VrFIOMWmcCRt44EE43Url/NGre80go71bCCDvFV2KGmte5Wz9p0r29FnWrFXKe4SMc3a1vdatS93AYOHBBUooWIRsadQSTbuN9+++1geM7gwYODqHrkyJHHacyYMXbNNdfYxIkTbdSoUUeXDx8+3AYNGmTXXXedvfHGG5GtVQwybpEJ0Hlz67YtQSE2fuwkGz9msk0YOyWuxoycaC0K2ljTxoU2bPDImOsUF9seP+YamzTpGlu7drVXnlM/E5fILmTcGUSyjZu0JJ12iJoRJhytN998M4jKUfHPWB/jr8ghDyDjFpkAzxIdOHkm3nrL9WZievGFl23kiFFByvvRRx6PuU5pOnLk7aDC8NFHFfsMisxDxp1BpLtzWjYg4xbZDnNJDxgwIBg7LEQykHFnEDLuktzixt3BjfuWnk3tw9k97b1re9qRmT2SprddH83tZc9O7GhDCuraIBm3SCJE6OPGjQv6kDz9tHqHi+Qg484gZNwlWeXG3c6Ne1mXxnbYo+MXp3SzZ6/pmjQ953rVo/hHRrez/s0VcYvkIuMWqUDGnUHIuEuyYdPtVlSQbx0a1LAJHfNtvGtsh+RqYqcCG9qqkTWpVd1GjBplLx/OzPmVRfYh4xapQMadQci4S7Lp9tutIL+5NalZzboVNrauqCC56l7YxNo1qWe1q1e1kaNG2+EMfTGCyD5k3CIVyLgzCBl3SdZs2GRtigpsatsGtmtUB9s5soPdMyK5emBMR9swsKV1bVzLho4YaS8qVS6ShIxbpAIZdwYh4y5J2DltVc+m9tGcnvbB7J72zqweSdO7LpvXyw5N6mhDC9U5TSQXGbdIBTLuDELGXZJwONgN3ZvYkZnd7Y0Z3e3wtG5J0yuud6/tYfvHtbdBGg4mkoyMW6QCGXcGIeMuicZxi2xGxi1SgYz7eD7r+r2rwNXRVdv1CxfL41HJdYarpovv/TCyLGFk3CWRcYtsJpeNm2Pbu3dvMJd6Rc+w+EkD48awMVTetLdlyxbbsGFDYLTJEttju9dee+3R38lE4/6068+u4a47XDtdt7j6uv7XFY9vuVq4HnBtcf3L9SlXwsi4SyLjFtlMrho3BfhDDz1kU6dODV67+uKLLwbTwor0EBp38+bNbfz48Xb99dfb0qVLbcmSJXG1fPlyW7FiRdz1+Zzt8k4LfidTjZtoebRrqYtou7FrlOsmV77rC64Tgelf53rddbvrStfnXAkj4y6JjFtkM7lq3M8991xg2G3btrWePXvaHXfcEbz7QKQHXre8YMECq1+/fvB2x3bt2gXXok2bNicU63Tu3Dl4+2OHDh1irhOKddlukyZNrEGDBoGRlyWzkg7jznOd71rrmub6kgv+7lriGuEi6o7146e6MH3MfbmLSH226x+uz7sSJi8vr7KzZ9GiRZFDFzJukc3kqnHzLn8Mu27dutawYUObMGGCHThwIPKpSDUY6I4dO4JXzfI2RzRixIiE1KpVq+Ca8arnWJ9HK9w2mZWdO3eWKauSDuP+qquWa4Wrtytsm/6Zq5drnIvPv+IqztddtIn3dLV0zXfNc13iimfcVBhoPyea/6JH3Jf/9re/3U9NSnyMjFtkM7lo3ETWRNuNGze26tWrW7Vq1axTp062bds2tXWnEd4cx5scX331VXvllVcSEi+64VXORNtUvmKtU1xsn9/h98pCOoz7dBfmO8tV5DrFBT9wkTKf4Grroh27OETik1wY/Hmuwa6FrstcJzJuDuQcVxPXUFeQpj/rrLNeo7eg+BgZt8hmcs24eU0wkRfv969Tp47VqFEjMO78/PygDZRjLEs7qEg/8+fPt+7du9sTTzwRWZIa0mHcP3W1ck12YaSkv+E7rroujLmL69uuaOg5jrFj1he4vujq6iLi5v9E1KVBx7Xfujq75rhIyW8488wz35oxY0bk0IWM+xj//ve/7YUXXghqvyI7yDXjPnTo0NFhSPXq1QvMu3bt2taoUSPr0qWLrV69OrhPRWZCqpte4l27dg06F6aSdBj3T1ykuae4oo37u656rokuDPY0VzR8NtfFd78WESaOCdOr/EQd2ojqMXqielLy51SqVKnpL3/5y6epEYmPkXF/DA/co48+anRc3LRpk7377ruRT0Qmk2vGvX///uDd4kTamDZt3AjzpqPU7Nmzg2MWmQlNGaFxP/jgg5GlqSEdxv19V3MXncow4bCNmxR6Uxep8taub7pCiKb7u55zrXH1cZHuvsv1hAvzruH6hitMvZ+QvLy889Q57Xhk3B/z/PPPB706aZsaPXp08FC8//77kU9FppJrxs0xcP/RuSk0bQyc6LugoCC4R0mni8wk14z7y66rXDe4BrhCo2XylUEuOqcxvCt6IhaMu5lrs+se17rIv592veGidznDyqgUJGrcf9NwsOORcX88ZvbOO+8MeoEyLKNly5ZB5yA6jojMJteM+/XXX7d169YF9yKmXbNmzSD6btasWXCcu3fvDsYYi8wk14yb1Pj/uVa7rnWFKfFLXde76DxGOj3agPn391x/cP3VxXAy0uOLXUzg0s1Fx7VEZl0L0Djuksi4LWjTZrpBopyrrroqKCgHDx5se/bsiawhMpVcM24qkYzhph8OUTa9yqtWrRoMMVqzZk1wvJqIJXPJNeMGTJjoepkLo2Z413QXUThTmNIxjelQ/+I608VMa8WhAjDSxUQsjOPWlKfl5JNu3KQdd+3aZUOHDg0MG+OmoGRiBDoCMVRDZC65ZtyAea9duzaYpIN7slatWjZo0KCgD4bIbHLRuOnl/RsX7dabXPe5iLY7uOhARke1hi6Gi1V2xep4xrLuLjqz/c31GVfCyLhLwms9Me6V3ZsEr+A8MrNHYN7J0uuu92f3tKfGdwjeDjbo6swybgp7OvxQSIY9eCkoSU0yJIdJGBThZC70Q2Bykn79+gU9snOFxx9/3CZNmhQMA2OGreuuu85eeumlyKciU8lF4waiaHp4X+Eiyr7QRXRN5Mz0pWe7znWRSo+1Iyzj+1QAGPMd9k5PCBl3SW5Zv8HaFeXbzT2a2AfXfvz+bCLvE8rNPVCsz4rpLdd/5/a0ZyZ0sMH5tW3g1SPs+Qwy7gceeMB69OgRmHXYGQhh4MwffMMNN2jcbAZDQTlx4kTr379/MJ93rkAmaPPmzTZw4MCgYsLLRtS2nfnkqnFXKDLukqy5bYMVNm1sgxpVDaLuG7o1sRVdS9f13ZvZqv4t7dZ+Lf3fTWOuE63rXDf3aGpz29WzFjUvtyHDrraXDmeWcffq1Ssw6uLGTS/elStXyrgzAFLi9957b/A6RNLI69evD3TzzTcHIwGITBktEi6ngxfr0unwcAbdb2WBCPv2228Psj5lnVVLVAwy7hQg4y4JhUKfXj2tqFmTIGXeztW+ZWGpaltUYEVu9C1c8dY9Kl+vdUFza1mYb7P9pn49gyY4OXjwYPAyAdq0w1Q5PXmJtkeNGlXm+YNFasDESB1TmeJadezYMRCmzWQlRUVFJZZj5rQNP/bYY5GtZBfcdxi2Iu3sQcadAmTcJTl8+OUgklm3YZOtimj1httL1dIbVlqL9h2tdccutuKmW2OuU1yrbmObm+z2zZttHym/DBofzUQrPGC0Z0d3Tmvfvn0QtTE8R1Q8R44csbvuuitourjllluCaBqtWrXKNm7cGEyaQ6/rcDliXT5j/mgh0oGMOwXIuMsPRkYPbN5sQ/oyF3jrrbeCGdN4qQPGTcTNMaZ6rmEhRG4h404BMu7y89prrx01bqKgXIA2bN68RAcnxnK3bt06eBm+hoIJIcqCjDsFyLjLDz13mZyE1HIuGRttqAy54SX4jAtmOI7aFoUQZUHGnQJk3OUnV40bmCmNSHvLli3qxSuEKDMy7hQg4y4/uWzcTObB/OS50gQghEgvMu4UIOMuP7ls3EIIUR5k3ClAxl1+ZNxCCBEbGXcKkHGXHxm3EELEhklzZNxJRsZdfmTcQghROvPnz7fu3bvbvn37IktSg4xbJIyMWwjxSYYRJ8xnQUdWysBoMS8+U/My/e7WrVuP+4z1+V6yRqzIuEXCyLiFEJ9kdu/ebWPGjAkmbKIcLC7m0+e9B7x1MHo56zNHxEMPPRTZUvmQcYuEkXELIT7J3H///TZ8+HDr2bNn8BKb4uKzkSNH2pAhQ45bzvrMOMkbCZOBjFskjIxbCPFJhnelUw4eOnTIXnjhhRLipTakzFknejnrs4wXGyUDGbdIGBm3EEJUPDJukTAybiGEqHhk3CJhZNxCCFHxpNO4v+i6wNXLNdzVylXZ9QVXLL7pYv02rn6u3q5urn+5vuEqEzLu8iPjFkKIiiddxv051yWuCa7bXdtdq10Y+HmuU1zF+aGrwDXPtd7F+vyd7LrC9XVXwsi4y4+MWwghKp50GfdZrimuJa5GriououhbXETUX3YV56uuc11/cRF5X+hq4hrrusZ1sSthZNzlh/dWh8bNZAJCCCHSTzqM+1MujHeti2j5My74k2u+a5Trd65Pu6KpFPkbDWaO4W90FbIgUWTc5YdXXg4bNsxGjRoVvAZTCCFE+kmHcZPSruta6uruCg35p64urnGu+i5MORYYP5/9wHWZa4xrrutKV8Lk5eX9pXLlyntl3PH54IMPgin6GH9IlB2Km4WJBPr27Wt79+497jNEKh3pndZCCJE60mHcZ7qIjme6aLMOjfv7LtLmtHu3d33LVRxM+/cuDH+Z627XYhcVgdNcCePG/Uc37j2LFi2KHLoojYMHD9q0adOOzg5Eehz16dPHGjRoYI0aNbJ+/fodXR4KQx8wYIBt2LAheMWdEEKI5JMO4z7bRQ9y0uSNXae64DsuDHiSi8j7267ikD6n81pXF+3jO1wLXUTbX3GVBr/B9v/PVdVVo1KlSv3POeec5+fMmRM5dFEaGPf06dOtd+/ewdR9Q4cODUTb9tixY4O5evl3uDwU8/Fi9Js2bQpecSeEECL5pMO4f+xq6ZrqauoKI+7vukiRT3Tx46VF0LSJk24/w/VP12DXeNeJOqcRqTPUrI9rhWuV667TTz/97RkzZkQOXZQGqXI6n5H+Zvq+UKTPX3/99UDRy0Mx3R96++23I1sSQgiRbNJh3N9zYdhzXK1doXFjxPkuTBhjZ9x2PIikm7u2uNjh0mC9010XuUjH559yyikjzz777Bdnz54dOXQhhBAi+0iHcTPxCunqm11DXeGY7f91jXDROe1SF1FyNJhvrPHdGPejrv7B/xIkLy/vz3ROUxu3EEKIbCYdxk2ETQczjJve4D9y5bmqu1a6BrqYbIVlrBua9ddcRM1fcvEZO0fafYBrs4soPWFC41avciGEENlMOowbaL9mulI6mNHWTZRNJzOGiDELGh3J/uYi8sbE2ZFfuNq6aNMe4hrkooPbbFdf129dCaNx3EIIIXKBdBk3EfPPXJ1dTF16lwvjpo0bU8e460X+/0sXvcmZNY3JVuhctsZFxH69iznLWYdtJoyMWwghRC6QLuMGjJZJVBii9XfXb1yYNqlxjJrPGPPN9KekzGkbZygZvcP/7OJ7/JuIvHh7eFxk3EIIIXKBdBp3hSLjFkIIkQvIuIUQQogsQsYthBBCZBEybiGEECKLkHELIYQQWYSMWwghhMgiZNxCCCFEFiHjFkIIIbIIGbcQQgiRRci4hRBCiCxCxi2EEEJkETJuIYQQIouQcQshhBBZhIxbCCGEyCJk3EIIIUQWIeMWQgghsggZtxBCCJFFyLiFEEKILELGLYQQQmQRMm4hhBAii0incee5znD91XWx6/eu77hYHovPu37o+oPrAtffXP/n+pGrzDsq4xZCCJELpMu4T3X9zNXVtda13bXYVeQ60xWLH7tauxa6NrhWu2509XSd7SoTMm4hhBC5QLqM+zRXDxdmPck10jXPtdxVy/VpV3H+14VxD3YNcg10zXLNdrV1lcm8ZdxCCCFygXQYdyVXZdfNLkyXdDlc6SKCxpRJfxOVR/MD169d3w3+93FKnfT6CNdSF4afMHl5eX+qXLny3kWLFkUOXQghhMg+0mHcX3RVc93kInrGyOFc1zDXONflLtaLhij8sx//8yjfcHVxkTbPZ0GiuHH/BeNWxC2EECKbSYdxf8/VzDXHReo7NG4i7+au8a6Wrm+64oHZkzIn5V6TBaVA9M72q7j4jZannHLK2LPPPvul2bNnRw5dCCGEyD7SYdx0MsOYp7qaukLjJgVe3zXRxY/TDn4ivubC+Gkb7+0ijV4an3KRnmc92tFvdd11xhlnvD1jxozIoQshhBDZRzqM+6euVq7JrsausC2boWB1XXRWI/39bVdpMDTsHy7atom2z3cVT61Hw2+wPdrE/+m6slKlSr3POeecQ3Pnzo0cuhBCCJF9pMO4SVkXuGa6Cl1hxP19VyPXBFc717dcsaBT2oWuKS6iZ7b1ZVeZyMvL+0PlypX3qHOaEEKIbCYdxk2Ku45rmYshYaFxM5yrm4vOaUTeX3IVB9P+petqF73SMe3PucqMG/f56pwmhBAi20mHcbNRZj5b5yJqDnuK/8XF5CqjXL9iQQx+7hriYj1M+6uuk0LjuIUQQuQC6TBuOMtFGzdRNz3Mr3DRO/wWF7On0R7NWG6icMyZNurTXXQu2+9ipjWGfzFdKm3dTH16ojbxEsi4hRBC5ALpMm7S28xPTnv2Ha4dLsZiD3X9wsWQMXqY0wbOjGmM4f67a6XrBdc+F+vf4KKH+DQXnyeMjFsIIUQukC7jBnqB86IQ2rWZLQ2TPs/F0C06m/3ZRUqdGdNo22Zuc8Zgs2PtXR1cnV3Md07UTho9YWTcQgghcoF0GneFIuMWQgiRC8i4hRBCiCxCxi2EEEJkETJuIYQQIouQcQshhBBZhIxbCCGEyCJk3EIIIUQWIeMWQgghsggZtxBCCJFFyLiFEEKILELGLYQQQmQRMm4hhBAii5BxCyGEEFmEjFsIIYTIImTcQgghRBYh4xZCCCGyCBm3EEIIkUXIuIUQQogsQsYthBBCZBEybiGEECKLSLdx8wNfdH3Z9XlXnqs0TnHx+edcX3J9wfVpVyVXmZFxCyGEyAXSadxfd1V3TXDNdfV3/cP1FVcsMOzfutq7WH+6q5HrB64ym7eMWwghRC6QLuMmyq7pmuFa69routV1jeuvrlhG/FVXFddE1wHXCy7M+/euMu+ojFsIIUQukC7j/rlrnmuR61LXL11E0ph3Z9c3XMUhPf4z1wWuQa6bXCNcf3SRMi8TeXl5f5NxCyGEyHbSYdyfcV3iItIe7wp/hMh5pmuM608u1ovmUy7S5SwnpT7O1c/1B9fJGPd5lStX3rNo0aLIoQshhBDZRzqM+5uuBi6ibaLrMC3+Y1c7F4bcxPU1V2n8zTXJNdCViHHzG0TsZ7rOdf2qUqVK+b/85S+fmTdvXuTQhRBCiOwjHcb9Q1eRi/btfFdo3N9zNXTRht3BdZqrNDBu2sMTNW6i9d+5urhI0S93bTrjjDPemjFjRuTQhRBCiOwjHcZ9tqu1a7KrsetUF3zHVcdFJN3V9W1XadDOXRbj5kBoV6diwHeGuxadddZZr86aNSty6KnlyJEj9uijj9qBAwfsP//5T2SpEEIIUT7SYdxnuVq4prmauaIjblLoRNwdXSeKuMtq3EAFgcibNvLPnnrqqVV+97vfPbFgwYLIoaeODz/80Hbv3m0TJ040OsM9//zz9t///jfyqRBCCHHypMO4iaSJtElZ06YdGjcpdAydDmsFLsZ5l8bfXaFxV3ZhyGUiLy/vD+nqnHbw4EGjgtC6dWvr0aOHbdy40d54443Ip0IIIcTJkw7jpmf45a5VrpGu0Lh/7WIyFjqnEVGHKfRY0F5N7/MeLlLgZSad47jvvPNO6969u9WpU8caNmxo48ePD1LmQgghRHlJh3EzdSkmfZ1rQeTfjNtmFrRbXL1dp7sweMRO8B0gsmZ61KtczJ421sU4cKL44sPHTkg6jPujjz6y1157LYi2GzVqZNWrV7dq1apZp06dbNu2bUqXCyGEKDfpMG4gDU5aHONe5lriusGFGV/k+q7rny5mVzvHhSkTmRNpkx6/23XItc+12TXVRU/zhEmHcdMh7Z577rGhQ4cG0XaNGjUC487Pz7c5c+aoo5oQQohyky7jxoSJqmnLxriZjGWKq5aLqU3pmFbDRS/wX7k+6+I7/+ciyt7kWu9a49rgWuhiUpeESYdxP/vsszZt2jQrLCy0evXqBeZdu3btIF1O1L1q1Sp77733ImsLIYQQZSddxg0YMSZNL3OGiGHkzGEOvAWMCVhIoZMuZ13S5bwRjPVYnwlbEP9mG6TQEyYdxr13717r379/EGlj2nXr1g1Uq1atwMiJut95553I2kIIIUTZSadxVyjpMO6nnnrKxowZE7RvY9iYN8K0W7RoYStWrLB33303srYQQghRdmTcSeT111+32267zfr06RMYd82aNe2qq66yZs2aBWO6H3zwwWCMtxBCCHGyyLiTCB3PDh06ZEyrSpRNr/KqVatamzZtAkMn2qbnuRBCCHGyyLiTDEO+1q1bZ23btg0ibjqn0ct8z549kTWEEEKIk0fGnQLopDZlyhQrKCiwDh062MqVK+3w4cORT4UQQoiTR8adAkiJb9261QYPHmyTJ0+2/fv3q21bCCFEUpBxp4iXX345mPr0/vvvt/fffz+yVAghhCgfMu4UQSe0Dz74QDOlCSGESCoybiGEECKLkHELIYQQWYSMWwghhMgiZNxCCCFEFiHjFkIIIbIIGbcQQgiRRci4hRBCiCxCxi2EEEJkETJuIYQQIouQcQshhBBZhIxbCCGEyCJk3EIIIUQWIeMWQgghsggZtxBCCJFFyLiFEEKILOITZdx/+MMfnrjhhhsihy6EEEJkH88884xVqVLlgFtbR1dOG/eFv/vd755csGCBffTRR5IkSZKUlXr44YftggsuOOjW1sWVu8btXHzaaac9c8UVV1i/fv3e7d+//9v+951UqL9vGw0cOPDNAQMGvBUuK75eNql/sWMK/x9r3WxT/4+P5UguXS/UP3KNXMGx8TdcFmv9bFL/yHFwvSLHlhPHhfpHjkX3Y/aof+QY0nE/9vfzVlBQYN/73vc+cF8b6fp04HA5ym9dC1x3upa4FroWpUhs+ybXg657XEtdsdbLJnFM17t2ue53rYgsi7VutonjWO162LU1siyXtNn1iGt91LJc0DLXva4HXCtduXQ/huXHDlculB/R2uDifrw9alkuaLHrLhflyCpXqu5HfOwWF881qfJPuXKWL7p+7vqN62eusyN/UyG2fYWLwmSy61euWOtlkzimv7uo9Mx3/SmyLNa62SaOo4EL8746siyX1Ne11lUUtSwX9DvXTNd1riquXLofw/JjiuvXrljrZavauta5ukUtywXhL6NdmHYdV6ruR7Z7rotg9HRXJZdIEj90UTPqF/wvN/iSi4JknCvX0jOYwHJXm+B/uUVjF+Z2QfC/3GKY61rXt4P/5Q6UH1SQBwT/yy0udZG9qxX8L7eglzcZkv8N/ieyDmpEpPIoWHIllfE9F4XkVNfXWZBD/NVFhENnj1yjhetm1+XB/3KHz7vGuEhJ/pgFOQTlBwYw3JVrleSrXLe6mgT/yy16u25w/TH4n8g6SI8T5YxwfZYFOQBpmbmu6a7TWJBDEI3SbtQ9+F9u0dpF+u7K4H+5Axmg8S6ab0gf5hKUH/QjGeX6HAtyCCJtmqWaB//LHUhZk2Glf8KfWSCyDwoSUsqkTnKlxvwd11AX6btci7gru+iPkGuFCdR1kSXJtVT5F1w9XJgbqeVcgvJjrIsMUK5U/EPojzDNVT34X+6Acbd0TXLRl0pkIUSkNVwXuvJYkAMQ4dBp5p8u0pS5xJmu2q7/C/6XW5znwrx/Gvwvd6BCfIkLA8i1iiTlBynli1y5Nk73HBf3I1mFXOIU1/kuMgrfZ4HIPmjX5uGjQOGC5gJUQL7l+qbrVBbkEEQ1dHD6SvC/3OLLLrIluVbZIsL5hovnLNfMLRfLjxAyJdyPjPTJNb7qohz5TPA/IYQQQgghhBBCCCGEEEKI9EIbBT1Vf+KKNRyDNjWGRzF+lDZEYBltpGVpS6SNjsH6jPv7i4uJQGj/SWWbHZ3M6Kh0hitWWzVtUBwXn4dtNbQB036TSA95vv8jF8fCDGscG722w3/TcSMVs/2wTdrgmV2I9sFY0GbIsXOOOXa+Q1sb160snQhpg+T+oDMb143hH79wpardjvvhBy56G3P9isNxMM6e+/VrLHA4Hu5N9ileOymfc59z3f7g4lpxbPybMcWc12T3a2B7XAeuV2mdy7iOXC9+n2PkOxw/x3Uy9xDb476kg1Qi5+Vk4TkJy49Y5UF5yw/OA9eZ4+Bahfqli+c0lUSXH7GeGfb/LBefhz3iw/IjkbZfzh33BTPG8VyF5QbbTOUIHe4n+u8kWn5w7Nw/lHeJlh9cN36DjnnMHcHzxX2Sa0P+KgwKSaaKZIIHLlRxeNgaudq5KNiAgpMerphUInCD13QxqQlj/25zMSaVcbcU0KkqVNi/iS6mHOSmKw4PCNMSMkECNyhQuaCXPJ/Fg/PFDGSM+WaihRtdzJR0t2u7i6k3U1Ex4aGmJ+4MF1MOxoKCgCE2/3JRmGDATOVKb/nQ8OLBd3jw+rg4PqZvZEpRJvznoU8FVPA6uBiyFuv+Yp84doYfUhgAhQzH+TdXPNPlc+45xqEyn/8mF5O2MJaYuQj+4QoL4WTB/d/MxbwA9A6PBUOHuF7h6AzuV9ZleVkLO55Z7j3mymYGQAyc85YKqJxyfzCki/NaHPaloYvyI5xl67suyo/w+p0Izh2GNsTF/AOM02dsNFPAprqXPaMUJriY8yBW+UHlLyw/OCagjKT8SGSiHL7D88t9wXPFcXGMA10Ms0pVUMO9wLk7UfnBOQ/LD+4/9oXnK9Hyg+t2sYtjY459nrOeLqZLFUkA82HSeG6cWCeVmiMRCcM1MGzgpprjyg/+d2KofTJ0gJmRMGvmuGWebAoUjK69K9ZDkQyYcpAJ6hlLGauWSI2Q4+ImDaM7bmSmYCS6jAeFFjcyN/hgV38XFaD7XIddzC6USO20rGAsFIS8eIKCIxZEQBT6GC81bPaDCto1rtJq2cUhsua4uNYcF7PjMZaYa5aq8cQUZpj2FhcFRXE4FowIU6PgBIa4MX47kUllKLR+7+KY9rh4mQEFJebD2Hbu7WRHO5jXIBcv4ilt+ksKfK5X+AwS2VBB4rkpa8/dy1wY3AsuZrdKRWUkhPuMc0iljqi4OLHKDyLM2a6C4H8nBtNgfcoaziH3Y1h+cM05n2U9P4nCPXaHC/OJZaKUH1S0qCSH5Qf7Q/lBmRcPggOCIo6LY2LuCI6Je5OKJXN0pwLOF+UG5QflSCyoeITlB5VdxDPCsxlv2l0CMc4H8ylQ3vM7vLCJ72rCliTBzYOxEVFhdPyfmjPpH2pNFJTUaolIMdgwAn/MxQ3GuhTiGHSsyJnt8WYXom0KfCIqwCx5wwzTHZIeTAU8VERTs1wUjBQy7C/mwIOIuAl5ADlW9o2oa58LE6BSQ5qPz2LB8YamiHggiBLZBpE346VTAb9DQUYtlocJ4+K4OD6OgX2iwOM4uS5cN46FbAcPELVt1uWaxorEOC4K+vouIgAyFuE5YH3ugVRFcFwPzIqsDGNgMefwHqMwYN8wNY6NFDDLMCqOi2tNYcc9F56H4mDKGD8FCvcFJh5NrHu4vLCPnEOuF1kmjoVjYj/D54Zj4Zg4t/yb+wjToAJDAUhBSoXrRBVBCle2QQWNrM9GF+eSTEtp93B54fpgNlQUEi0/iMAfdZGpCq9taeUHx8u9HG3ObJMKM2/d4rf5birgvPHMUHaRLYguP7j/i5cfHCcGTPlBdBmv/OCckPLnXIXb41nmmebakTVJBTwDVFK5H7lXossPjiVW+cH9x1TJvDWRjFe88oPvc24w/kIXGRkmtKJCk4pn7BMHDw3TKfKgU7OkJstLKIjMuHExVQpQChwKPAoRUiyvu55xEa1zUaidxSooueCYIC8ioZYXRjMUsKQqqa2HZp5suEkwUApA9pEHkGMjwiKy4dg5LgyKB4gbksjhXRc36DwXNV9uvkRhG8woRPTN+UoFnEMKPwouChZMKHy1HjMa8UBhSJ1dFKZELJx7XjH4tosUKqbFsfNwFofCku9Q+FCpYxvpAnPi3NHUwPmnqYPKHalRCmsKFtJ3VAJpD6QCSGT6outlF9Pvcv5JV8aKMjl33HtUrrjHKVxTDUZMZLPVxbz+3Is8N0RmXEeeMZ41rhd/SdH2cj3pesNFpZrr0NR1IpMioq3qojDmXg9f3sE2U5XVotDneKLLD46R6CosP8hiheUHy1ivePnBPRavmSMaKmvbXETuiTb9lBWiQ+4nsnbMDhmWH0TIZBcoP1q5KD8wdirEZC4pP3a7OP/cyzxLseBexOCKQ6WciijPXyrgd3lLIOUHld3o8iMsE7gHo8sPlvMaz+jyg2bCMItSnDBKx9jJXJApoSyVcScJasxchP0uCkhuSh4GbkAKD2YP43PS3DwsFJZc6OdcD7kwfdbjgsQybh4qIl9SrBTE3MjckDysFMbcQKlKdVFIcJNRu6dmTm2YB4+aI22OVEj4N/tCexuVjxUu0tzUeNlnDC/R9lwKVdrEiD5o009V+xsPAw837zEma4FxcQxEx0QxzNVNG/CayF8KFdrhMEMMjuvMueDcx0qbcz0ohDh+0ncUTrx5i3NGxS1VGRJgfzDVJ1wcDw88pkWFiuiRe5BjpZmFjAYmTITC/ct3MAzuMQqcWPcV545CiconTRoUyBwXlQH6e6QCTJOI+3EX9xXnlAoJbZoYHc8Y+8x9w3XlenHfcX2fdZHZ4jxQGSFiLQ2eM46HCAez5N/8ViqNG/PiOeb8Y9iUHxgc5QfXhWPjc+45/s1zxn1VvPygA9OJjJvj5rpR0eFccd6oAHCcqWoGYJ/I/JBd5B7kmeEYqSwTsVJ+cB9ynikXMSjKF8oPotmw/IjVhFAalCFUSjFVzDIV8Axwz3N/UeGKLj8oo6n8kSWl/MC8CWrIsrLuS66w/OBaJNLsdrGLZ5dKJE2QMu4kQERMVMqDRw2KtB7pLqJkHiraNamVYQi0OXLRubBEpBQ+rE+hEKsNCDBzCnpuANJ+1EQpYCk02Ta1uViGnwx4kHa6uOH4N5EPDxg3ETcrx0cBw03IeaAmSrs0kSmFH8cWpvviwc3INniQMRnaSlN1g3KuebgPuKhQUbFgXzFbKg505KHyhRFwTbk+ROGsy7ng4eFclFbgYXg8lFTY2A4PM8fF9igsKbASeWBPBrbLbzzt4kEnG0MEwHFwv3FsREEUoFRQOBdhswvHx7ocG/dpLMgmYIxUPim4aHfGQDlGCjMiyGTfj5x/jJcIkyif9CmVOgpDjonPiHaoRLKMY+Kasl/rXWEv/tIquNxnnCfejoahESnyfc4VzxiV6lSZG2UF14PsACaFwRIMUFHhXgzLD84vFQiuC9eN8oPMSLzyI4T+JFQeue6UVTtclFH8fqqeM/oGUE5R4aUiGF1+YMph+cH/SR1TflAJofzgWpSl/ACuEWUr15BzQ7+AVMAzwLWi/OB8kn0srfxgPY6btDfZEc4F99OJyo9ouDaUvTLuJIPZcPEo0KlhhmDS1J6JQCkUqTWHHQuIuuhwwAWOB4UN7cvUvtkGNTlMEbOksKJAPlEUUR64Ydh3jo8bD3iQiIapJVOjJA3GcVKYAj2aKVS4icsCNz4RO4UvEUeqojeg8CP1SsTCvodwDKTKiSY5Lgp+2sl4UHnIiNyoyXPNTwTbx0AocIkQKXw5Hxg2Zs4DzLGy3WTDdSI7wjWI7shFmpVCkXuGa8pfIjjA2GgO4f6KB4Uov8G9zvEQsZGNIDLF+Lu6kt1mSiFH8wzXi4IwhHZFngeuy1YXlaN6LmAfuZdQvP3h+SFdy/PIMXH9uP+4N6gUYDalVWTKC8ZJBEaBTrkQwvmNLj+4b8IOnxg45QfnPFE4h1znMJvE84txVnOl6tiIFEnHcwxUCCEsP4hQw/KDc0w7NVCh5t4lO1IWMDMiW+5h7gOet1Q1IVJJ4j7kfowuwyk/qHBQcea4OD7+z/qU45g5zxmVlETheaOskHEnGQpxomnSJDwYITyQ3IREj3TnJ1UUGje1TyJZap0hGFfYM5bCg3ciczPThkiqFaPmZqZWCrQbk3KibYVUUlnatxKFGjMRC1FOGK3w+6TcMCOiLSospN6ItIBIgUiMNHIIGQPajGlj5dioCYcVgRCOk0Kfc4mpJrvwj4ZjwKAp7Kn4hNBpi1QyFQeuGdEAPXc5dvaHfgZkPcI2e4yXa0QNmrZ5Us+cG6JejpMeyRQi0a/JDO8J/rJesh9CziuFMhUGCvgQ2tKIiDEyChzuG44VMHWOi6gubDOkgCXq5B7guCjguc84Fxx38f3m3uZeYfvJbvfm2aDiyj5Gd1ikYMYEqAjRfsi55rwD9yPPJFFP+CIHrjvPJQbJ93ieeGapAGCMbJ+MEYU+9zFt41TeeLMYGSDOSbJhf6h4sJ9kMkKIunkOwvIDMwiNmzKC8oOsR0jx8oOmCwyitHKBe5ZMIeadqqYbmh7Yf5pfwvsqLD+odFBZofzAkGgyAMoAyg8qviFh+cExlVZ+8ExSueP+414JKwqpgIoOhkz5Ed2rnPKDsp3KA9eMYyfIotLPZ7TZ852wzT5W+UElMToQk3GnCIybAp2LxMMdwkPUxcXDT0cJHrzQuCkwqVWSbg7hAmISFJ7UsIlyiXgpfEn90G4ZPbyB2h01OH6bVGdo6MmEQhsDIAKlxg7chEQD3EgUdNSouaFC4yb9hjGEkQ+w37TLY2Q8rFRiio8xpnaOaVMTZ/upOJ4Qtk1liH0h+gjBCHiAePCIaKgx8+CFxk2UyjGHFTSWs99UwLj+dBakwMfweNgwUIaBhdcdMAyuMWaAESY7rUyBRrqOfeH+CcEIqKxQWHPvRRs3BSnXkfMfplypVHANufYcMwZG5y4MIhZUDIisOGeldSY6WfjNsKc3TRAh/Cb/5xngGStu3JghCgt5CkRSqaRRyZxwb3NM3J9kKUhXc0/wGdt73vWqi3Za1qO5JNlg3NwPVHqiO2Nyj9E8FpYfXIfQuDEHrmF0xZ/ygPb9sPzgOlMxCSvcxaGyQsWGezo0zWSDcdNHhucpNCPKD4yK8oN7lPsOww33geeH8iO64k+5SvnBMXF9KEujx7Bj0pQ73KNklcKKWqrAuHmW2BfK+BDKDyp9XCvKDyr+ZOxC4+aZw7jDChrXhjIWH6D84DkjCCp+PaioECjROQ1jF0kA4+aGooZFlBxChMIFoTZNRwtu3vDBYz3WJ4oOoZ2K8ZrcsKT/KCgwAG5yIkBuBh6EEB54jJDCkoInFWlXzIcbkMKP3wPaFrkZqalTuaDwI6UXGnfYRhWd6qLg5AalYMEoqVmGqbEQKi0UzEQ8dMhLtqFFw4NHSn+vC3MNU4UYKQUEGQYKTETNmgeMfSKlycMVnSonqiGipiJAFM1DRs9tok4eagoZzmMIaWUyJXzGOUhFxM1v0pEr+p3h4cPPfUhhGp0qJ5qhEKIiGMI54b4iFc5xcR6obBE5hecrGs4D9wkFUFk6EyUClUZSkgwT4v4KYX8o6DBdfpfnIawwUvhRcHINKTRDMETuTVKdZFswAM4ZzxbXkGVEUVS4SHdyvXlOeXZLq7SUB54rnmHKAzJSIVQwossPMgKUBUCFi/WpzIeQDaBQD8sPrj1RKNcrrHRHw7nDRPjtVBkdlVra0jHUMD3Mc0RlOLr8IFUemhXPH+VHdGYlLD84puLlB5U3jhdT5N6ggppqqNxyj1B+cBxhkMF9T4Wc8oNKEfceBh8aN5khznl0Rqp4+UGlrHinXHyB+5zKSXRWRpQDTjwFMb0FqUVykikYSA+RyuIC01OSQj80XiJKavHcbNyQPHCl1ea5oSlkKFR5kKnRUQjTY5Lohlp3KiIB4Cai9stEG9yARI6YNvtCBMRDxj5w84YPJg8lBkwqjJQkteXogrM4pPKoqVI4EkUkMqlEecF4KACYYAMTo8DkmlBpoJJEQcC1wwyIeqhUUWhj8hTknAP6MFCxKi0zwMNK5Y0IiIoN14zrT2cqDIZ7hHWSDfcChfwrLip7FPYYNJkMIk2MiX3iniW7QMUBMyNaZRnngutcvGIVwj5TQHG+yAZxTFRMOJ98n3s02R3vMB4qHfQ2piMXzwznEzOnksLzQVaKe5HKIZVYojDuU64vZs55oMKVaJMS9y3ni/PGcabiWgH7RHqX8oNzR/nBdSlefmByHDNQiSBCp/IVlh+lpYbJFPE52ReeR8T14tnFWHiOYxl7MuA3SXtTfmBM3Fc83zxj0eUHGaLQzLh+ZAy43vHKDwwOM6eMoiJDZZxrxfc4R6Wdk/KCcWOylB9UPKhkFS8/wiwcFXTOL6IyiHFTlsYrP4AKC+tRseHZ4j6gcsK9THAgygE1PB4yhkwReZNuxJS5aNykRC3UjEnncUMBZkxhzsNHVEABE6Yti4PJ0GuRdhu2ybapgfPQ8WCzzVgRUDLgZuR3eCjYfzof0bmCQoT95bc5Xm7I8MEjbU8qnAKTh5LC6ETjuIlmKawoICmIotO7qYKHhciXNnoeJIwO48KUMVaiMFKwRCM8hKT5+A7RJw8P14AHCbPi4SoNCmVSf2yHB5zvce7YJpFWKtqqME0edNp8iYApSLgOpH9pPySNzcPPflAJxMj4DhUUIiPuMSIDjjXWfUUFhrZGKjFhhI04fxTGRO9huj1ZUOhxzqjYcR65XnT8I9VKBZFnDGPA1GnH557iO5gA14nnjGeTSmV0++GJoKmLe5ftYzilpZzLC2UBFQTKDyp0RNjcJ+wz+8uxERBQyQ8r/nyH5inOO+UH34nO9kVDRY7e5OF9wDXmO9zH3A906EpVdgvzJPIMyw/uK8oPfpvKJOUH+86zT+oeKAvIoITlBwZYWtML9xplDUP+GB7H+eBZ49xxf4cZpWTDc0EbPOUHqX7OLdeO8oNrSflBZ0f2hTKCigflB51FOXaOjfuXZ+5EQReVMu5bRlNwjPwNe7JHN7+Jk4CLQk0Yk8YMiGgoGHnouBlJVXEDE32F6SBq79QkKVgw5HByhdIeIApX2iGpqbFt2oSoiXOTp6q2DKTQKNw5FlL33ITUkklVUdhT4+XhwGzDHpzU8Kn1sn8cGzf4idJXPASYPtE920l1+xQQkRFlklbkGiDSUBRkPCxE2OwzkQ/RCoU2Jsu+kdZiPVJiRKfF01rR8LBSMHJfUNCS7iL6475ItrmFkDKl8kQkwjXjnuGacV9yz3Hvca9xbFQIuefCyiGVFaIGTJJ7NlY0wPepiHFdWZd2N64zqXSWp6LJhv3DwDiPGDP3I+c/3E+eMbIAZDEo5Dm3PDNcQwpL1qUCReo20eeFApX1ebZpBopViUkGVCQw5FjlBxEZx0YhXbz84Di5xpx7vkP5EKv8oKJFOcH2WBdx3TiPbD+VTVKksdnvsPzgenEvUik8UflBlJlI+UHFmOeJqJZrzF+uM88Zpsg9kwq4x7nfwvKD68DvUi5wLJQfXKuw/OB6cZ6jyw/OA/8+UflB2cG6BGgDI+LfHBvXTgghhBBCCCGEEEIIIYQQQgghhBBCCCGEEEIIIYQQQgghhBBCCCGEEEIIIYQQQgghhBBCCCGEEEIIIZLA//t//x8VE/3ikele/wAAAABJRU5ErkJggg==;" parent="1" vertex="1">
          <mxGeometry x="67.88" y="259" width="182.25" height="152" as="geometry" />
        </mxCell>
        <mxCell id="jhgVOvy4fzAntEZaRrQU-17" value="" style="rounded=0;whiteSpace=wrap;html=1;strokeColor=none;" parent="1" vertex="1">
          <mxGeometry x="80" y="231" width="662.25" height="40" as="geometry" />
        </mxCell>
        <mxCell id="jhgVOvy4fzAntEZaRrQU-19" value="&lt;font face=&quot;Times New Roman&quot;&gt;CHROM&lt;/font&gt;" style="text;html=1;strokeColor=none;fillColor=none;align=center;verticalAlign=middle;whiteSpace=wrap;rounded=0;" parent="1" vertex="1">
          <mxGeometry x="132" y="254" width="60" height="20" as="geometry" />
        </mxCell>
        <mxCell id="jhgVOvy4fzAntEZaRrQU-20" value="&lt;font face=&quot;Times New Roman&quot;&gt;LGI&lt;/font&gt;" style="text;html=1;strokeColor=none;fillColor=none;align=center;verticalAlign=middle;whiteSpace=wrap;rounded=0;" parent="1" vertex="1">
          <mxGeometry x="465" y="254" width="60" height="20" as="geometry" />
        </mxCell>
        <mxCell id="jhgVOvy4fzAntEZaRrQU-22" value="" style="rounded=0;whiteSpace=wrap;html=1;strokeColor=none;" parent="1" vertex="1">
          <mxGeometry x="80" y="417" width="674.75" height="8.5" as="geometry" />
        </mxCell>
        <mxCell id="jhgVOvy4fzAntEZaRrQU-24" value="&lt;font face=&quot;Times New Roman&quot;&gt;POS&lt;/font&gt;" style="text;html=1;strokeColor=none;fillColor=none;align=center;verticalAlign=middle;whiteSpace=wrap;rounded=0;" parent="1" vertex="1">
          <mxGeometry x="298.12" y="254.5" width="60" height="20" as="geometry" />
        </mxCell>
        <mxCell id="jhgVOvy4fzAntEZaRrQU-25" value="&lt;font face=&quot;Times New Roman&quot;&gt;PCA&lt;/font&gt;" style="text;html=1;strokeColor=none;fillColor=none;align=center;verticalAlign=middle;whiteSpace=wrap;rounded=0;" parent="1" vertex="1">
          <mxGeometry x="629.12" y="254.5" width="60" height="20" as="geometry" />
        </mxCell>
      </root>
    </mxGraphModel>
  </diagram>
</mxfile>
